%TF.GenerationSoftware,KiCad,Pcbnew,(5.1.9)-1*%
%TF.CreationDate,2021-04-28T07:42:15+10:00*%
%TF.ProjectId,Productivity Macro,50726f64-7563-4746-9976-697479204d61,rev?*%
%TF.SameCoordinates,Original*%
%TF.FileFunction,Soldermask,Top*%
%TF.FilePolarity,Negative*%
%FSLAX46Y46*%
G04 Gerber Fmt 4.6, Leading zero omitted, Abs format (unit mm)*
G04 Created by KiCad (PCBNEW (5.1.9)-1) date 2021-04-28 07:42:15*
%MOMM*%
%LPD*%
G01*
G04 APERTURE LIST*
%ADD10O,1.700000X2.700000*%
%ADD11R,0.500000X2.250000*%
%ADD12R,2.000000X2.000000*%
%ADD13C,2.000000*%
%ADD14R,3.200000X2.000000*%
%ADD15R,1.800000X1.100000*%
%ADD16C,1.750000*%
%ADD17C,3.987800*%
%ADD18R,1.200000X0.900000*%
G04 APERTURE END LIST*
D10*
%TO.C,USB1*%
X228440000Y-47498000D03*
X221140000Y-47498000D03*
X221140000Y-51998000D03*
X228440000Y-51998000D03*
D11*
X226390000Y-51998000D03*
X225590000Y-51998000D03*
X224790000Y-51998000D03*
X223990000Y-51998000D03*
X223190000Y-51998000D03*
%TD*%
D12*
%TO.C,SW3*%
X232664000Y-83312000D03*
D13*
X232664000Y-85812000D03*
X232664000Y-88312000D03*
D14*
X240164000Y-80212000D03*
X240164000Y-91412000D03*
D13*
X247164000Y-83312000D03*
X247164000Y-88312000D03*
%TD*%
D12*
%TO.C,SW2*%
X195834000Y-83312000D03*
D13*
X195834000Y-85812000D03*
X195834000Y-88312000D03*
D14*
X203334000Y-80212000D03*
X203334000Y-91412000D03*
D13*
X210334000Y-83312000D03*
X210334000Y-88312000D03*
%TD*%
D15*
%TO.C,SW1*%
X244654000Y-52252000D03*
X238454000Y-55952000D03*
X244654000Y-55952000D03*
X238454000Y-52252000D03*
%TD*%
%TO.C,R3*%
G36*
G01*
X232098001Y-63100000D02*
X231197999Y-63100000D01*
G75*
G02*
X230948000Y-62850001I0J249999D01*
G01*
X230948000Y-62324999D01*
G75*
G02*
X231197999Y-62075000I249999J0D01*
G01*
X232098001Y-62075000D01*
G75*
G02*
X232348000Y-62324999I0J-249999D01*
G01*
X232348000Y-62850001D01*
G75*
G02*
X232098001Y-63100000I-249999J0D01*
G01*
G37*
G36*
G01*
X232098001Y-64925000D02*
X231197999Y-64925000D01*
G75*
G02*
X230948000Y-64675001I0J249999D01*
G01*
X230948000Y-64149999D01*
G75*
G02*
X231197999Y-63900000I249999J0D01*
G01*
X232098001Y-63900000D01*
G75*
G02*
X232348000Y-64149999I0J-249999D01*
G01*
X232348000Y-64675001D01*
G75*
G02*
X232098001Y-64925000I-249999J0D01*
G01*
G37*
%TD*%
%TO.C,R2*%
G36*
G01*
X228796001Y-63100000D02*
X227895999Y-63100000D01*
G75*
G02*
X227646000Y-62850001I0J249999D01*
G01*
X227646000Y-62324999D01*
G75*
G02*
X227895999Y-62075000I249999J0D01*
G01*
X228796001Y-62075000D01*
G75*
G02*
X229046000Y-62324999I0J-249999D01*
G01*
X229046000Y-62850001D01*
G75*
G02*
X228796001Y-63100000I-249999J0D01*
G01*
G37*
G36*
G01*
X228796001Y-64925000D02*
X227895999Y-64925000D01*
G75*
G02*
X227646000Y-64675001I0J249999D01*
G01*
X227646000Y-64149999D01*
G75*
G02*
X227895999Y-63900000I249999J0D01*
G01*
X228796001Y-63900000D01*
G75*
G02*
X229046000Y-64149999I0J-249999D01*
G01*
X229046000Y-64675001D01*
G75*
G02*
X228796001Y-64925000I-249999J0D01*
G01*
G37*
%TD*%
D16*
%TO.C,MX7*%
X245618000Y-123952000D03*
X235458000Y-123952000D03*
D17*
X240538000Y-123952000D03*
%TD*%
D16*
%TO.C,MX6*%
X226568000Y-123952000D03*
X216408000Y-123952000D03*
D17*
X221488000Y-123952000D03*
%TD*%
D16*
%TO.C,MX5*%
X207518000Y-123952000D03*
X197358000Y-123952000D03*
D17*
X202438000Y-123952000D03*
%TD*%
D16*
%TO.C,MX4*%
X245618000Y-104902000D03*
X235458000Y-104902000D03*
D17*
X240538000Y-104902000D03*
%TD*%
D16*
%TO.C,MX3*%
X226568000Y-104902000D03*
X216408000Y-104902000D03*
D17*
X221488000Y-104902000D03*
%TD*%
D16*
%TO.C,MX2*%
X207518000Y-104902000D03*
X197358000Y-104902000D03*
D17*
X202438000Y-104902000D03*
%TD*%
D16*
%TO.C,MX1*%
X226568000Y-85852000D03*
X216408000Y-85852000D03*
D17*
X221488000Y-85852000D03*
%TD*%
D18*
%TO.C,D9*%
X242824000Y-72262000D03*
X242824000Y-68962000D03*
%TD*%
%TO.C,D8*%
X233680000Y-71246000D03*
X233680000Y-67946000D03*
%TD*%
%TO.C,D7*%
X224536000Y-72262000D03*
X224536000Y-68962000D03*
%TD*%
%TO.C,D6*%
X239776000Y-71246000D03*
X239776000Y-67946000D03*
%TD*%
%TO.C,D5*%
X230632000Y-72262000D03*
X230632000Y-68962000D03*
%TD*%
%TO.C,D4*%
X221488000Y-71246000D03*
X221488000Y-67946000D03*
%TD*%
%TO.C,D3*%
X227584000Y-71246000D03*
X227584000Y-67946000D03*
%TD*%
%TO.C,D2*%
X236728000Y-72262000D03*
X236728000Y-68962000D03*
%TD*%
%TO.C,D1*%
X218440000Y-72262000D03*
X218440000Y-68962000D03*
%TD*%
M02*
