%TF.GenerationSoftware,KiCad,Pcbnew,(5.1.9)-1*%
%TF.CreationDate,2021-04-28T07:42:15+10:00*%
%TF.ProjectId,Productivity Macro,50726f64-7563-4746-9976-697479204d61,rev?*%
%TF.SameCoordinates,Original*%
%TF.FileFunction,Legend,Top*%
%TF.FilePolarity,Positive*%
%FSLAX46Y46*%
G04 Gerber Fmt 4.6, Leading zero omitted, Abs format (unit mm)*
G04 Created by KiCad (PCBNEW (5.1.9)-1) date 2021-04-28 07:42:15*
%MOMM*%
%LPD*%
G01*
G04 APERTURE LIST*
%ADD10C,0.150000*%
%ADD11C,0.120000*%
%ADD12O,1.700000X2.700000*%
%ADD13R,0.500000X2.250000*%
%ADD14R,2.000000X2.000000*%
%ADD15C,2.000000*%
%ADD16R,3.200000X2.000000*%
%ADD17R,1.800000X1.100000*%
%ADD18C,1.750000*%
%ADD19C,3.987800*%
%ADD20R,1.200000X0.900000*%
G04 APERTURE END LIST*
D10*
%TO.C,USB1*%
X228640000Y-52948000D02*
X220940000Y-52948000D01*
X220940000Y-47498000D02*
X220940000Y-52948000D01*
X228640000Y-47498000D02*
X228640000Y-52948000D01*
D11*
%TO.C,SW3*%
X239664000Y-85812000D02*
X240664000Y-85812000D01*
X240164000Y-85312000D02*
X240164000Y-86312000D01*
X246264000Y-89312000D02*
X246264000Y-91712000D01*
X246264000Y-84512000D02*
X246264000Y-87112000D01*
X246264000Y-79912000D02*
X246264000Y-82312000D01*
X232964000Y-81712000D02*
X232664000Y-82012000D01*
X232364000Y-81712000D02*
X232964000Y-81712000D01*
X232664000Y-82012000D02*
X232364000Y-81712000D01*
X234064000Y-79912000D02*
X234064000Y-91712000D01*
X238164000Y-79912000D02*
X234064000Y-79912000D01*
X238164000Y-91712000D02*
X234064000Y-91712000D01*
X246264000Y-91712000D02*
X242164000Y-91712000D01*
X242164000Y-79912000D02*
X246264000Y-79912000D01*
X243164000Y-85812000D02*
G75*
G03*
X243164000Y-85812000I-3000000J0D01*
G01*
%TO.C,SW2*%
X202834000Y-85812000D02*
X203834000Y-85812000D01*
X203334000Y-85312000D02*
X203334000Y-86312000D01*
X209434000Y-89312000D02*
X209434000Y-91712000D01*
X209434000Y-84512000D02*
X209434000Y-87112000D01*
X209434000Y-79912000D02*
X209434000Y-82312000D01*
X196134000Y-81712000D02*
X195834000Y-82012000D01*
X195534000Y-81712000D02*
X196134000Y-81712000D01*
X195834000Y-82012000D02*
X195534000Y-81712000D01*
X197234000Y-79912000D02*
X197234000Y-91712000D01*
X201334000Y-79912000D02*
X197234000Y-79912000D01*
X201334000Y-91712000D02*
X197234000Y-91712000D01*
X209434000Y-91712000D02*
X205334000Y-91712000D01*
X205334000Y-79912000D02*
X209434000Y-79912000D01*
X206334000Y-85812000D02*
G75*
G03*
X206334000Y-85812000I-3000000J0D01*
G01*
D10*
%TO.C,SW1*%
X242554000Y-54102000D02*
G75*
G03*
X242554000Y-54102000I-1000000J0D01*
G01*
X244154000Y-51502000D02*
X244154000Y-56702000D01*
X238954000Y-51502000D02*
X244154000Y-51502000D01*
X238954000Y-56702000D02*
X238954000Y-51502000D01*
X244154000Y-56702000D02*
X238954000Y-56702000D01*
D11*
%TO.C,R3*%
X230913000Y-63727064D02*
X230913000Y-63272936D01*
X232383000Y-63727064D02*
X232383000Y-63272936D01*
%TO.C,R2*%
X227611000Y-63727064D02*
X227611000Y-63272936D01*
X229081000Y-63727064D02*
X229081000Y-63272936D01*
%TO.C,D9*%
X243824000Y-68362000D02*
X241824000Y-68362000D01*
X241824000Y-68362000D02*
X241824000Y-72262000D01*
X243824000Y-68362000D02*
X243824000Y-72262000D01*
%TO.C,D8*%
X234680000Y-67346000D02*
X232680000Y-67346000D01*
X232680000Y-67346000D02*
X232680000Y-71246000D01*
X234680000Y-67346000D02*
X234680000Y-71246000D01*
%TO.C,D7*%
X225536000Y-68362000D02*
X223536000Y-68362000D01*
X223536000Y-68362000D02*
X223536000Y-72262000D01*
X225536000Y-68362000D02*
X225536000Y-72262000D01*
%TO.C,D6*%
X240776000Y-67346000D02*
X238776000Y-67346000D01*
X238776000Y-67346000D02*
X238776000Y-71246000D01*
X240776000Y-67346000D02*
X240776000Y-71246000D01*
%TO.C,D5*%
X231632000Y-68362000D02*
X229632000Y-68362000D01*
X229632000Y-68362000D02*
X229632000Y-72262000D01*
X231632000Y-68362000D02*
X231632000Y-72262000D01*
%TO.C,D4*%
X222488000Y-67346000D02*
X220488000Y-67346000D01*
X220488000Y-67346000D02*
X220488000Y-71246000D01*
X222488000Y-67346000D02*
X222488000Y-71246000D01*
%TO.C,D3*%
X228584000Y-67346000D02*
X226584000Y-67346000D01*
X226584000Y-67346000D02*
X226584000Y-71246000D01*
X228584000Y-67346000D02*
X228584000Y-71246000D01*
%TO.C,D2*%
X237728000Y-68362000D02*
X235728000Y-68362000D01*
X235728000Y-68362000D02*
X235728000Y-72262000D01*
X237728000Y-68362000D02*
X237728000Y-72262000D01*
%TO.C,D1*%
X219440000Y-68362000D02*
X217440000Y-68362000D01*
X217440000Y-68362000D02*
X217440000Y-72262000D01*
X219440000Y-68362000D02*
X219440000Y-72262000D01*
%TO.C,USB1*%
D10*
X223051904Y-48982380D02*
X223051904Y-49791904D01*
X223099523Y-49887142D01*
X223147142Y-49934761D01*
X223242380Y-49982380D01*
X223432857Y-49982380D01*
X223528095Y-49934761D01*
X223575714Y-49887142D01*
X223623333Y-49791904D01*
X223623333Y-48982380D01*
X224051904Y-49934761D02*
X224194761Y-49982380D01*
X224432857Y-49982380D01*
X224528095Y-49934761D01*
X224575714Y-49887142D01*
X224623333Y-49791904D01*
X224623333Y-49696666D01*
X224575714Y-49601428D01*
X224528095Y-49553809D01*
X224432857Y-49506190D01*
X224242380Y-49458571D01*
X224147142Y-49410952D01*
X224099523Y-49363333D01*
X224051904Y-49268095D01*
X224051904Y-49172857D01*
X224099523Y-49077619D01*
X224147142Y-49030000D01*
X224242380Y-48982380D01*
X224480476Y-48982380D01*
X224623333Y-49030000D01*
X225385238Y-49458571D02*
X225528095Y-49506190D01*
X225575714Y-49553809D01*
X225623333Y-49649047D01*
X225623333Y-49791904D01*
X225575714Y-49887142D01*
X225528095Y-49934761D01*
X225432857Y-49982380D01*
X225051904Y-49982380D01*
X225051904Y-48982380D01*
X225385238Y-48982380D01*
X225480476Y-49030000D01*
X225528095Y-49077619D01*
X225575714Y-49172857D01*
X225575714Y-49268095D01*
X225528095Y-49363333D01*
X225480476Y-49410952D01*
X225385238Y-49458571D01*
X225051904Y-49458571D01*
X226575714Y-49982380D02*
X226004285Y-49982380D01*
X226290000Y-49982380D02*
X226290000Y-48982380D01*
X226194761Y-49125238D01*
X226099523Y-49220476D01*
X226004285Y-49268095D01*
%TO.C,SW3*%
X234130666Y-79016761D02*
X234273523Y-79064380D01*
X234511619Y-79064380D01*
X234606857Y-79016761D01*
X234654476Y-78969142D01*
X234702095Y-78873904D01*
X234702095Y-78778666D01*
X234654476Y-78683428D01*
X234606857Y-78635809D01*
X234511619Y-78588190D01*
X234321142Y-78540571D01*
X234225904Y-78492952D01*
X234178285Y-78445333D01*
X234130666Y-78350095D01*
X234130666Y-78254857D01*
X234178285Y-78159619D01*
X234225904Y-78112000D01*
X234321142Y-78064380D01*
X234559238Y-78064380D01*
X234702095Y-78112000D01*
X235035428Y-78064380D02*
X235273523Y-79064380D01*
X235464000Y-78350095D01*
X235654476Y-79064380D01*
X235892571Y-78064380D01*
X236178285Y-78064380D02*
X236797333Y-78064380D01*
X236464000Y-78445333D01*
X236606857Y-78445333D01*
X236702095Y-78492952D01*
X236749714Y-78540571D01*
X236797333Y-78635809D01*
X236797333Y-78873904D01*
X236749714Y-78969142D01*
X236702095Y-79016761D01*
X236606857Y-79064380D01*
X236321142Y-79064380D01*
X236225904Y-79016761D01*
X236178285Y-78969142D01*
%TO.C,SW2*%
X197300666Y-79016761D02*
X197443523Y-79064380D01*
X197681619Y-79064380D01*
X197776857Y-79016761D01*
X197824476Y-78969142D01*
X197872095Y-78873904D01*
X197872095Y-78778666D01*
X197824476Y-78683428D01*
X197776857Y-78635809D01*
X197681619Y-78588190D01*
X197491142Y-78540571D01*
X197395904Y-78492952D01*
X197348285Y-78445333D01*
X197300666Y-78350095D01*
X197300666Y-78254857D01*
X197348285Y-78159619D01*
X197395904Y-78112000D01*
X197491142Y-78064380D01*
X197729238Y-78064380D01*
X197872095Y-78112000D01*
X198205428Y-78064380D02*
X198443523Y-79064380D01*
X198634000Y-78350095D01*
X198824476Y-79064380D01*
X199062571Y-78064380D01*
X199395904Y-78159619D02*
X199443523Y-78112000D01*
X199538761Y-78064380D01*
X199776857Y-78064380D01*
X199872095Y-78112000D01*
X199919714Y-78159619D01*
X199967333Y-78254857D01*
X199967333Y-78350095D01*
X199919714Y-78492952D01*
X199348285Y-79064380D01*
X199967333Y-79064380D01*
%TO.C,SW1*%
X240220666Y-50442761D02*
X240363523Y-50490380D01*
X240601619Y-50490380D01*
X240696857Y-50442761D01*
X240744476Y-50395142D01*
X240792095Y-50299904D01*
X240792095Y-50204666D01*
X240744476Y-50109428D01*
X240696857Y-50061809D01*
X240601619Y-50014190D01*
X240411142Y-49966571D01*
X240315904Y-49918952D01*
X240268285Y-49871333D01*
X240220666Y-49776095D01*
X240220666Y-49680857D01*
X240268285Y-49585619D01*
X240315904Y-49538000D01*
X240411142Y-49490380D01*
X240649238Y-49490380D01*
X240792095Y-49538000D01*
X241125428Y-49490380D02*
X241363523Y-50490380D01*
X241554000Y-49776095D01*
X241744476Y-50490380D01*
X241982571Y-49490380D01*
X242887333Y-50490380D02*
X242315904Y-50490380D01*
X242601619Y-50490380D02*
X242601619Y-49490380D01*
X242506380Y-49633238D01*
X242411142Y-49728476D01*
X242315904Y-49776095D01*
%TO.C,R3*%
X230450380Y-63666666D02*
X229974190Y-64000000D01*
X230450380Y-64238095D02*
X229450380Y-64238095D01*
X229450380Y-63857142D01*
X229498000Y-63761904D01*
X229545619Y-63714285D01*
X229640857Y-63666666D01*
X229783714Y-63666666D01*
X229878952Y-63714285D01*
X229926571Y-63761904D01*
X229974190Y-63857142D01*
X229974190Y-64238095D01*
X229450380Y-63333333D02*
X229450380Y-62714285D01*
X229831333Y-63047619D01*
X229831333Y-62904761D01*
X229878952Y-62809523D01*
X229926571Y-62761904D01*
X230021809Y-62714285D01*
X230259904Y-62714285D01*
X230355142Y-62761904D01*
X230402761Y-62809523D01*
X230450380Y-62904761D01*
X230450380Y-63190476D01*
X230402761Y-63285714D01*
X230355142Y-63333333D01*
%TO.C,R2*%
X227148380Y-63666666D02*
X226672190Y-64000000D01*
X227148380Y-64238095D02*
X226148380Y-64238095D01*
X226148380Y-63857142D01*
X226196000Y-63761904D01*
X226243619Y-63714285D01*
X226338857Y-63666666D01*
X226481714Y-63666666D01*
X226576952Y-63714285D01*
X226624571Y-63761904D01*
X226672190Y-63857142D01*
X226672190Y-64238095D01*
X226243619Y-63285714D02*
X226196000Y-63238095D01*
X226148380Y-63142857D01*
X226148380Y-62904761D01*
X226196000Y-62809523D01*
X226243619Y-62761904D01*
X226338857Y-62714285D01*
X226434095Y-62714285D01*
X226576952Y-62761904D01*
X227148380Y-63333333D01*
X227148380Y-62714285D01*
%TO.C,D9*%
X245276380Y-71350095D02*
X244276380Y-71350095D01*
X244276380Y-71112000D01*
X244324000Y-70969142D01*
X244419238Y-70873904D01*
X244514476Y-70826285D01*
X244704952Y-70778666D01*
X244847809Y-70778666D01*
X245038285Y-70826285D01*
X245133523Y-70873904D01*
X245228761Y-70969142D01*
X245276380Y-71112000D01*
X245276380Y-71350095D01*
X245276380Y-70302476D02*
X245276380Y-70112000D01*
X245228761Y-70016761D01*
X245181142Y-69969142D01*
X245038285Y-69873904D01*
X244847809Y-69826285D01*
X244466857Y-69826285D01*
X244371619Y-69873904D01*
X244324000Y-69921523D01*
X244276380Y-70016761D01*
X244276380Y-70207238D01*
X244324000Y-70302476D01*
X244371619Y-70350095D01*
X244466857Y-70397714D01*
X244704952Y-70397714D01*
X244800190Y-70350095D01*
X244847809Y-70302476D01*
X244895428Y-70207238D01*
X244895428Y-70016761D01*
X244847809Y-69921523D01*
X244800190Y-69873904D01*
X244704952Y-69826285D01*
%TO.C,D8*%
X236132380Y-70334095D02*
X235132380Y-70334095D01*
X235132380Y-70096000D01*
X235180000Y-69953142D01*
X235275238Y-69857904D01*
X235370476Y-69810285D01*
X235560952Y-69762666D01*
X235703809Y-69762666D01*
X235894285Y-69810285D01*
X235989523Y-69857904D01*
X236084761Y-69953142D01*
X236132380Y-70096000D01*
X236132380Y-70334095D01*
X235560952Y-69191238D02*
X235513333Y-69286476D01*
X235465714Y-69334095D01*
X235370476Y-69381714D01*
X235322857Y-69381714D01*
X235227619Y-69334095D01*
X235180000Y-69286476D01*
X235132380Y-69191238D01*
X235132380Y-69000761D01*
X235180000Y-68905523D01*
X235227619Y-68857904D01*
X235322857Y-68810285D01*
X235370476Y-68810285D01*
X235465714Y-68857904D01*
X235513333Y-68905523D01*
X235560952Y-69000761D01*
X235560952Y-69191238D01*
X235608571Y-69286476D01*
X235656190Y-69334095D01*
X235751428Y-69381714D01*
X235941904Y-69381714D01*
X236037142Y-69334095D01*
X236084761Y-69286476D01*
X236132380Y-69191238D01*
X236132380Y-69000761D01*
X236084761Y-68905523D01*
X236037142Y-68857904D01*
X235941904Y-68810285D01*
X235751428Y-68810285D01*
X235656190Y-68857904D01*
X235608571Y-68905523D01*
X235560952Y-69000761D01*
%TO.C,D7*%
X226988380Y-71350095D02*
X225988380Y-71350095D01*
X225988380Y-71112000D01*
X226036000Y-70969142D01*
X226131238Y-70873904D01*
X226226476Y-70826285D01*
X226416952Y-70778666D01*
X226559809Y-70778666D01*
X226750285Y-70826285D01*
X226845523Y-70873904D01*
X226940761Y-70969142D01*
X226988380Y-71112000D01*
X226988380Y-71350095D01*
X225988380Y-70445333D02*
X225988380Y-69778666D01*
X226988380Y-70207238D01*
%TO.C,D6*%
X242228380Y-70334095D02*
X241228380Y-70334095D01*
X241228380Y-70096000D01*
X241276000Y-69953142D01*
X241371238Y-69857904D01*
X241466476Y-69810285D01*
X241656952Y-69762666D01*
X241799809Y-69762666D01*
X241990285Y-69810285D01*
X242085523Y-69857904D01*
X242180761Y-69953142D01*
X242228380Y-70096000D01*
X242228380Y-70334095D01*
X241228380Y-68905523D02*
X241228380Y-69096000D01*
X241276000Y-69191238D01*
X241323619Y-69238857D01*
X241466476Y-69334095D01*
X241656952Y-69381714D01*
X242037904Y-69381714D01*
X242133142Y-69334095D01*
X242180761Y-69286476D01*
X242228380Y-69191238D01*
X242228380Y-69000761D01*
X242180761Y-68905523D01*
X242133142Y-68857904D01*
X242037904Y-68810285D01*
X241799809Y-68810285D01*
X241704571Y-68857904D01*
X241656952Y-68905523D01*
X241609333Y-69000761D01*
X241609333Y-69191238D01*
X241656952Y-69286476D01*
X241704571Y-69334095D01*
X241799809Y-69381714D01*
%TO.C,D5*%
X233084380Y-71350095D02*
X232084380Y-71350095D01*
X232084380Y-71112000D01*
X232132000Y-70969142D01*
X232227238Y-70873904D01*
X232322476Y-70826285D01*
X232512952Y-70778666D01*
X232655809Y-70778666D01*
X232846285Y-70826285D01*
X232941523Y-70873904D01*
X233036761Y-70969142D01*
X233084380Y-71112000D01*
X233084380Y-71350095D01*
X232084380Y-69873904D02*
X232084380Y-70350095D01*
X232560571Y-70397714D01*
X232512952Y-70350095D01*
X232465333Y-70254857D01*
X232465333Y-70016761D01*
X232512952Y-69921523D01*
X232560571Y-69873904D01*
X232655809Y-69826285D01*
X232893904Y-69826285D01*
X232989142Y-69873904D01*
X233036761Y-69921523D01*
X233084380Y-70016761D01*
X233084380Y-70254857D01*
X233036761Y-70350095D01*
X232989142Y-70397714D01*
%TO.C,D4*%
X223940380Y-70334095D02*
X222940380Y-70334095D01*
X222940380Y-70096000D01*
X222988000Y-69953142D01*
X223083238Y-69857904D01*
X223178476Y-69810285D01*
X223368952Y-69762666D01*
X223511809Y-69762666D01*
X223702285Y-69810285D01*
X223797523Y-69857904D01*
X223892761Y-69953142D01*
X223940380Y-70096000D01*
X223940380Y-70334095D01*
X223273714Y-68905523D02*
X223940380Y-68905523D01*
X222892761Y-69143619D02*
X223607047Y-69381714D01*
X223607047Y-68762666D01*
%TO.C,D3*%
X230036380Y-70334095D02*
X229036380Y-70334095D01*
X229036380Y-70096000D01*
X229084000Y-69953142D01*
X229179238Y-69857904D01*
X229274476Y-69810285D01*
X229464952Y-69762666D01*
X229607809Y-69762666D01*
X229798285Y-69810285D01*
X229893523Y-69857904D01*
X229988761Y-69953142D01*
X230036380Y-70096000D01*
X230036380Y-70334095D01*
X229036380Y-69429333D02*
X229036380Y-68810285D01*
X229417333Y-69143619D01*
X229417333Y-69000761D01*
X229464952Y-68905523D01*
X229512571Y-68857904D01*
X229607809Y-68810285D01*
X229845904Y-68810285D01*
X229941142Y-68857904D01*
X229988761Y-68905523D01*
X230036380Y-69000761D01*
X230036380Y-69286476D01*
X229988761Y-69381714D01*
X229941142Y-69429333D01*
%TO.C,D2*%
X239180380Y-71350095D02*
X238180380Y-71350095D01*
X238180380Y-71112000D01*
X238228000Y-70969142D01*
X238323238Y-70873904D01*
X238418476Y-70826285D01*
X238608952Y-70778666D01*
X238751809Y-70778666D01*
X238942285Y-70826285D01*
X239037523Y-70873904D01*
X239132761Y-70969142D01*
X239180380Y-71112000D01*
X239180380Y-71350095D01*
X238275619Y-70397714D02*
X238228000Y-70350095D01*
X238180380Y-70254857D01*
X238180380Y-70016761D01*
X238228000Y-69921523D01*
X238275619Y-69873904D01*
X238370857Y-69826285D01*
X238466095Y-69826285D01*
X238608952Y-69873904D01*
X239180380Y-70445333D01*
X239180380Y-69826285D01*
%TO.C,D1*%
X220892380Y-71350095D02*
X219892380Y-71350095D01*
X219892380Y-71112000D01*
X219940000Y-70969142D01*
X220035238Y-70873904D01*
X220130476Y-70826285D01*
X220320952Y-70778666D01*
X220463809Y-70778666D01*
X220654285Y-70826285D01*
X220749523Y-70873904D01*
X220844761Y-70969142D01*
X220892380Y-71112000D01*
X220892380Y-71350095D01*
X220892380Y-69826285D02*
X220892380Y-70397714D01*
X220892380Y-70112000D02*
X219892380Y-70112000D01*
X220035238Y-70207238D01*
X220130476Y-70302476D01*
X220178095Y-70397714D01*
%TD*%
%LPC*%
D12*
%TO.C,USB1*%
X228440000Y-47498000D03*
X221140000Y-47498000D03*
X221140000Y-51998000D03*
X228440000Y-51998000D03*
D13*
X226390000Y-51998000D03*
X225590000Y-51998000D03*
X224790000Y-51998000D03*
X223990000Y-51998000D03*
X223190000Y-51998000D03*
%TD*%
D14*
%TO.C,SW3*%
X232664000Y-83312000D03*
D15*
X232664000Y-85812000D03*
X232664000Y-88312000D03*
D16*
X240164000Y-80212000D03*
X240164000Y-91412000D03*
D15*
X247164000Y-83312000D03*
X247164000Y-88312000D03*
%TD*%
D14*
%TO.C,SW2*%
X195834000Y-83312000D03*
D15*
X195834000Y-85812000D03*
X195834000Y-88312000D03*
D16*
X203334000Y-80212000D03*
X203334000Y-91412000D03*
D15*
X210334000Y-83312000D03*
X210334000Y-88312000D03*
%TD*%
D17*
%TO.C,SW1*%
X244654000Y-52252000D03*
X238454000Y-55952000D03*
X244654000Y-55952000D03*
X238454000Y-52252000D03*
%TD*%
%TO.C,R3*%
G36*
G01*
X232098001Y-63100000D02*
X231197999Y-63100000D01*
G75*
G02*
X230948000Y-62850001I0J249999D01*
G01*
X230948000Y-62324999D01*
G75*
G02*
X231197999Y-62075000I249999J0D01*
G01*
X232098001Y-62075000D01*
G75*
G02*
X232348000Y-62324999I0J-249999D01*
G01*
X232348000Y-62850001D01*
G75*
G02*
X232098001Y-63100000I-249999J0D01*
G01*
G37*
G36*
G01*
X232098001Y-64925000D02*
X231197999Y-64925000D01*
G75*
G02*
X230948000Y-64675001I0J249999D01*
G01*
X230948000Y-64149999D01*
G75*
G02*
X231197999Y-63900000I249999J0D01*
G01*
X232098001Y-63900000D01*
G75*
G02*
X232348000Y-64149999I0J-249999D01*
G01*
X232348000Y-64675001D01*
G75*
G02*
X232098001Y-64925000I-249999J0D01*
G01*
G37*
%TD*%
%TO.C,R2*%
G36*
G01*
X228796001Y-63100000D02*
X227895999Y-63100000D01*
G75*
G02*
X227646000Y-62850001I0J249999D01*
G01*
X227646000Y-62324999D01*
G75*
G02*
X227895999Y-62075000I249999J0D01*
G01*
X228796001Y-62075000D01*
G75*
G02*
X229046000Y-62324999I0J-249999D01*
G01*
X229046000Y-62850001D01*
G75*
G02*
X228796001Y-63100000I-249999J0D01*
G01*
G37*
G36*
G01*
X228796001Y-64925000D02*
X227895999Y-64925000D01*
G75*
G02*
X227646000Y-64675001I0J249999D01*
G01*
X227646000Y-64149999D01*
G75*
G02*
X227895999Y-63900000I249999J0D01*
G01*
X228796001Y-63900000D01*
G75*
G02*
X229046000Y-64149999I0J-249999D01*
G01*
X229046000Y-64675001D01*
G75*
G02*
X228796001Y-64925000I-249999J0D01*
G01*
G37*
%TD*%
D18*
%TO.C,MX7*%
X245618000Y-123952000D03*
X235458000Y-123952000D03*
D19*
X240538000Y-123952000D03*
%TD*%
D18*
%TO.C,MX6*%
X226568000Y-123952000D03*
X216408000Y-123952000D03*
D19*
X221488000Y-123952000D03*
%TD*%
D18*
%TO.C,MX5*%
X207518000Y-123952000D03*
X197358000Y-123952000D03*
D19*
X202438000Y-123952000D03*
%TD*%
D18*
%TO.C,MX4*%
X245618000Y-104902000D03*
X235458000Y-104902000D03*
D19*
X240538000Y-104902000D03*
%TD*%
D18*
%TO.C,MX3*%
X226568000Y-104902000D03*
X216408000Y-104902000D03*
D19*
X221488000Y-104902000D03*
%TD*%
D18*
%TO.C,MX2*%
X207518000Y-104902000D03*
X197358000Y-104902000D03*
D19*
X202438000Y-104902000D03*
%TD*%
D18*
%TO.C,MX1*%
X226568000Y-85852000D03*
X216408000Y-85852000D03*
D19*
X221488000Y-85852000D03*
%TD*%
D20*
%TO.C,D9*%
X242824000Y-72262000D03*
X242824000Y-68962000D03*
%TD*%
%TO.C,D8*%
X233680000Y-71246000D03*
X233680000Y-67946000D03*
%TD*%
%TO.C,D7*%
X224536000Y-72262000D03*
X224536000Y-68962000D03*
%TD*%
%TO.C,D6*%
X239776000Y-71246000D03*
X239776000Y-67946000D03*
%TD*%
%TO.C,D5*%
X230632000Y-72262000D03*
X230632000Y-68962000D03*
%TD*%
%TO.C,D4*%
X221488000Y-71246000D03*
X221488000Y-67946000D03*
%TD*%
%TO.C,D3*%
X227584000Y-71246000D03*
X227584000Y-67946000D03*
%TD*%
%TO.C,D2*%
X236728000Y-72262000D03*
X236728000Y-68962000D03*
%TD*%
%TO.C,D1*%
X218440000Y-72262000D03*
X218440000Y-68962000D03*
%TD*%
M02*
