%TF.GenerationSoftware,KiCad,Pcbnew,(5.1.9)-1*%
%TF.CreationDate,2021-04-28T07:42:15+10:00*%
%TF.ProjectId,Productivity Macro,50726f64-7563-4746-9976-697479204d61,rev?*%
%TF.SameCoordinates,Original*%
%TF.FileFunction,Soldermask,Bot*%
%TF.FilePolarity,Negative*%
%FSLAX46Y46*%
G04 Gerber Fmt 4.6, Leading zero omitted, Abs format (unit mm)*
G04 Created by KiCad (PCBNEW (5.1.9)-1) date 2021-04-28 07:42:15*
%MOMM*%
%LPD*%
G01*
G04 APERTURE LIST*
%ADD10O,1.700000X2.700000*%
%ADD11R,1.400000X1.200000*%
%ADD12R,0.550000X1.500000*%
%ADD13R,1.500000X0.550000*%
%ADD14R,2.000000X2.000000*%
%ADD15C,2.000000*%
%ADD16R,3.200000X2.000000*%
%ADD17C,1.750000*%
%ADD18C,2.250000*%
%ADD19C,3.987800*%
%ADD20R,0.900000X1.200000*%
G04 APERTURE END LIST*
D10*
%TO.C,USB1*%
X228440000Y-47498000D03*
X221140000Y-47498000D03*
X221140000Y-51998000D03*
X228440000Y-51998000D03*
%TD*%
D11*
%TO.C,Y1*%
X208872000Y-49696000D03*
X206672000Y-49696000D03*
X206672000Y-51396000D03*
X208872000Y-51396000D03*
%TD*%
D12*
%TO.C,U1*%
X204026000Y-69454000D03*
X204826000Y-69454000D03*
X205626000Y-69454000D03*
X206426000Y-69454000D03*
X207226000Y-69454000D03*
X208026000Y-69454000D03*
X208826000Y-69454000D03*
X209626000Y-69454000D03*
X210426000Y-69454000D03*
X211226000Y-69454000D03*
X212026000Y-69454000D03*
D13*
X213726000Y-67754000D03*
X213726000Y-66954000D03*
X213726000Y-66154000D03*
X213726000Y-65354000D03*
X213726000Y-64554000D03*
X213726000Y-63754000D03*
X213726000Y-62954000D03*
X213726000Y-62154000D03*
X213726000Y-61354000D03*
X213726000Y-60554000D03*
X213726000Y-59754000D03*
D12*
X212026000Y-58054000D03*
X211226000Y-58054000D03*
X210426000Y-58054000D03*
X209626000Y-58054000D03*
X208826000Y-58054000D03*
X208026000Y-58054000D03*
X207226000Y-58054000D03*
X206426000Y-58054000D03*
X205626000Y-58054000D03*
X204826000Y-58054000D03*
X204026000Y-58054000D03*
D13*
X202326000Y-59754000D03*
X202326000Y-60554000D03*
X202326000Y-61354000D03*
X202326000Y-62154000D03*
X202326000Y-62954000D03*
X202326000Y-63754000D03*
X202326000Y-64554000D03*
X202326000Y-65354000D03*
X202326000Y-66154000D03*
X202326000Y-66954000D03*
X202326000Y-67754000D03*
%TD*%
D14*
%TO.C,SW3*%
X232664000Y-83312000D03*
D15*
X232664000Y-85812000D03*
X232664000Y-88312000D03*
D16*
X240164000Y-80212000D03*
X240164000Y-91412000D03*
D15*
X247164000Y-83312000D03*
X247164000Y-88312000D03*
%TD*%
D14*
%TO.C,SW2*%
X195834000Y-83312000D03*
D15*
X195834000Y-85812000D03*
X195834000Y-88312000D03*
D16*
X203334000Y-80212000D03*
X203334000Y-91412000D03*
D15*
X210334000Y-83312000D03*
X210334000Y-88312000D03*
%TD*%
%TO.C,R4*%
G36*
G01*
X217874001Y-65132000D02*
X216973999Y-65132000D01*
G75*
G02*
X216724000Y-64882001I0J249999D01*
G01*
X216724000Y-64356999D01*
G75*
G02*
X216973999Y-64107000I249999J0D01*
G01*
X217874001Y-64107000D01*
G75*
G02*
X218124000Y-64356999I0J-249999D01*
G01*
X218124000Y-64882001D01*
G75*
G02*
X217874001Y-65132000I-249999J0D01*
G01*
G37*
G36*
G01*
X217874001Y-66957000D02*
X216973999Y-66957000D01*
G75*
G02*
X216724000Y-66707001I0J249999D01*
G01*
X216724000Y-66181999D01*
G75*
G02*
X216973999Y-65932000I249999J0D01*
G01*
X217874001Y-65932000D01*
G75*
G02*
X218124000Y-66181999I0J-249999D01*
G01*
X218124000Y-66707001D01*
G75*
G02*
X217874001Y-66957000I-249999J0D01*
G01*
G37*
%TD*%
%TO.C,R1*%
G36*
G01*
X196653999Y-52978000D02*
X197554001Y-52978000D01*
G75*
G02*
X197804000Y-53227999I0J-249999D01*
G01*
X197804000Y-53753001D01*
G75*
G02*
X197554001Y-54003000I-249999J0D01*
G01*
X196653999Y-54003000D01*
G75*
G02*
X196404000Y-53753001I0J249999D01*
G01*
X196404000Y-53227999D01*
G75*
G02*
X196653999Y-52978000I249999J0D01*
G01*
G37*
G36*
G01*
X196653999Y-51153000D02*
X197554001Y-51153000D01*
G75*
G02*
X197804000Y-51402999I0J-249999D01*
G01*
X197804000Y-51928001D01*
G75*
G02*
X197554001Y-52178000I-249999J0D01*
G01*
X196653999Y-52178000D01*
G75*
G02*
X196404000Y-51928001I0J249999D01*
G01*
X196404000Y-51402999D01*
G75*
G02*
X196653999Y-51153000I249999J0D01*
G01*
G37*
%TD*%
D17*
%TO.C,MX7*%
X245618000Y-123952000D03*
X235458000Y-123952000D03*
D18*
X238038000Y-119952000D03*
D19*
X240538000Y-123952000D03*
G36*
G01*
X235976688Y-122249350D02*
X235976683Y-122249345D01*
G75*
G02*
X235890655Y-120660683I751317J837345D01*
G01*
X237200657Y-119200683D01*
G75*
G02*
X238789319Y-119114655I837345J-751317D01*
G01*
X238789319Y-119114655D01*
G75*
G02*
X238875347Y-120703317I-751317J-837345D01*
G01*
X237565345Y-122163317D01*
G75*
G02*
X235976683Y-122249345I-837345J751317D01*
G01*
G37*
D18*
X243078000Y-118872000D03*
G36*
G01*
X242961483Y-120574395D02*
X242960597Y-120574334D01*
G75*
G02*
X241915666Y-119374597I77403J1122334D01*
G01*
X241955666Y-118794597D01*
G75*
G02*
X243155403Y-117749666I1122334J-77403D01*
G01*
X243155403Y-117749666D01*
G75*
G02*
X244200334Y-118949403I-77403J-1122334D01*
G01*
X244160334Y-119529403D01*
G75*
G02*
X242960597Y-120574334I-1122334J77403D01*
G01*
G37*
%TD*%
D17*
%TO.C,MX6*%
X226568000Y-123952000D03*
X216408000Y-123952000D03*
D18*
X218988000Y-119952000D03*
D19*
X221488000Y-123952000D03*
G36*
G01*
X216926688Y-122249350D02*
X216926683Y-122249345D01*
G75*
G02*
X216840655Y-120660683I751317J837345D01*
G01*
X218150657Y-119200683D01*
G75*
G02*
X219739319Y-119114655I837345J-751317D01*
G01*
X219739319Y-119114655D01*
G75*
G02*
X219825347Y-120703317I-751317J-837345D01*
G01*
X218515345Y-122163317D01*
G75*
G02*
X216926683Y-122249345I-837345J751317D01*
G01*
G37*
D18*
X224028000Y-118872000D03*
G36*
G01*
X223911483Y-120574395D02*
X223910597Y-120574334D01*
G75*
G02*
X222865666Y-119374597I77403J1122334D01*
G01*
X222905666Y-118794597D01*
G75*
G02*
X224105403Y-117749666I1122334J-77403D01*
G01*
X224105403Y-117749666D01*
G75*
G02*
X225150334Y-118949403I-77403J-1122334D01*
G01*
X225110334Y-119529403D01*
G75*
G02*
X223910597Y-120574334I-1122334J77403D01*
G01*
G37*
%TD*%
D17*
%TO.C,MX5*%
X207518000Y-123952000D03*
X197358000Y-123952000D03*
D18*
X199938000Y-119952000D03*
D19*
X202438000Y-123952000D03*
G36*
G01*
X197876688Y-122249350D02*
X197876683Y-122249345D01*
G75*
G02*
X197790655Y-120660683I751317J837345D01*
G01*
X199100657Y-119200683D01*
G75*
G02*
X200689319Y-119114655I837345J-751317D01*
G01*
X200689319Y-119114655D01*
G75*
G02*
X200775347Y-120703317I-751317J-837345D01*
G01*
X199465345Y-122163317D01*
G75*
G02*
X197876683Y-122249345I-837345J751317D01*
G01*
G37*
D18*
X204978000Y-118872000D03*
G36*
G01*
X204861483Y-120574395D02*
X204860597Y-120574334D01*
G75*
G02*
X203815666Y-119374597I77403J1122334D01*
G01*
X203855666Y-118794597D01*
G75*
G02*
X205055403Y-117749666I1122334J-77403D01*
G01*
X205055403Y-117749666D01*
G75*
G02*
X206100334Y-118949403I-77403J-1122334D01*
G01*
X206060334Y-119529403D01*
G75*
G02*
X204860597Y-120574334I-1122334J77403D01*
G01*
G37*
%TD*%
D17*
%TO.C,MX4*%
X245618000Y-104902000D03*
X235458000Y-104902000D03*
D18*
X238038000Y-100902000D03*
D19*
X240538000Y-104902000D03*
G36*
G01*
X235976688Y-103199350D02*
X235976683Y-103199345D01*
G75*
G02*
X235890655Y-101610683I751317J837345D01*
G01*
X237200657Y-100150683D01*
G75*
G02*
X238789319Y-100064655I837345J-751317D01*
G01*
X238789319Y-100064655D01*
G75*
G02*
X238875347Y-101653317I-751317J-837345D01*
G01*
X237565345Y-103113317D01*
G75*
G02*
X235976683Y-103199345I-837345J751317D01*
G01*
G37*
D18*
X243078000Y-99822000D03*
G36*
G01*
X242961483Y-101524395D02*
X242960597Y-101524334D01*
G75*
G02*
X241915666Y-100324597I77403J1122334D01*
G01*
X241955666Y-99744597D01*
G75*
G02*
X243155403Y-98699666I1122334J-77403D01*
G01*
X243155403Y-98699666D01*
G75*
G02*
X244200334Y-99899403I-77403J-1122334D01*
G01*
X244160334Y-100479403D01*
G75*
G02*
X242960597Y-101524334I-1122334J77403D01*
G01*
G37*
%TD*%
D17*
%TO.C,MX3*%
X226568000Y-104902000D03*
X216408000Y-104902000D03*
D18*
X218988000Y-100902000D03*
D19*
X221488000Y-104902000D03*
G36*
G01*
X216926688Y-103199350D02*
X216926683Y-103199345D01*
G75*
G02*
X216840655Y-101610683I751317J837345D01*
G01*
X218150657Y-100150683D01*
G75*
G02*
X219739319Y-100064655I837345J-751317D01*
G01*
X219739319Y-100064655D01*
G75*
G02*
X219825347Y-101653317I-751317J-837345D01*
G01*
X218515345Y-103113317D01*
G75*
G02*
X216926683Y-103199345I-837345J751317D01*
G01*
G37*
D18*
X224028000Y-99822000D03*
G36*
G01*
X223911483Y-101524395D02*
X223910597Y-101524334D01*
G75*
G02*
X222865666Y-100324597I77403J1122334D01*
G01*
X222905666Y-99744597D01*
G75*
G02*
X224105403Y-98699666I1122334J-77403D01*
G01*
X224105403Y-98699666D01*
G75*
G02*
X225150334Y-99899403I-77403J-1122334D01*
G01*
X225110334Y-100479403D01*
G75*
G02*
X223910597Y-101524334I-1122334J77403D01*
G01*
G37*
%TD*%
D17*
%TO.C,MX2*%
X207518000Y-104902000D03*
X197358000Y-104902000D03*
D18*
X199938000Y-100902000D03*
D19*
X202438000Y-104902000D03*
G36*
G01*
X197876688Y-103199350D02*
X197876683Y-103199345D01*
G75*
G02*
X197790655Y-101610683I751317J837345D01*
G01*
X199100657Y-100150683D01*
G75*
G02*
X200689319Y-100064655I837345J-751317D01*
G01*
X200689319Y-100064655D01*
G75*
G02*
X200775347Y-101653317I-751317J-837345D01*
G01*
X199465345Y-103113317D01*
G75*
G02*
X197876683Y-103199345I-837345J751317D01*
G01*
G37*
D18*
X204978000Y-99822000D03*
G36*
G01*
X204861483Y-101524395D02*
X204860597Y-101524334D01*
G75*
G02*
X203815666Y-100324597I77403J1122334D01*
G01*
X203855666Y-99744597D01*
G75*
G02*
X205055403Y-98699666I1122334J-77403D01*
G01*
X205055403Y-98699666D01*
G75*
G02*
X206100334Y-99899403I-77403J-1122334D01*
G01*
X206060334Y-100479403D01*
G75*
G02*
X204860597Y-101524334I-1122334J77403D01*
G01*
G37*
%TD*%
D17*
%TO.C,MX1*%
X226568000Y-85852000D03*
X216408000Y-85852000D03*
D18*
X218988000Y-81852000D03*
D19*
X221488000Y-85852000D03*
G36*
G01*
X216926688Y-84149350D02*
X216926683Y-84149345D01*
G75*
G02*
X216840655Y-82560683I751317J837345D01*
G01*
X218150657Y-81100683D01*
G75*
G02*
X219739319Y-81014655I837345J-751317D01*
G01*
X219739319Y-81014655D01*
G75*
G02*
X219825347Y-82603317I-751317J-837345D01*
G01*
X218515345Y-84063317D01*
G75*
G02*
X216926683Y-84149345I-837345J751317D01*
G01*
G37*
D18*
X224028000Y-80772000D03*
G36*
G01*
X223911483Y-82474395D02*
X223910597Y-82474334D01*
G75*
G02*
X222865666Y-81274597I77403J1122334D01*
G01*
X222905666Y-80694597D01*
G75*
G02*
X224105403Y-79649666I1122334J-77403D01*
G01*
X224105403Y-79649666D01*
G75*
G02*
X225150334Y-80849403I-77403J-1122334D01*
G01*
X225110334Y-81429403D01*
G75*
G02*
X223910597Y-82474334I-1122334J77403D01*
G01*
G37*
%TD*%
%TO.C,F1*%
G36*
G01*
X223891000Y-58153000D02*
X222641000Y-58153000D01*
G75*
G02*
X222391000Y-57903000I0J250000D01*
G01*
X222391000Y-57153000D01*
G75*
G02*
X222641000Y-56903000I250000J0D01*
G01*
X223891000Y-56903000D01*
G75*
G02*
X224141000Y-57153000I0J-250000D01*
G01*
X224141000Y-57903000D01*
G75*
G02*
X223891000Y-58153000I-250000J0D01*
G01*
G37*
G36*
G01*
X223891000Y-60953000D02*
X222641000Y-60953000D01*
G75*
G02*
X222391000Y-60703000I0J250000D01*
G01*
X222391000Y-59953000D01*
G75*
G02*
X222641000Y-59703000I250000J0D01*
G01*
X223891000Y-59703000D01*
G75*
G02*
X224141000Y-59953000I0J-250000D01*
G01*
X224141000Y-60703000D01*
G75*
G02*
X223891000Y-60953000I-250000J0D01*
G01*
G37*
%TD*%
D20*
%TO.C,C7*%
X205358000Y-73406000D03*
X202058000Y-73406000D03*
%TD*%
%TO.C,C6*%
G36*
G01*
X212148000Y-72423000D02*
X212148000Y-73373000D01*
G75*
G02*
X211898000Y-73623000I-250000J0D01*
G01*
X211398000Y-73623000D01*
G75*
G02*
X211148000Y-73373000I0J250000D01*
G01*
X211148000Y-72423000D01*
G75*
G02*
X211398000Y-72173000I250000J0D01*
G01*
X211898000Y-72173000D01*
G75*
G02*
X212148000Y-72423000I0J-250000D01*
G01*
G37*
G36*
G01*
X214048000Y-72423000D02*
X214048000Y-73373000D01*
G75*
G02*
X213798000Y-73623000I-250000J0D01*
G01*
X213298000Y-73623000D01*
G75*
G02*
X213048000Y-73373000I0J250000D01*
G01*
X213048000Y-72423000D01*
G75*
G02*
X213298000Y-72173000I250000J0D01*
G01*
X213798000Y-72173000D01*
G75*
G02*
X214048000Y-72423000I0J-250000D01*
G01*
G37*
%TD*%
%TO.C,C5*%
G36*
G01*
X217645000Y-60002000D02*
X216695000Y-60002000D01*
G75*
G02*
X216445000Y-59752000I0J250000D01*
G01*
X216445000Y-59252000D01*
G75*
G02*
X216695000Y-59002000I250000J0D01*
G01*
X217645000Y-59002000D01*
G75*
G02*
X217895000Y-59252000I0J-250000D01*
G01*
X217895000Y-59752000D01*
G75*
G02*
X217645000Y-60002000I-250000J0D01*
G01*
G37*
G36*
G01*
X217645000Y-61902000D02*
X216695000Y-61902000D01*
G75*
G02*
X216445000Y-61652000I0J250000D01*
G01*
X216445000Y-61152000D01*
G75*
G02*
X216695000Y-60902000I250000J0D01*
G01*
X217645000Y-60902000D01*
G75*
G02*
X217895000Y-61152000I0J-250000D01*
G01*
X217895000Y-61652000D01*
G75*
G02*
X217645000Y-61902000I-250000J0D01*
G01*
G37*
%TD*%
%TO.C,C4*%
G36*
G01*
X200881000Y-52128000D02*
X199931000Y-52128000D01*
G75*
G02*
X199681000Y-51878000I0J250000D01*
G01*
X199681000Y-51378000D01*
G75*
G02*
X199931000Y-51128000I250000J0D01*
G01*
X200881000Y-51128000D01*
G75*
G02*
X201131000Y-51378000I0J-250000D01*
G01*
X201131000Y-51878000D01*
G75*
G02*
X200881000Y-52128000I-250000J0D01*
G01*
G37*
G36*
G01*
X200881000Y-54028000D02*
X199931000Y-54028000D01*
G75*
G02*
X199681000Y-53778000I0J250000D01*
G01*
X199681000Y-53278000D01*
G75*
G02*
X199931000Y-53028000I250000J0D01*
G01*
X200881000Y-53028000D01*
G75*
G02*
X201131000Y-53278000I0J-250000D01*
G01*
X201131000Y-53778000D01*
G75*
G02*
X200881000Y-54028000I-250000J0D01*
G01*
G37*
%TD*%
%TO.C,C3*%
G36*
G01*
X197416000Y-63533000D02*
X197416000Y-64483000D01*
G75*
G02*
X197166000Y-64733000I-250000J0D01*
G01*
X196666000Y-64733000D01*
G75*
G02*
X196416000Y-64483000I0J250000D01*
G01*
X196416000Y-63533000D01*
G75*
G02*
X196666000Y-63283000I250000J0D01*
G01*
X197166000Y-63283000D01*
G75*
G02*
X197416000Y-63533000I0J-250000D01*
G01*
G37*
G36*
G01*
X199316000Y-63533000D02*
X199316000Y-64483000D01*
G75*
G02*
X199066000Y-64733000I-250000J0D01*
G01*
X198566000Y-64733000D01*
G75*
G02*
X198316000Y-64483000I0J250000D01*
G01*
X198316000Y-63533000D01*
G75*
G02*
X198566000Y-63283000I250000J0D01*
G01*
X199066000Y-63283000D01*
G75*
G02*
X199316000Y-63533000I0J-250000D01*
G01*
G37*
%TD*%
%TO.C,C2*%
G36*
G01*
X202979000Y-50996000D02*
X203929000Y-50996000D01*
G75*
G02*
X204179000Y-51246000I0J-250000D01*
G01*
X204179000Y-51746000D01*
G75*
G02*
X203929000Y-51996000I-250000J0D01*
G01*
X202979000Y-51996000D01*
G75*
G02*
X202729000Y-51746000I0J250000D01*
G01*
X202729000Y-51246000D01*
G75*
G02*
X202979000Y-50996000I250000J0D01*
G01*
G37*
G36*
G01*
X202979000Y-49096000D02*
X203929000Y-49096000D01*
G75*
G02*
X204179000Y-49346000I0J-250000D01*
G01*
X204179000Y-49846000D01*
G75*
G02*
X203929000Y-50096000I-250000J0D01*
G01*
X202979000Y-50096000D01*
G75*
G02*
X202729000Y-49846000I0J250000D01*
G01*
X202729000Y-49346000D01*
G75*
G02*
X202979000Y-49096000I250000J0D01*
G01*
G37*
%TD*%
%TO.C,C1*%
G36*
G01*
X212565000Y-50096000D02*
X211615000Y-50096000D01*
G75*
G02*
X211365000Y-49846000I0J250000D01*
G01*
X211365000Y-49346000D01*
G75*
G02*
X211615000Y-49096000I250000J0D01*
G01*
X212565000Y-49096000D01*
G75*
G02*
X212815000Y-49346000I0J-250000D01*
G01*
X212815000Y-49846000D01*
G75*
G02*
X212565000Y-50096000I-250000J0D01*
G01*
G37*
G36*
G01*
X212565000Y-51996000D02*
X211615000Y-51996000D01*
G75*
G02*
X211365000Y-51746000I0J250000D01*
G01*
X211365000Y-51246000D01*
G75*
G02*
X211615000Y-50996000I250000J0D01*
G01*
X212565000Y-50996000D01*
G75*
G02*
X212815000Y-51246000I0J-250000D01*
G01*
X212815000Y-51746000D01*
G75*
G02*
X212565000Y-51996000I-250000J0D01*
G01*
G37*
%TD*%
M02*
