%TF.GenerationSoftware,KiCad,Pcbnew,(5.1.9)-1*%
%TF.CreationDate,2021-04-28T07:44:38+10:00*%
%TF.ProjectId,Productivity Macro,50726f64-7563-4746-9976-697479204d61,rev?*%
%TF.SameCoordinates,Original*%
%TF.FileFunction,Legend,Bot*%
%TF.FilePolarity,Positive*%
%FSLAX46Y46*%
G04 Gerber Fmt 4.6, Leading zero omitted, Abs format (unit mm)*
G04 Created by KiCad (PCBNEW (5.1.9)-1) date 2021-04-28 07:44:38*
%MOMM*%
%LPD*%
G01*
G04 APERTURE LIST*
%ADD10C,0.120000*%
%ADD11C,0.150000*%
%ADD12O,1.700000X2.700000*%
%ADD13R,1.400000X1.200000*%
%ADD14R,0.550000X1.500000*%
%ADD15R,1.500000X0.550000*%
%ADD16R,2.000000X2.000000*%
%ADD17C,2.000000*%
%ADD18R,3.200000X2.000000*%
%ADD19C,1.750000*%
%ADD20C,2.250000*%
%ADD21C,3.987800*%
%ADD22R,0.900000X1.200000*%
G04 APERTURE END LIST*
D10*
%TO.C,Y1*%
X209772000Y-48896000D02*
X209772000Y-52196000D01*
X209772000Y-52196000D02*
X205772000Y-52196000D01*
D11*
%TO.C,U1*%
X202851000Y-68929000D02*
X202851000Y-68354000D01*
X213201000Y-68929000D02*
X213201000Y-68254000D01*
X213201000Y-58579000D02*
X213201000Y-59254000D01*
X202851000Y-58579000D02*
X202851000Y-59254000D01*
X202851000Y-68929000D02*
X203526000Y-68929000D01*
X202851000Y-58579000D02*
X203526000Y-58579000D01*
X213201000Y-58579000D02*
X212526000Y-58579000D01*
X213201000Y-68929000D02*
X212526000Y-68929000D01*
X202851000Y-68354000D02*
X201576000Y-68354000D01*
D10*
%TO.C,R4*%
X218159000Y-65759064D02*
X218159000Y-65304936D01*
X216689000Y-65759064D02*
X216689000Y-65304936D01*
%TO.C,R1*%
X196369000Y-52350936D02*
X196369000Y-52805064D01*
X197839000Y-52350936D02*
X197839000Y-52805064D01*
%TO.C,F1*%
X224176000Y-59530064D02*
X224176000Y-58325936D01*
X222356000Y-59530064D02*
X222356000Y-58325936D01*
%TO.C,C7*%
X201458000Y-74406000D02*
X201458000Y-72406000D01*
X201458000Y-72406000D02*
X205358000Y-72406000D01*
X201458000Y-74406000D02*
X205358000Y-74406000D01*
%TO.C,C6*%
X212859252Y-72163000D02*
X212336748Y-72163000D01*
X212859252Y-73633000D02*
X212336748Y-73633000D01*
%TO.C,C5*%
X217905000Y-60713252D02*
X217905000Y-60190748D01*
X216435000Y-60713252D02*
X216435000Y-60190748D01*
%TO.C,C4*%
X201141000Y-52839252D02*
X201141000Y-52316748D01*
X199671000Y-52839252D02*
X199671000Y-52316748D01*
%TO.C,C3*%
X198127252Y-63273000D02*
X197604748Y-63273000D01*
X198127252Y-64743000D02*
X197604748Y-64743000D01*
%TO.C,C2*%
X202719000Y-50284748D02*
X202719000Y-50807252D01*
X204189000Y-50284748D02*
X204189000Y-50807252D01*
%TO.C,C1*%
X212825000Y-50807252D02*
X212825000Y-50284748D01*
X211355000Y-50807252D02*
X211355000Y-50284748D01*
%TO.C,Y1*%
D11*
X208248190Y-48072190D02*
X208248190Y-48548380D01*
X208581523Y-47548380D02*
X208248190Y-48072190D01*
X207914857Y-47548380D01*
X207057714Y-48548380D02*
X207629142Y-48548380D01*
X207343428Y-48548380D02*
X207343428Y-47548380D01*
X207438666Y-47691238D01*
X207533904Y-47786476D01*
X207629142Y-47834095D01*
%TO.C,U1*%
X208787904Y-70656380D02*
X208787904Y-71465904D01*
X208740285Y-71561142D01*
X208692666Y-71608761D01*
X208597428Y-71656380D01*
X208406952Y-71656380D01*
X208311714Y-71608761D01*
X208264095Y-71561142D01*
X208216476Y-71465904D01*
X208216476Y-70656380D01*
X207216476Y-71656380D02*
X207787904Y-71656380D01*
X207502190Y-71656380D02*
X207502190Y-70656380D01*
X207597428Y-70799238D01*
X207692666Y-70894476D01*
X207787904Y-70942095D01*
%TO.C,R4*%
X219526380Y-65365333D02*
X219050190Y-65032000D01*
X219526380Y-64793904D02*
X218526380Y-64793904D01*
X218526380Y-65174857D01*
X218574000Y-65270095D01*
X218621619Y-65317714D01*
X218716857Y-65365333D01*
X218859714Y-65365333D01*
X218954952Y-65317714D01*
X219002571Y-65270095D01*
X219050190Y-65174857D01*
X219050190Y-64793904D01*
X218859714Y-66222476D02*
X219526380Y-66222476D01*
X218478761Y-65984380D02*
X219193047Y-65746285D01*
X219193047Y-66365333D01*
%TO.C,R1*%
X195906380Y-52411333D02*
X195430190Y-52078000D01*
X195906380Y-51839904D02*
X194906380Y-51839904D01*
X194906380Y-52220857D01*
X194954000Y-52316095D01*
X195001619Y-52363714D01*
X195096857Y-52411333D01*
X195239714Y-52411333D01*
X195334952Y-52363714D01*
X195382571Y-52316095D01*
X195430190Y-52220857D01*
X195430190Y-51839904D01*
X195906380Y-53363714D02*
X195906380Y-52792285D01*
X195906380Y-53078000D02*
X194906380Y-53078000D01*
X195049238Y-52982761D01*
X195144476Y-52887523D01*
X195192095Y-52792285D01*
%TO.C,F1*%
X225014571Y-58594666D02*
X225014571Y-58261333D01*
X225538380Y-58261333D02*
X224538380Y-58261333D01*
X224538380Y-58737523D01*
X225538380Y-59642285D02*
X225538380Y-59070857D01*
X225538380Y-59356571D02*
X224538380Y-59356571D01*
X224681238Y-59261333D01*
X224776476Y-59166095D01*
X224824095Y-59070857D01*
%TO.C,C7*%
X203874666Y-75763142D02*
X203922285Y-75810761D01*
X204065142Y-75858380D01*
X204160380Y-75858380D01*
X204303238Y-75810761D01*
X204398476Y-75715523D01*
X204446095Y-75620285D01*
X204493714Y-75429809D01*
X204493714Y-75286952D01*
X204446095Y-75096476D01*
X204398476Y-75001238D01*
X204303238Y-74906000D01*
X204160380Y-74858380D01*
X204065142Y-74858380D01*
X203922285Y-74906000D01*
X203874666Y-74953619D01*
X203541333Y-74858380D02*
X202874666Y-74858380D01*
X203303238Y-75858380D01*
%TO.C,C6*%
X212764666Y-71575142D02*
X212812285Y-71622761D01*
X212955142Y-71670380D01*
X213050380Y-71670380D01*
X213193238Y-71622761D01*
X213288476Y-71527523D01*
X213336095Y-71432285D01*
X213383714Y-71241809D01*
X213383714Y-71098952D01*
X213336095Y-70908476D01*
X213288476Y-70813238D01*
X213193238Y-70718000D01*
X213050380Y-70670380D01*
X212955142Y-70670380D01*
X212812285Y-70718000D01*
X212764666Y-70765619D01*
X211907523Y-70670380D02*
X212098000Y-70670380D01*
X212193238Y-70718000D01*
X212240857Y-70765619D01*
X212336095Y-70908476D01*
X212383714Y-71098952D01*
X212383714Y-71479904D01*
X212336095Y-71575142D01*
X212288476Y-71622761D01*
X212193238Y-71670380D01*
X212002761Y-71670380D01*
X211907523Y-71622761D01*
X211859904Y-71575142D01*
X211812285Y-71479904D01*
X211812285Y-71241809D01*
X211859904Y-71146571D01*
X211907523Y-71098952D01*
X212002761Y-71051333D01*
X212193238Y-71051333D01*
X212288476Y-71098952D01*
X212336095Y-71146571D01*
X212383714Y-71241809D01*
%TO.C,C5*%
X219207142Y-60285333D02*
X219254761Y-60237714D01*
X219302380Y-60094857D01*
X219302380Y-59999619D01*
X219254761Y-59856761D01*
X219159523Y-59761523D01*
X219064285Y-59713904D01*
X218873809Y-59666285D01*
X218730952Y-59666285D01*
X218540476Y-59713904D01*
X218445238Y-59761523D01*
X218350000Y-59856761D01*
X218302380Y-59999619D01*
X218302380Y-60094857D01*
X218350000Y-60237714D01*
X218397619Y-60285333D01*
X218302380Y-61190095D02*
X218302380Y-60713904D01*
X218778571Y-60666285D01*
X218730952Y-60713904D01*
X218683333Y-60809142D01*
X218683333Y-61047238D01*
X218730952Y-61142476D01*
X218778571Y-61190095D01*
X218873809Y-61237714D01*
X219111904Y-61237714D01*
X219207142Y-61190095D01*
X219254761Y-61142476D01*
X219302380Y-61047238D01*
X219302380Y-60809142D01*
X219254761Y-60713904D01*
X219207142Y-60666285D01*
%TO.C,C4*%
X202443142Y-52411333D02*
X202490761Y-52363714D01*
X202538380Y-52220857D01*
X202538380Y-52125619D01*
X202490761Y-51982761D01*
X202395523Y-51887523D01*
X202300285Y-51839904D01*
X202109809Y-51792285D01*
X201966952Y-51792285D01*
X201776476Y-51839904D01*
X201681238Y-51887523D01*
X201586000Y-51982761D01*
X201538380Y-52125619D01*
X201538380Y-52220857D01*
X201586000Y-52363714D01*
X201633619Y-52411333D01*
X201871714Y-53268476D02*
X202538380Y-53268476D01*
X201490761Y-53030380D02*
X202205047Y-52792285D01*
X202205047Y-53411333D01*
%TO.C,C3*%
X198032666Y-62685142D02*
X198080285Y-62732761D01*
X198223142Y-62780380D01*
X198318380Y-62780380D01*
X198461238Y-62732761D01*
X198556476Y-62637523D01*
X198604095Y-62542285D01*
X198651714Y-62351809D01*
X198651714Y-62208952D01*
X198604095Y-62018476D01*
X198556476Y-61923238D01*
X198461238Y-61828000D01*
X198318380Y-61780380D01*
X198223142Y-61780380D01*
X198080285Y-61828000D01*
X198032666Y-61875619D01*
X197699333Y-61780380D02*
X197080285Y-61780380D01*
X197413619Y-62161333D01*
X197270761Y-62161333D01*
X197175523Y-62208952D01*
X197127904Y-62256571D01*
X197080285Y-62351809D01*
X197080285Y-62589904D01*
X197127904Y-62685142D01*
X197175523Y-62732761D01*
X197270761Y-62780380D01*
X197556476Y-62780380D01*
X197651714Y-62732761D01*
X197699333Y-62685142D01*
%TO.C,C2*%
X202131142Y-50379333D02*
X202178761Y-50331714D01*
X202226380Y-50188857D01*
X202226380Y-50093619D01*
X202178761Y-49950761D01*
X202083523Y-49855523D01*
X201988285Y-49807904D01*
X201797809Y-49760285D01*
X201654952Y-49760285D01*
X201464476Y-49807904D01*
X201369238Y-49855523D01*
X201274000Y-49950761D01*
X201226380Y-50093619D01*
X201226380Y-50188857D01*
X201274000Y-50331714D01*
X201321619Y-50379333D01*
X201321619Y-50760285D02*
X201274000Y-50807904D01*
X201226380Y-50903142D01*
X201226380Y-51141238D01*
X201274000Y-51236476D01*
X201321619Y-51284095D01*
X201416857Y-51331714D01*
X201512095Y-51331714D01*
X201654952Y-51284095D01*
X202226380Y-50712666D01*
X202226380Y-51331714D01*
%TO.C,C1*%
X214127142Y-50379333D02*
X214174761Y-50331714D01*
X214222380Y-50188857D01*
X214222380Y-50093619D01*
X214174761Y-49950761D01*
X214079523Y-49855523D01*
X213984285Y-49807904D01*
X213793809Y-49760285D01*
X213650952Y-49760285D01*
X213460476Y-49807904D01*
X213365238Y-49855523D01*
X213270000Y-49950761D01*
X213222380Y-50093619D01*
X213222380Y-50188857D01*
X213270000Y-50331714D01*
X213317619Y-50379333D01*
X214222380Y-51331714D02*
X214222380Y-50760285D01*
X214222380Y-51046000D02*
X213222380Y-51046000D01*
X213365238Y-50950761D01*
X213460476Y-50855523D01*
X213508095Y-50760285D01*
%TD*%
%LPC*%
D12*
%TO.C,USB1*%
X228440000Y-47498000D03*
X221140000Y-47498000D03*
X221140000Y-51998000D03*
X228440000Y-51998000D03*
%TD*%
D13*
%TO.C,Y1*%
X208872000Y-49696000D03*
X206672000Y-49696000D03*
X206672000Y-51396000D03*
X208872000Y-51396000D03*
%TD*%
D14*
%TO.C,U1*%
X204026000Y-69454000D03*
X204826000Y-69454000D03*
X205626000Y-69454000D03*
X206426000Y-69454000D03*
X207226000Y-69454000D03*
X208026000Y-69454000D03*
X208826000Y-69454000D03*
X209626000Y-69454000D03*
X210426000Y-69454000D03*
X211226000Y-69454000D03*
X212026000Y-69454000D03*
D15*
X213726000Y-67754000D03*
X213726000Y-66954000D03*
X213726000Y-66154000D03*
X213726000Y-65354000D03*
X213726000Y-64554000D03*
X213726000Y-63754000D03*
X213726000Y-62954000D03*
X213726000Y-62154000D03*
X213726000Y-61354000D03*
X213726000Y-60554000D03*
X213726000Y-59754000D03*
D14*
X212026000Y-58054000D03*
X211226000Y-58054000D03*
X210426000Y-58054000D03*
X209626000Y-58054000D03*
X208826000Y-58054000D03*
X208026000Y-58054000D03*
X207226000Y-58054000D03*
X206426000Y-58054000D03*
X205626000Y-58054000D03*
X204826000Y-58054000D03*
X204026000Y-58054000D03*
D15*
X202326000Y-59754000D03*
X202326000Y-60554000D03*
X202326000Y-61354000D03*
X202326000Y-62154000D03*
X202326000Y-62954000D03*
X202326000Y-63754000D03*
X202326000Y-64554000D03*
X202326000Y-65354000D03*
X202326000Y-66154000D03*
X202326000Y-66954000D03*
X202326000Y-67754000D03*
%TD*%
D16*
%TO.C,SW3*%
X232664000Y-83312000D03*
D17*
X232664000Y-85812000D03*
X232664000Y-88312000D03*
D18*
X240164000Y-80212000D03*
X240164000Y-91412000D03*
D17*
X247164000Y-83312000D03*
X247164000Y-88312000D03*
%TD*%
D16*
%TO.C,SW2*%
X195834000Y-83312000D03*
D17*
X195834000Y-85812000D03*
X195834000Y-88312000D03*
D18*
X203334000Y-80212000D03*
X203334000Y-91412000D03*
D17*
X210334000Y-83312000D03*
X210334000Y-88312000D03*
%TD*%
%TO.C,R4*%
G36*
G01*
X217874001Y-65132000D02*
X216973999Y-65132000D01*
G75*
G02*
X216724000Y-64882001I0J249999D01*
G01*
X216724000Y-64356999D01*
G75*
G02*
X216973999Y-64107000I249999J0D01*
G01*
X217874001Y-64107000D01*
G75*
G02*
X218124000Y-64356999I0J-249999D01*
G01*
X218124000Y-64882001D01*
G75*
G02*
X217874001Y-65132000I-249999J0D01*
G01*
G37*
G36*
G01*
X217874001Y-66957000D02*
X216973999Y-66957000D01*
G75*
G02*
X216724000Y-66707001I0J249999D01*
G01*
X216724000Y-66181999D01*
G75*
G02*
X216973999Y-65932000I249999J0D01*
G01*
X217874001Y-65932000D01*
G75*
G02*
X218124000Y-66181999I0J-249999D01*
G01*
X218124000Y-66707001D01*
G75*
G02*
X217874001Y-66957000I-249999J0D01*
G01*
G37*
%TD*%
%TO.C,R1*%
G36*
G01*
X196653999Y-52978000D02*
X197554001Y-52978000D01*
G75*
G02*
X197804000Y-53227999I0J-249999D01*
G01*
X197804000Y-53753001D01*
G75*
G02*
X197554001Y-54003000I-249999J0D01*
G01*
X196653999Y-54003000D01*
G75*
G02*
X196404000Y-53753001I0J249999D01*
G01*
X196404000Y-53227999D01*
G75*
G02*
X196653999Y-52978000I249999J0D01*
G01*
G37*
G36*
G01*
X196653999Y-51153000D02*
X197554001Y-51153000D01*
G75*
G02*
X197804000Y-51402999I0J-249999D01*
G01*
X197804000Y-51928001D01*
G75*
G02*
X197554001Y-52178000I-249999J0D01*
G01*
X196653999Y-52178000D01*
G75*
G02*
X196404000Y-51928001I0J249999D01*
G01*
X196404000Y-51402999D01*
G75*
G02*
X196653999Y-51153000I249999J0D01*
G01*
G37*
%TD*%
D19*
%TO.C,MX7*%
X245618000Y-123952000D03*
X235458000Y-123952000D03*
D20*
X238038000Y-119952000D03*
D21*
X240538000Y-123952000D03*
G36*
G01*
X235976688Y-122249350D02*
X235976683Y-122249345D01*
G75*
G02*
X235890655Y-120660683I751317J837345D01*
G01*
X237200657Y-119200683D01*
G75*
G02*
X238789319Y-119114655I837345J-751317D01*
G01*
X238789319Y-119114655D01*
G75*
G02*
X238875347Y-120703317I-751317J-837345D01*
G01*
X237565345Y-122163317D01*
G75*
G02*
X235976683Y-122249345I-837345J751317D01*
G01*
G37*
D20*
X243078000Y-118872000D03*
G36*
G01*
X242961483Y-120574395D02*
X242960597Y-120574334D01*
G75*
G02*
X241915666Y-119374597I77403J1122334D01*
G01*
X241955666Y-118794597D01*
G75*
G02*
X243155403Y-117749666I1122334J-77403D01*
G01*
X243155403Y-117749666D01*
G75*
G02*
X244200334Y-118949403I-77403J-1122334D01*
G01*
X244160334Y-119529403D01*
G75*
G02*
X242960597Y-120574334I-1122334J77403D01*
G01*
G37*
%TD*%
D19*
%TO.C,MX6*%
X226568000Y-123952000D03*
X216408000Y-123952000D03*
D20*
X218988000Y-119952000D03*
D21*
X221488000Y-123952000D03*
G36*
G01*
X216926688Y-122249350D02*
X216926683Y-122249345D01*
G75*
G02*
X216840655Y-120660683I751317J837345D01*
G01*
X218150657Y-119200683D01*
G75*
G02*
X219739319Y-119114655I837345J-751317D01*
G01*
X219739319Y-119114655D01*
G75*
G02*
X219825347Y-120703317I-751317J-837345D01*
G01*
X218515345Y-122163317D01*
G75*
G02*
X216926683Y-122249345I-837345J751317D01*
G01*
G37*
D20*
X224028000Y-118872000D03*
G36*
G01*
X223911483Y-120574395D02*
X223910597Y-120574334D01*
G75*
G02*
X222865666Y-119374597I77403J1122334D01*
G01*
X222905666Y-118794597D01*
G75*
G02*
X224105403Y-117749666I1122334J-77403D01*
G01*
X224105403Y-117749666D01*
G75*
G02*
X225150334Y-118949403I-77403J-1122334D01*
G01*
X225110334Y-119529403D01*
G75*
G02*
X223910597Y-120574334I-1122334J77403D01*
G01*
G37*
%TD*%
D19*
%TO.C,MX5*%
X207518000Y-123952000D03*
X197358000Y-123952000D03*
D20*
X199938000Y-119952000D03*
D21*
X202438000Y-123952000D03*
G36*
G01*
X197876688Y-122249350D02*
X197876683Y-122249345D01*
G75*
G02*
X197790655Y-120660683I751317J837345D01*
G01*
X199100657Y-119200683D01*
G75*
G02*
X200689319Y-119114655I837345J-751317D01*
G01*
X200689319Y-119114655D01*
G75*
G02*
X200775347Y-120703317I-751317J-837345D01*
G01*
X199465345Y-122163317D01*
G75*
G02*
X197876683Y-122249345I-837345J751317D01*
G01*
G37*
D20*
X204978000Y-118872000D03*
G36*
G01*
X204861483Y-120574395D02*
X204860597Y-120574334D01*
G75*
G02*
X203815666Y-119374597I77403J1122334D01*
G01*
X203855666Y-118794597D01*
G75*
G02*
X205055403Y-117749666I1122334J-77403D01*
G01*
X205055403Y-117749666D01*
G75*
G02*
X206100334Y-118949403I-77403J-1122334D01*
G01*
X206060334Y-119529403D01*
G75*
G02*
X204860597Y-120574334I-1122334J77403D01*
G01*
G37*
%TD*%
D19*
%TO.C,MX4*%
X245618000Y-104902000D03*
X235458000Y-104902000D03*
D20*
X238038000Y-100902000D03*
D21*
X240538000Y-104902000D03*
G36*
G01*
X235976688Y-103199350D02*
X235976683Y-103199345D01*
G75*
G02*
X235890655Y-101610683I751317J837345D01*
G01*
X237200657Y-100150683D01*
G75*
G02*
X238789319Y-100064655I837345J-751317D01*
G01*
X238789319Y-100064655D01*
G75*
G02*
X238875347Y-101653317I-751317J-837345D01*
G01*
X237565345Y-103113317D01*
G75*
G02*
X235976683Y-103199345I-837345J751317D01*
G01*
G37*
D20*
X243078000Y-99822000D03*
G36*
G01*
X242961483Y-101524395D02*
X242960597Y-101524334D01*
G75*
G02*
X241915666Y-100324597I77403J1122334D01*
G01*
X241955666Y-99744597D01*
G75*
G02*
X243155403Y-98699666I1122334J-77403D01*
G01*
X243155403Y-98699666D01*
G75*
G02*
X244200334Y-99899403I-77403J-1122334D01*
G01*
X244160334Y-100479403D01*
G75*
G02*
X242960597Y-101524334I-1122334J77403D01*
G01*
G37*
%TD*%
D19*
%TO.C,MX3*%
X226568000Y-104902000D03*
X216408000Y-104902000D03*
D20*
X218988000Y-100902000D03*
D21*
X221488000Y-104902000D03*
G36*
G01*
X216926688Y-103199350D02*
X216926683Y-103199345D01*
G75*
G02*
X216840655Y-101610683I751317J837345D01*
G01*
X218150657Y-100150683D01*
G75*
G02*
X219739319Y-100064655I837345J-751317D01*
G01*
X219739319Y-100064655D01*
G75*
G02*
X219825347Y-101653317I-751317J-837345D01*
G01*
X218515345Y-103113317D01*
G75*
G02*
X216926683Y-103199345I-837345J751317D01*
G01*
G37*
D20*
X224028000Y-99822000D03*
G36*
G01*
X223911483Y-101524395D02*
X223910597Y-101524334D01*
G75*
G02*
X222865666Y-100324597I77403J1122334D01*
G01*
X222905666Y-99744597D01*
G75*
G02*
X224105403Y-98699666I1122334J-77403D01*
G01*
X224105403Y-98699666D01*
G75*
G02*
X225150334Y-99899403I-77403J-1122334D01*
G01*
X225110334Y-100479403D01*
G75*
G02*
X223910597Y-101524334I-1122334J77403D01*
G01*
G37*
%TD*%
D19*
%TO.C,MX2*%
X207518000Y-104902000D03*
X197358000Y-104902000D03*
D20*
X199938000Y-100902000D03*
D21*
X202438000Y-104902000D03*
G36*
G01*
X197876688Y-103199350D02*
X197876683Y-103199345D01*
G75*
G02*
X197790655Y-101610683I751317J837345D01*
G01*
X199100657Y-100150683D01*
G75*
G02*
X200689319Y-100064655I837345J-751317D01*
G01*
X200689319Y-100064655D01*
G75*
G02*
X200775347Y-101653317I-751317J-837345D01*
G01*
X199465345Y-103113317D01*
G75*
G02*
X197876683Y-103199345I-837345J751317D01*
G01*
G37*
D20*
X204978000Y-99822000D03*
G36*
G01*
X204861483Y-101524395D02*
X204860597Y-101524334D01*
G75*
G02*
X203815666Y-100324597I77403J1122334D01*
G01*
X203855666Y-99744597D01*
G75*
G02*
X205055403Y-98699666I1122334J-77403D01*
G01*
X205055403Y-98699666D01*
G75*
G02*
X206100334Y-99899403I-77403J-1122334D01*
G01*
X206060334Y-100479403D01*
G75*
G02*
X204860597Y-101524334I-1122334J77403D01*
G01*
G37*
%TD*%
D19*
%TO.C,MX1*%
X226568000Y-85852000D03*
X216408000Y-85852000D03*
D20*
X218988000Y-81852000D03*
D21*
X221488000Y-85852000D03*
G36*
G01*
X216926688Y-84149350D02*
X216926683Y-84149345D01*
G75*
G02*
X216840655Y-82560683I751317J837345D01*
G01*
X218150657Y-81100683D01*
G75*
G02*
X219739319Y-81014655I837345J-751317D01*
G01*
X219739319Y-81014655D01*
G75*
G02*
X219825347Y-82603317I-751317J-837345D01*
G01*
X218515345Y-84063317D01*
G75*
G02*
X216926683Y-84149345I-837345J751317D01*
G01*
G37*
D20*
X224028000Y-80772000D03*
G36*
G01*
X223911483Y-82474395D02*
X223910597Y-82474334D01*
G75*
G02*
X222865666Y-81274597I77403J1122334D01*
G01*
X222905666Y-80694597D01*
G75*
G02*
X224105403Y-79649666I1122334J-77403D01*
G01*
X224105403Y-79649666D01*
G75*
G02*
X225150334Y-80849403I-77403J-1122334D01*
G01*
X225110334Y-81429403D01*
G75*
G02*
X223910597Y-82474334I-1122334J77403D01*
G01*
G37*
%TD*%
%TO.C,F1*%
G36*
G01*
X223891000Y-58153000D02*
X222641000Y-58153000D01*
G75*
G02*
X222391000Y-57903000I0J250000D01*
G01*
X222391000Y-57153000D01*
G75*
G02*
X222641000Y-56903000I250000J0D01*
G01*
X223891000Y-56903000D01*
G75*
G02*
X224141000Y-57153000I0J-250000D01*
G01*
X224141000Y-57903000D01*
G75*
G02*
X223891000Y-58153000I-250000J0D01*
G01*
G37*
G36*
G01*
X223891000Y-60953000D02*
X222641000Y-60953000D01*
G75*
G02*
X222391000Y-60703000I0J250000D01*
G01*
X222391000Y-59953000D01*
G75*
G02*
X222641000Y-59703000I250000J0D01*
G01*
X223891000Y-59703000D01*
G75*
G02*
X224141000Y-59953000I0J-250000D01*
G01*
X224141000Y-60703000D01*
G75*
G02*
X223891000Y-60953000I-250000J0D01*
G01*
G37*
%TD*%
D22*
%TO.C,C7*%
X205358000Y-73406000D03*
X202058000Y-73406000D03*
%TD*%
%TO.C,C6*%
G36*
G01*
X212148000Y-72423000D02*
X212148000Y-73373000D01*
G75*
G02*
X211898000Y-73623000I-250000J0D01*
G01*
X211398000Y-73623000D01*
G75*
G02*
X211148000Y-73373000I0J250000D01*
G01*
X211148000Y-72423000D01*
G75*
G02*
X211398000Y-72173000I250000J0D01*
G01*
X211898000Y-72173000D01*
G75*
G02*
X212148000Y-72423000I0J-250000D01*
G01*
G37*
G36*
G01*
X214048000Y-72423000D02*
X214048000Y-73373000D01*
G75*
G02*
X213798000Y-73623000I-250000J0D01*
G01*
X213298000Y-73623000D01*
G75*
G02*
X213048000Y-73373000I0J250000D01*
G01*
X213048000Y-72423000D01*
G75*
G02*
X213298000Y-72173000I250000J0D01*
G01*
X213798000Y-72173000D01*
G75*
G02*
X214048000Y-72423000I0J-250000D01*
G01*
G37*
%TD*%
%TO.C,C5*%
G36*
G01*
X217645000Y-60002000D02*
X216695000Y-60002000D01*
G75*
G02*
X216445000Y-59752000I0J250000D01*
G01*
X216445000Y-59252000D01*
G75*
G02*
X216695000Y-59002000I250000J0D01*
G01*
X217645000Y-59002000D01*
G75*
G02*
X217895000Y-59252000I0J-250000D01*
G01*
X217895000Y-59752000D01*
G75*
G02*
X217645000Y-60002000I-250000J0D01*
G01*
G37*
G36*
G01*
X217645000Y-61902000D02*
X216695000Y-61902000D01*
G75*
G02*
X216445000Y-61652000I0J250000D01*
G01*
X216445000Y-61152000D01*
G75*
G02*
X216695000Y-60902000I250000J0D01*
G01*
X217645000Y-60902000D01*
G75*
G02*
X217895000Y-61152000I0J-250000D01*
G01*
X217895000Y-61652000D01*
G75*
G02*
X217645000Y-61902000I-250000J0D01*
G01*
G37*
%TD*%
%TO.C,C4*%
G36*
G01*
X200881000Y-52128000D02*
X199931000Y-52128000D01*
G75*
G02*
X199681000Y-51878000I0J250000D01*
G01*
X199681000Y-51378000D01*
G75*
G02*
X199931000Y-51128000I250000J0D01*
G01*
X200881000Y-51128000D01*
G75*
G02*
X201131000Y-51378000I0J-250000D01*
G01*
X201131000Y-51878000D01*
G75*
G02*
X200881000Y-52128000I-250000J0D01*
G01*
G37*
G36*
G01*
X200881000Y-54028000D02*
X199931000Y-54028000D01*
G75*
G02*
X199681000Y-53778000I0J250000D01*
G01*
X199681000Y-53278000D01*
G75*
G02*
X199931000Y-53028000I250000J0D01*
G01*
X200881000Y-53028000D01*
G75*
G02*
X201131000Y-53278000I0J-250000D01*
G01*
X201131000Y-53778000D01*
G75*
G02*
X200881000Y-54028000I-250000J0D01*
G01*
G37*
%TD*%
%TO.C,C3*%
G36*
G01*
X197416000Y-63533000D02*
X197416000Y-64483000D01*
G75*
G02*
X197166000Y-64733000I-250000J0D01*
G01*
X196666000Y-64733000D01*
G75*
G02*
X196416000Y-64483000I0J250000D01*
G01*
X196416000Y-63533000D01*
G75*
G02*
X196666000Y-63283000I250000J0D01*
G01*
X197166000Y-63283000D01*
G75*
G02*
X197416000Y-63533000I0J-250000D01*
G01*
G37*
G36*
G01*
X199316000Y-63533000D02*
X199316000Y-64483000D01*
G75*
G02*
X199066000Y-64733000I-250000J0D01*
G01*
X198566000Y-64733000D01*
G75*
G02*
X198316000Y-64483000I0J250000D01*
G01*
X198316000Y-63533000D01*
G75*
G02*
X198566000Y-63283000I250000J0D01*
G01*
X199066000Y-63283000D01*
G75*
G02*
X199316000Y-63533000I0J-250000D01*
G01*
G37*
%TD*%
%TO.C,C2*%
G36*
G01*
X202979000Y-50996000D02*
X203929000Y-50996000D01*
G75*
G02*
X204179000Y-51246000I0J-250000D01*
G01*
X204179000Y-51746000D01*
G75*
G02*
X203929000Y-51996000I-250000J0D01*
G01*
X202979000Y-51996000D01*
G75*
G02*
X202729000Y-51746000I0J250000D01*
G01*
X202729000Y-51246000D01*
G75*
G02*
X202979000Y-50996000I250000J0D01*
G01*
G37*
G36*
G01*
X202979000Y-49096000D02*
X203929000Y-49096000D01*
G75*
G02*
X204179000Y-49346000I0J-250000D01*
G01*
X204179000Y-49846000D01*
G75*
G02*
X203929000Y-50096000I-250000J0D01*
G01*
X202979000Y-50096000D01*
G75*
G02*
X202729000Y-49846000I0J250000D01*
G01*
X202729000Y-49346000D01*
G75*
G02*
X202979000Y-49096000I250000J0D01*
G01*
G37*
%TD*%
%TO.C,C1*%
G36*
G01*
X212565000Y-50096000D02*
X211615000Y-50096000D01*
G75*
G02*
X211365000Y-49846000I0J250000D01*
G01*
X211365000Y-49346000D01*
G75*
G02*
X211615000Y-49096000I250000J0D01*
G01*
X212565000Y-49096000D01*
G75*
G02*
X212815000Y-49346000I0J-250000D01*
G01*
X212815000Y-49846000D01*
G75*
G02*
X212565000Y-50096000I-250000J0D01*
G01*
G37*
G36*
G01*
X212565000Y-51996000D02*
X211615000Y-51996000D01*
G75*
G02*
X211365000Y-51746000I0J250000D01*
G01*
X211365000Y-51246000D01*
G75*
G02*
X211615000Y-50996000I250000J0D01*
G01*
X212565000Y-50996000D01*
G75*
G02*
X212815000Y-51246000I0J-250000D01*
G01*
X212815000Y-51746000D01*
G75*
G02*
X212565000Y-51996000I-250000J0D01*
G01*
G37*
%TD*%
M02*
