%TF.GenerationSoftware,KiCad,Pcbnew,(5.1.9)-1*%
%TF.CreationDate,2021-04-28T07:44:38+10:00*%
%TF.ProjectId,Productivity Macro,50726f64-7563-4746-9976-697479204d61,rev?*%
%TF.SameCoordinates,Original*%
%TF.FileFunction,Copper,L1,Top*%
%TF.FilePolarity,Positive*%
%FSLAX46Y46*%
G04 Gerber Fmt 4.6, Leading zero omitted, Abs format (unit mm)*
G04 Created by KiCad (PCBNEW (5.1.9)-1) date 2021-04-28 07:44:38*
%MOMM*%
%LPD*%
G01*
G04 APERTURE LIST*
%TA.AperFunction,NonConductor*%
%ADD10C,0.150000*%
%TD*%
%TA.AperFunction,ComponentPad*%
%ADD11O,1.700000X2.700000*%
%TD*%
%TA.AperFunction,SMDPad,CuDef*%
%ADD12R,0.500000X2.250000*%
%TD*%
%TA.AperFunction,ComponentPad*%
%ADD13R,2.000000X2.000000*%
%TD*%
%TA.AperFunction,ComponentPad*%
%ADD14C,2.000000*%
%TD*%
%TA.AperFunction,ComponentPad*%
%ADD15R,3.200000X2.000000*%
%TD*%
%TA.AperFunction,SMDPad,CuDef*%
%ADD16R,1.800000X1.100000*%
%TD*%
%TA.AperFunction,ComponentPad*%
%ADD17C,2.250000*%
%TD*%
%TA.AperFunction,SMDPad,CuDef*%
%ADD18R,1.200000X0.900000*%
%TD*%
%TA.AperFunction,ViaPad*%
%ADD19C,0.800000*%
%TD*%
%TA.AperFunction,Conductor*%
%ADD20C,0.250000*%
%TD*%
%TA.AperFunction,Conductor*%
%ADD21C,0.254000*%
%TD*%
%TA.AperFunction,Conductor*%
%ADD22C,0.100000*%
%TD*%
G04 APERTURE END LIST*
D10*
X235903142Y-61174380D02*
X236474571Y-61174380D01*
X236188857Y-62174380D02*
X236188857Y-61174380D01*
X236807904Y-62174380D02*
X236807904Y-61174380D01*
X237236476Y-62174380D02*
X237236476Y-61650571D01*
X237188857Y-61555333D01*
X237093619Y-61507714D01*
X236950761Y-61507714D01*
X236855523Y-61555333D01*
X236807904Y-61602952D01*
X237712666Y-62174380D02*
X237712666Y-61507714D01*
X237712666Y-61174380D02*
X237665047Y-61222000D01*
X237712666Y-61269619D01*
X237760285Y-61222000D01*
X237712666Y-61174380D01*
X237712666Y-61269619D01*
X238141238Y-62126761D02*
X238236476Y-62174380D01*
X238426952Y-62174380D01*
X238522190Y-62126761D01*
X238569809Y-62031523D01*
X238569809Y-61983904D01*
X238522190Y-61888666D01*
X238426952Y-61841047D01*
X238284095Y-61841047D01*
X238188857Y-61793428D01*
X238141238Y-61698190D01*
X238141238Y-61650571D01*
X238188857Y-61555333D01*
X238284095Y-61507714D01*
X238426952Y-61507714D01*
X238522190Y-61555333D01*
X239760285Y-62174380D02*
X239760285Y-61507714D01*
X239760285Y-61174380D02*
X239712666Y-61222000D01*
X239760285Y-61269619D01*
X239807904Y-61222000D01*
X239760285Y-61174380D01*
X239760285Y-61269619D01*
X240188857Y-62126761D02*
X240284095Y-62174380D01*
X240474571Y-62174380D01*
X240569809Y-62126761D01*
X240617428Y-62031523D01*
X240617428Y-61983904D01*
X240569809Y-61888666D01*
X240474571Y-61841047D01*
X240331714Y-61841047D01*
X240236476Y-61793428D01*
X240188857Y-61698190D01*
X240188857Y-61650571D01*
X240236476Y-61555333D01*
X240331714Y-61507714D01*
X240474571Y-61507714D01*
X240569809Y-61555333D01*
X241760285Y-62126761D02*
X241903142Y-62174380D01*
X242141238Y-62174380D01*
X242236476Y-62126761D01*
X242284095Y-62079142D01*
X242331714Y-61983904D01*
X242331714Y-61888666D01*
X242284095Y-61793428D01*
X242236476Y-61745809D01*
X242141238Y-61698190D01*
X241950761Y-61650571D01*
X241855523Y-61602952D01*
X241807904Y-61555333D01*
X241760285Y-61460095D01*
X241760285Y-61364857D01*
X241807904Y-61269619D01*
X241855523Y-61222000D01*
X241950761Y-61174380D01*
X242188857Y-61174380D01*
X242331714Y-61222000D01*
X242617428Y-61507714D02*
X242998380Y-61507714D01*
X242760285Y-61174380D02*
X242760285Y-62031523D01*
X242807904Y-62126761D01*
X242903142Y-62174380D01*
X242998380Y-62174380D01*
X243760285Y-61507714D02*
X243760285Y-62174380D01*
X243331714Y-61507714D02*
X243331714Y-62031523D01*
X243379333Y-62126761D01*
X243474571Y-62174380D01*
X243617428Y-62174380D01*
X243712666Y-62126761D01*
X243760285Y-62079142D01*
X244236476Y-61507714D02*
X244236476Y-62507714D01*
X244236476Y-61555333D02*
X244331714Y-61507714D01*
X244522190Y-61507714D01*
X244617428Y-61555333D01*
X244665047Y-61602952D01*
X244712666Y-61698190D01*
X244712666Y-61983904D01*
X244665047Y-62079142D01*
X244617428Y-62126761D01*
X244522190Y-62174380D01*
X244331714Y-62174380D01*
X244236476Y-62126761D01*
X245141238Y-62174380D02*
X245141238Y-61507714D01*
X245141238Y-61174380D02*
X245093619Y-61222000D01*
X245141238Y-61269619D01*
X245188857Y-61222000D01*
X245141238Y-61174380D01*
X245141238Y-61269619D01*
X246046000Y-62174380D02*
X246046000Y-61174380D01*
X246046000Y-62126761D02*
X245950761Y-62174380D01*
X245760285Y-62174380D01*
X245665047Y-62126761D01*
X245617428Y-62079142D01*
X245569809Y-61983904D01*
X245569809Y-61698190D01*
X245617428Y-61602952D01*
X245665047Y-61555333D01*
X245760285Y-61507714D01*
X245950761Y-61507714D01*
X246046000Y-61555333D01*
D11*
%TO.P,USB1,6*%
%TO.N,GND*%
X228440000Y-47498000D03*
X221140000Y-47498000D03*
X221140000Y-51998000D03*
X228440000Y-51998000D03*
D12*
%TO.P,USB1,5*%
%TO.N,VCC*%
X226390000Y-51998000D03*
%TO.P,USB1,4*%
%TO.N,D-*%
X225590000Y-51998000D03*
%TO.P,USB1,3*%
%TO.N,D+*%
X224790000Y-51998000D03*
%TO.P,USB1,2*%
%TO.N,Net-(USB1-Pad2)*%
X223990000Y-51998000D03*
%TO.P,USB1,1*%
%TO.N,GND*%
X223190000Y-51998000D03*
%TD*%
D13*
%TO.P,SW3,A*%
%TO.N,PINA1*%
X232664000Y-83312000D03*
D14*
%TO.P,SW3,C*%
%TO.N,GND*%
X232664000Y-85812000D03*
%TO.P,SW3,B*%
%TO.N,PINB1*%
X232664000Y-88312000D03*
D15*
%TO.P,SW3,MP*%
%TO.N,N/C*%
X240164000Y-80212000D03*
X240164000Y-91412000D03*
D14*
%TO.P,SW3,S2*%
%TO.N,Net-(D2-Pad2)*%
X247164000Y-83312000D03*
%TO.P,SW3,S1*%
%TO.N,COL2*%
X247164000Y-88312000D03*
%TD*%
D13*
%TO.P,SW2,A*%
%TO.N,PINA*%
X195834000Y-83312000D03*
D14*
%TO.P,SW2,C*%
%TO.N,GND*%
X195834000Y-85812000D03*
%TO.P,SW2,B*%
%TO.N,PINB*%
X195834000Y-88312000D03*
D15*
%TO.P,SW2,MP*%
%TO.N,N/C*%
X203334000Y-80212000D03*
X203334000Y-91412000D03*
D14*
%TO.P,SW2,S2*%
%TO.N,Net-(D1-Pad2)*%
X210334000Y-83312000D03*
%TO.P,SW2,S1*%
%TO.N,COL0*%
X210334000Y-88312000D03*
%TD*%
D16*
%TO.P,SW1,4*%
%TO.N,N/C*%
X244654000Y-52252000D03*
%TO.P,SW1,3*%
X238454000Y-55952000D03*
%TO.P,SW1,2*%
%TO.N,Net-(R1-Pad2)*%
X244654000Y-55952000D03*
%TO.P,SW1,1*%
%TO.N,GND*%
X238454000Y-52252000D03*
%TD*%
%TO.P,R3,2*%
%TO.N,D-*%
%TA.AperFunction,SMDPad,CuDef*%
G36*
G01*
X232098001Y-63100000D02*
X231197999Y-63100000D01*
G75*
G02*
X230948000Y-62850001I0J249999D01*
G01*
X230948000Y-62324999D01*
G75*
G02*
X231197999Y-62075000I249999J0D01*
G01*
X232098001Y-62075000D01*
G75*
G02*
X232348000Y-62324999I0J-249999D01*
G01*
X232348000Y-62850001D01*
G75*
G02*
X232098001Y-63100000I-249999J0D01*
G01*
G37*
%TD.AperFunction*%
%TO.P,R3,1*%
%TO.N,Net-(R3-Pad1)*%
%TA.AperFunction,SMDPad,CuDef*%
G36*
G01*
X232098001Y-64925000D02*
X231197999Y-64925000D01*
G75*
G02*
X230948000Y-64675001I0J249999D01*
G01*
X230948000Y-64149999D01*
G75*
G02*
X231197999Y-63900000I249999J0D01*
G01*
X232098001Y-63900000D01*
G75*
G02*
X232348000Y-64149999I0J-249999D01*
G01*
X232348000Y-64675001D01*
G75*
G02*
X232098001Y-64925000I-249999J0D01*
G01*
G37*
%TD.AperFunction*%
%TD*%
%TO.P,R2,2*%
%TO.N,D+*%
%TA.AperFunction,SMDPad,CuDef*%
G36*
G01*
X228796001Y-63100000D02*
X227895999Y-63100000D01*
G75*
G02*
X227646000Y-62850001I0J249999D01*
G01*
X227646000Y-62324999D01*
G75*
G02*
X227895999Y-62075000I249999J0D01*
G01*
X228796001Y-62075000D01*
G75*
G02*
X229046000Y-62324999I0J-249999D01*
G01*
X229046000Y-62850001D01*
G75*
G02*
X228796001Y-63100000I-249999J0D01*
G01*
G37*
%TD.AperFunction*%
%TO.P,R2,1*%
%TO.N,Net-(R2-Pad1)*%
%TA.AperFunction,SMDPad,CuDef*%
G36*
G01*
X228796001Y-64925000D02*
X227895999Y-64925000D01*
G75*
G02*
X227646000Y-64675001I0J249999D01*
G01*
X227646000Y-64149999D01*
G75*
G02*
X227895999Y-63900000I249999J0D01*
G01*
X228796001Y-63900000D01*
G75*
G02*
X229046000Y-64149999I0J-249999D01*
G01*
X229046000Y-64675001D01*
G75*
G02*
X228796001Y-64925000I-249999J0D01*
G01*
G37*
%TD.AperFunction*%
%TD*%
D17*
%TO.P,MX7,1*%
%TO.N,COL2*%
X238038000Y-119952000D03*
%TA.AperFunction,ComponentPad*%
G36*
G01*
X235976688Y-122249350D02*
X235976683Y-122249345D01*
G75*
G02*
X235890655Y-120660683I751317J837345D01*
G01*
X237200657Y-119200683D01*
G75*
G02*
X238789319Y-119114655I837345J-751317D01*
G01*
X238789319Y-119114655D01*
G75*
G02*
X238875347Y-120703317I-751317J-837345D01*
G01*
X237565345Y-122163317D01*
G75*
G02*
X235976683Y-122249345I-837345J751317D01*
G01*
G37*
%TD.AperFunction*%
%TO.P,MX7,2*%
%TO.N,Net-(D9-Pad2)*%
X243078000Y-118872000D03*
%TA.AperFunction,ComponentPad*%
G36*
G01*
X242961483Y-120574395D02*
X242960597Y-120574334D01*
G75*
G02*
X241915666Y-119374597I77403J1122334D01*
G01*
X241955666Y-118794597D01*
G75*
G02*
X243155403Y-117749666I1122334J-77403D01*
G01*
X243155403Y-117749666D01*
G75*
G02*
X244200334Y-118949403I-77403J-1122334D01*
G01*
X244160334Y-119529403D01*
G75*
G02*
X242960597Y-120574334I-1122334J77403D01*
G01*
G37*
%TD.AperFunction*%
%TD*%
%TO.P,MX6,1*%
%TO.N,COL1*%
X218988000Y-119952000D03*
%TA.AperFunction,ComponentPad*%
G36*
G01*
X216926688Y-122249350D02*
X216926683Y-122249345D01*
G75*
G02*
X216840655Y-120660683I751317J837345D01*
G01*
X218150657Y-119200683D01*
G75*
G02*
X219739319Y-119114655I837345J-751317D01*
G01*
X219739319Y-119114655D01*
G75*
G02*
X219825347Y-120703317I-751317J-837345D01*
G01*
X218515345Y-122163317D01*
G75*
G02*
X216926683Y-122249345I-837345J751317D01*
G01*
G37*
%TD.AperFunction*%
%TO.P,MX6,2*%
%TO.N,Net-(D8-Pad2)*%
X224028000Y-118872000D03*
%TA.AperFunction,ComponentPad*%
G36*
G01*
X223911483Y-120574395D02*
X223910597Y-120574334D01*
G75*
G02*
X222865666Y-119374597I77403J1122334D01*
G01*
X222905666Y-118794597D01*
G75*
G02*
X224105403Y-117749666I1122334J-77403D01*
G01*
X224105403Y-117749666D01*
G75*
G02*
X225150334Y-118949403I-77403J-1122334D01*
G01*
X225110334Y-119529403D01*
G75*
G02*
X223910597Y-120574334I-1122334J77403D01*
G01*
G37*
%TD.AperFunction*%
%TD*%
%TO.P,MX5,1*%
%TO.N,COL0*%
X199938000Y-119952000D03*
%TA.AperFunction,ComponentPad*%
G36*
G01*
X197876688Y-122249350D02*
X197876683Y-122249345D01*
G75*
G02*
X197790655Y-120660683I751317J837345D01*
G01*
X199100657Y-119200683D01*
G75*
G02*
X200689319Y-119114655I837345J-751317D01*
G01*
X200689319Y-119114655D01*
G75*
G02*
X200775347Y-120703317I-751317J-837345D01*
G01*
X199465345Y-122163317D01*
G75*
G02*
X197876683Y-122249345I-837345J751317D01*
G01*
G37*
%TD.AperFunction*%
%TO.P,MX5,2*%
%TO.N,Net-(D7-Pad2)*%
X204978000Y-118872000D03*
%TA.AperFunction,ComponentPad*%
G36*
G01*
X204861483Y-120574395D02*
X204860597Y-120574334D01*
G75*
G02*
X203815666Y-119374597I77403J1122334D01*
G01*
X203855666Y-118794597D01*
G75*
G02*
X205055403Y-117749666I1122334J-77403D01*
G01*
X205055403Y-117749666D01*
G75*
G02*
X206100334Y-118949403I-77403J-1122334D01*
G01*
X206060334Y-119529403D01*
G75*
G02*
X204860597Y-120574334I-1122334J77403D01*
G01*
G37*
%TD.AperFunction*%
%TD*%
%TO.P,MX4,1*%
%TO.N,COL2*%
X238038000Y-100902000D03*
%TA.AperFunction,ComponentPad*%
G36*
G01*
X235976688Y-103199350D02*
X235976683Y-103199345D01*
G75*
G02*
X235890655Y-101610683I751317J837345D01*
G01*
X237200657Y-100150683D01*
G75*
G02*
X238789319Y-100064655I837345J-751317D01*
G01*
X238789319Y-100064655D01*
G75*
G02*
X238875347Y-101653317I-751317J-837345D01*
G01*
X237565345Y-103113317D01*
G75*
G02*
X235976683Y-103199345I-837345J751317D01*
G01*
G37*
%TD.AperFunction*%
%TO.P,MX4,2*%
%TO.N,Net-(D6-Pad2)*%
X243078000Y-99822000D03*
%TA.AperFunction,ComponentPad*%
G36*
G01*
X242961483Y-101524395D02*
X242960597Y-101524334D01*
G75*
G02*
X241915666Y-100324597I77403J1122334D01*
G01*
X241955666Y-99744597D01*
G75*
G02*
X243155403Y-98699666I1122334J-77403D01*
G01*
X243155403Y-98699666D01*
G75*
G02*
X244200334Y-99899403I-77403J-1122334D01*
G01*
X244160334Y-100479403D01*
G75*
G02*
X242960597Y-101524334I-1122334J77403D01*
G01*
G37*
%TD.AperFunction*%
%TD*%
%TO.P,MX3,1*%
%TO.N,COL1*%
X218988000Y-100902000D03*
%TA.AperFunction,ComponentPad*%
G36*
G01*
X216926688Y-103199350D02*
X216926683Y-103199345D01*
G75*
G02*
X216840655Y-101610683I751317J837345D01*
G01*
X218150657Y-100150683D01*
G75*
G02*
X219739319Y-100064655I837345J-751317D01*
G01*
X219739319Y-100064655D01*
G75*
G02*
X219825347Y-101653317I-751317J-837345D01*
G01*
X218515345Y-103113317D01*
G75*
G02*
X216926683Y-103199345I-837345J751317D01*
G01*
G37*
%TD.AperFunction*%
%TO.P,MX3,2*%
%TO.N,Net-(D5-Pad2)*%
X224028000Y-99822000D03*
%TA.AperFunction,ComponentPad*%
G36*
G01*
X223911483Y-101524395D02*
X223910597Y-101524334D01*
G75*
G02*
X222865666Y-100324597I77403J1122334D01*
G01*
X222905666Y-99744597D01*
G75*
G02*
X224105403Y-98699666I1122334J-77403D01*
G01*
X224105403Y-98699666D01*
G75*
G02*
X225150334Y-99899403I-77403J-1122334D01*
G01*
X225110334Y-100479403D01*
G75*
G02*
X223910597Y-101524334I-1122334J77403D01*
G01*
G37*
%TD.AperFunction*%
%TD*%
%TO.P,MX2,1*%
%TO.N,COL0*%
X199938000Y-100902000D03*
%TA.AperFunction,ComponentPad*%
G36*
G01*
X197876688Y-103199350D02*
X197876683Y-103199345D01*
G75*
G02*
X197790655Y-101610683I751317J837345D01*
G01*
X199100657Y-100150683D01*
G75*
G02*
X200689319Y-100064655I837345J-751317D01*
G01*
X200689319Y-100064655D01*
G75*
G02*
X200775347Y-101653317I-751317J-837345D01*
G01*
X199465345Y-103113317D01*
G75*
G02*
X197876683Y-103199345I-837345J751317D01*
G01*
G37*
%TD.AperFunction*%
%TO.P,MX2,2*%
%TO.N,Net-(D4-Pad2)*%
X204978000Y-99822000D03*
%TA.AperFunction,ComponentPad*%
G36*
G01*
X204861483Y-101524395D02*
X204860597Y-101524334D01*
G75*
G02*
X203815666Y-100324597I77403J1122334D01*
G01*
X203855666Y-99744597D01*
G75*
G02*
X205055403Y-98699666I1122334J-77403D01*
G01*
X205055403Y-98699666D01*
G75*
G02*
X206100334Y-99899403I-77403J-1122334D01*
G01*
X206060334Y-100479403D01*
G75*
G02*
X204860597Y-101524334I-1122334J77403D01*
G01*
G37*
%TD.AperFunction*%
%TD*%
%TO.P,MX1,1*%
%TO.N,COL1*%
X218988000Y-81852000D03*
%TA.AperFunction,ComponentPad*%
G36*
G01*
X216926688Y-84149350D02*
X216926683Y-84149345D01*
G75*
G02*
X216840655Y-82560683I751317J837345D01*
G01*
X218150657Y-81100683D01*
G75*
G02*
X219739319Y-81014655I837345J-751317D01*
G01*
X219739319Y-81014655D01*
G75*
G02*
X219825347Y-82603317I-751317J-837345D01*
G01*
X218515345Y-84063317D01*
G75*
G02*
X216926683Y-84149345I-837345J751317D01*
G01*
G37*
%TD.AperFunction*%
%TO.P,MX1,2*%
%TO.N,Net-(D3-Pad2)*%
X224028000Y-80772000D03*
%TA.AperFunction,ComponentPad*%
G36*
G01*
X223911483Y-82474395D02*
X223910597Y-82474334D01*
G75*
G02*
X222865666Y-81274597I77403J1122334D01*
G01*
X222905666Y-80694597D01*
G75*
G02*
X224105403Y-79649666I1122334J-77403D01*
G01*
X224105403Y-79649666D01*
G75*
G02*
X225150334Y-80849403I-77403J-1122334D01*
G01*
X225110334Y-81429403D01*
G75*
G02*
X223910597Y-82474334I-1122334J77403D01*
G01*
G37*
%TD.AperFunction*%
%TD*%
D18*
%TO.P,D9,2*%
%TO.N,Net-(D9-Pad2)*%
X242824000Y-72262000D03*
%TO.P,D9,1*%
%TO.N,ROW2*%
X242824000Y-68962000D03*
%TD*%
%TO.P,D8,2*%
%TO.N,Net-(D8-Pad2)*%
X233680000Y-71246000D03*
%TO.P,D8,1*%
%TO.N,ROW2*%
X233680000Y-67946000D03*
%TD*%
%TO.P,D7,2*%
%TO.N,Net-(D7-Pad2)*%
X224536000Y-72262000D03*
%TO.P,D7,1*%
%TO.N,ROW2*%
X224536000Y-68962000D03*
%TD*%
%TO.P,D6,2*%
%TO.N,Net-(D6-Pad2)*%
X239776000Y-71246000D03*
%TO.P,D6,1*%
%TO.N,ROW1*%
X239776000Y-67946000D03*
%TD*%
%TO.P,D5,2*%
%TO.N,Net-(D5-Pad2)*%
X230632000Y-72262000D03*
%TO.P,D5,1*%
%TO.N,ROW1*%
X230632000Y-68962000D03*
%TD*%
%TO.P,D4,2*%
%TO.N,Net-(D4-Pad2)*%
X221488000Y-71246000D03*
%TO.P,D4,1*%
%TO.N,ROW1*%
X221488000Y-67946000D03*
%TD*%
%TO.P,D3,2*%
%TO.N,Net-(D3-Pad2)*%
X227584000Y-71246000D03*
%TO.P,D3,1*%
%TO.N,ROW0*%
X227584000Y-67946000D03*
%TD*%
%TO.P,D2,2*%
%TO.N,Net-(D2-Pad2)*%
X236728000Y-72262000D03*
%TO.P,D2,1*%
%TO.N,ROW0*%
X236728000Y-68962000D03*
%TD*%
%TO.P,D1,2*%
%TO.N,Net-(D1-Pad2)*%
X218440000Y-72262000D03*
%TO.P,D1,1*%
%TO.N,ROW0*%
X218440000Y-68962000D03*
%TD*%
D19*
%TO.N,GND*%
X222758000Y-66294000D03*
X200406000Y-64479000D03*
X214413000Y-57658000D03*
X217969000Y-58891000D03*
X235966000Y-74168000D03*
X243586000Y-67564000D03*
X197072588Y-66468891D03*
%TO.N,+5V*%
X199013653Y-53462347D03*
X199681000Y-62230000D03*
X199681000Y-62230000D03*
X199657847Y-72921153D03*
X217169999Y-62324990D03*
X214599442Y-72359442D03*
X214921000Y-58682953D03*
X217969000Y-60706000D03*
%TO.N,ROW0*%
X231939000Y-67940142D03*
X235422782Y-68652389D03*
X226060000Y-67019000D03*
X224536000Y-62484000D03*
X221234000Y-56642000D03*
X215646000Y-54356000D03*
X214122000Y-55626000D03*
%TO.N,ROW1*%
X220501653Y-67925652D03*
X219202000Y-67019000D03*
X215562993Y-62683292D03*
%TO.N,ROW2*%
X223266000Y-68834000D03*
%TO.N,VCC*%
X226315000Y-54356000D03*
%TO.N,COL0*%
X208026000Y-73660000D03*
%TO.N,COL2*%
X227076000Y-81026000D03*
%TO.N,Net-(R1-Pad2)*%
X218440000Y-57404000D03*
X208788000Y-55372000D03*
X199390000Y-54864000D03*
%TO.N,Net-(R2-Pad1)*%
X221742000Y-64299990D03*
X215138000Y-66040000D03*
X206502000Y-70903000D03*
X200406000Y-74422000D03*
X199390000Y-67310000D03*
%TO.N,Net-(R3-Pad1)*%
X219587653Y-62352347D03*
X215943348Y-65321348D03*
X200406000Y-67564000D03*
%TO.N,PINA*%
X196088000Y-74422000D03*
X196088000Y-66294000D03*
%TO.N,PINB*%
X197884001Y-74385000D03*
X198837120Y-61693465D03*
%TO.N,PINB1*%
X209808653Y-79243347D03*
X208788000Y-80772000D03*
%TD*%
D20*
%TO.N,GND*%
X223190000Y-53373000D02*
X220175000Y-56388000D01*
X223190000Y-51998000D02*
X223190000Y-53373000D01*
X220175000Y-56388000D02*
X200406000Y-56388000D01*
X200406000Y-56388000D02*
X200406000Y-64262000D01*
X238454000Y-52252000D02*
X237308000Y-52252000D01*
X237308000Y-52252000D02*
X233426000Y-56134000D01*
X233680000Y-64793780D02*
X233680000Y-66294000D01*
X233426000Y-64539780D02*
X233680000Y-64793780D01*
X233426000Y-56134000D02*
X233426000Y-64539780D01*
X200406000Y-64262000D02*
X200406000Y-64479000D01*
X216736000Y-57658000D02*
X217969000Y-58891000D01*
X214413000Y-57658000D02*
X216736000Y-57658000D01*
X232664000Y-85812000D02*
X234696000Y-83780000D01*
X234696000Y-83780000D02*
X234696000Y-74676000D01*
X235204000Y-74168000D02*
X235966000Y-74168000D01*
X234696000Y-74676000D02*
X235204000Y-74168000D01*
X243586000Y-67564000D02*
X242316000Y-67564000D01*
X242316000Y-67564000D02*
X241554000Y-66802000D01*
X238506000Y-66802000D02*
X237812010Y-67495990D01*
X241554000Y-66802000D02*
X238506000Y-66802000D01*
X237812010Y-67495990D02*
X235897990Y-67495990D01*
X234696000Y-66294000D02*
X233426000Y-66294000D01*
X235897990Y-67495990D02*
X234696000Y-66294000D01*
X233426000Y-66294000D02*
X222758000Y-66294000D01*
X233680000Y-66294000D02*
X233426000Y-66294000D01*
X197159001Y-84486999D02*
X197159001Y-76652999D01*
X195834000Y-85812000D02*
X197159001Y-84486999D01*
X197159001Y-76652999D02*
X197159001Y-66603001D01*
X221140000Y-51998000D02*
X221140000Y-47498000D01*
X221140000Y-47498000D02*
X228440000Y-47498000D01*
X228440000Y-47498000D02*
X228440000Y-51998000D01*
X222590001Y-50547999D02*
X221140000Y-51998000D01*
X226989999Y-50547999D02*
X222590001Y-50547999D01*
X228440000Y-51998000D02*
X226989999Y-50547999D01*
X221140000Y-51998000D02*
X223190000Y-51998000D01*
X197159001Y-66555304D02*
X197072588Y-66468891D01*
X197159001Y-66603001D02*
X197159001Y-66555304D01*
%TO.N,+5V*%
X198613654Y-53862346D02*
X198613654Y-55865654D01*
X199013653Y-53462347D02*
X198613654Y-53862346D01*
X198613654Y-55865654D02*
X199644000Y-56896000D01*
X199644000Y-56896000D02*
X199644000Y-57912000D01*
X199644000Y-57912000D02*
X199898000Y-58166000D01*
X199898000Y-58166000D02*
X199681000Y-58383000D01*
X199353001Y-66584999D02*
X199041999Y-66584999D01*
X199681000Y-66257000D02*
X199353001Y-66584999D01*
X199681000Y-61251000D02*
X199681000Y-66257000D01*
X199681000Y-58383000D02*
X199681000Y-61251000D01*
X199681000Y-61251000D02*
X199681000Y-62230000D01*
X199041999Y-66584999D02*
X198853499Y-66773499D01*
X198664999Y-66961999D02*
X198664999Y-71928305D01*
X198853499Y-66773499D02*
X198664999Y-66961999D01*
X199131347Y-72394653D02*
X199131347Y-74220349D01*
X198664999Y-71928305D02*
X199131347Y-72394653D01*
X199131347Y-74220349D02*
X200348998Y-75438000D01*
X199131347Y-72394653D02*
X199657847Y-72921153D01*
X200348998Y-75438000D02*
X206502000Y-75438000D01*
X206502000Y-75438000D02*
X207010000Y-74930000D01*
X207010000Y-74930000D02*
X207010000Y-73406000D01*
X207010000Y-73406000D02*
X207772000Y-72644000D01*
X216668349Y-62826640D02*
X217169999Y-62324990D01*
X216668349Y-72383651D02*
X216668349Y-62826640D01*
X216408000Y-72644000D02*
X216668349Y-72383651D01*
X214314884Y-72644000D02*
X214599442Y-72359442D01*
X214122000Y-72644000D02*
X216408000Y-72644000D01*
X207772000Y-72644000D02*
X214122000Y-72644000D01*
X214122000Y-72644000D02*
X214314884Y-72644000D01*
X216944047Y-60706000D02*
X217969000Y-60706000D01*
X214921000Y-58682953D02*
X216944047Y-60706000D01*
%TO.N,Net-(D1-Pad2)*%
X210334000Y-83312000D02*
X210334000Y-80242000D01*
X210334000Y-80242000D02*
X212598000Y-77978000D01*
X212598000Y-77978000D02*
X212598000Y-76200000D01*
X212598000Y-76200000D02*
X214630000Y-74168000D01*
X216534000Y-74168000D02*
X218440000Y-72262000D01*
X214630000Y-74168000D02*
X216534000Y-74168000D01*
%TO.N,ROW0*%
X222348001Y-67170999D02*
X222504000Y-67326998D01*
X218440000Y-68962000D02*
X220231001Y-67170999D01*
X225934000Y-67946000D02*
X227584000Y-67946000D01*
X225314998Y-67326998D02*
X225934000Y-67946000D01*
X231933142Y-67946000D02*
X231939000Y-67940142D01*
X227584000Y-67946000D02*
X231933142Y-67946000D01*
X236418389Y-68652389D02*
X236728000Y-68962000D01*
X235422782Y-68652389D02*
X236418389Y-68652389D01*
X220231001Y-67170999D02*
X222348001Y-67170999D01*
X225752002Y-67326998D02*
X226060000Y-67019000D01*
X224806998Y-67326998D02*
X225752002Y-67326998D01*
X222504000Y-67326998D02*
X224806998Y-67326998D01*
X224806998Y-67326998D02*
X225314998Y-67326998D01*
X224536000Y-62484000D02*
X223520000Y-62484000D01*
X223520000Y-62484000D02*
X222758000Y-61722000D01*
X222758000Y-61722000D02*
X221742000Y-61722000D01*
X221742000Y-61722000D02*
X221234000Y-61214000D01*
X221234000Y-61214000D02*
X221234000Y-59944000D01*
X221234000Y-59944000D02*
X219964000Y-58674000D01*
X219964000Y-57912000D02*
X221234000Y-56642000D01*
X219964000Y-58674000D02*
X219964000Y-57912000D01*
X215392000Y-54356000D02*
X214122000Y-55626000D01*
X215646000Y-54356000D02*
X215392000Y-54356000D01*
%TO.N,Net-(D2-Pad2)*%
X247164000Y-83312000D02*
X247164000Y-79016000D01*
X247164000Y-79016000D02*
X245618000Y-77470000D01*
X245618000Y-77470000D02*
X239268000Y-77470000D01*
X236728000Y-74930000D02*
X236728000Y-72262000D01*
X239268000Y-77470000D02*
X236728000Y-74930000D01*
%TO.N,Net-(D3-Pad2)*%
X223988000Y-81352000D02*
X223988000Y-73446000D01*
X223988000Y-73446000D02*
X224028000Y-73406000D01*
X224028000Y-73406000D02*
X226060000Y-73406000D01*
X226060000Y-73406000D02*
X226314000Y-73152000D01*
X226314000Y-73152000D02*
X226314000Y-72390000D01*
X226314000Y-72390000D02*
X227584000Y-72390000D01*
X227584000Y-72390000D02*
X227584000Y-71246000D01*
%TO.N,Net-(D4-Pad2)*%
X204938000Y-100402000D02*
X204938000Y-100878000D01*
X204938000Y-100402000D02*
X204938000Y-94528000D01*
X210244400Y-93414010D02*
X210820000Y-92838410D01*
X206051990Y-93414010D02*
X210244400Y-93414010D01*
X204938000Y-94528000D02*
X206051990Y-93414010D01*
X210820000Y-92838410D02*
X210820000Y-90170000D01*
X211659001Y-79553409D02*
X213106000Y-78106410D01*
X211659001Y-89330999D02*
X211659001Y-79553409D01*
X210820000Y-90170000D02*
X211659001Y-89330999D01*
X213106000Y-78106410D02*
X213106000Y-76328410D01*
X213106000Y-76328410D02*
X214758410Y-74676000D01*
X214758410Y-74676000D02*
X216662000Y-74676000D01*
X216719990Y-74618010D02*
X216720401Y-74618009D01*
X216662000Y-74676000D02*
X216719990Y-74618010D01*
X216720401Y-74618009D02*
X217932410Y-73406000D01*
X217932410Y-73406000D02*
X219710000Y-73406000D01*
X219710000Y-73406000D02*
X219964000Y-73152000D01*
X219964000Y-73152000D02*
X219964000Y-72136000D01*
X220598000Y-72136000D02*
X221488000Y-71246000D01*
X219964000Y-72136000D02*
X220598000Y-72136000D01*
%TO.N,ROW1*%
X226171002Y-68962000D02*
X230632000Y-68962000D01*
X225155002Y-67946000D02*
X226171002Y-68962000D01*
X221488000Y-67946000D02*
X225155002Y-67946000D01*
X230632000Y-68962000D02*
X232027590Y-68962000D01*
X232027590Y-68962000D02*
X232664000Y-68325590D01*
X232819999Y-67170999D02*
X234810999Y-67170999D01*
X232664000Y-67326998D02*
X232819999Y-67170999D01*
X232664000Y-68325590D02*
X232664000Y-67326998D01*
X235586000Y-67946000D02*
X239776000Y-67946000D01*
X234810999Y-67170999D02*
X235586000Y-67946000D01*
X220522001Y-67946000D02*
X220501653Y-67925652D01*
X221488000Y-67946000D02*
X220522001Y-67946000D01*
X217518000Y-61599989D02*
X216646296Y-61599989D01*
X216646296Y-61599989D02*
X215562993Y-62683292D01*
X217895000Y-61976989D02*
X217518000Y-61599989D01*
X217895000Y-65712000D02*
X217895000Y-61976989D01*
X219202000Y-67019000D02*
X217895000Y-65712000D01*
%TO.N,Net-(D5-Pad2)*%
X223988000Y-100402000D02*
X223988000Y-83860000D01*
X223988000Y-83860000D02*
X225806000Y-82042000D01*
X225806000Y-82042000D02*
X225806000Y-73914000D01*
X226188410Y-73914000D02*
X226822000Y-73280410D01*
X225806000Y-73914000D02*
X226188410Y-73914000D01*
X226822000Y-73280410D02*
X226822000Y-72898000D01*
X230053990Y-72840010D02*
X230632000Y-72262000D01*
X227133990Y-72840010D02*
X230053990Y-72840010D01*
X227076000Y-72898000D02*
X227133990Y-72840010D01*
X226822000Y-72898000D02*
X227076000Y-72898000D01*
%TO.N,Net-(D6-Pad2)*%
X243038000Y-100402000D02*
X243038000Y-95798000D01*
X248489001Y-90346999D02*
X248489001Y-81865001D01*
X243038000Y-95798000D02*
X248489001Y-90346999D01*
X248489001Y-81865001D02*
X247614010Y-80990010D01*
X247614009Y-78829599D02*
X245804400Y-77019990D01*
X247614010Y-80990010D02*
X247614009Y-78829599D01*
X245804400Y-77019990D02*
X240595990Y-77019990D01*
X239776000Y-76200000D02*
X239776000Y-71246000D01*
X240595990Y-77019990D02*
X239776000Y-76200000D01*
%TO.N,Net-(D7-Pad2)*%
X206465896Y-104178102D02*
X206465896Y-93943896D01*
X204938000Y-105705998D02*
X206465896Y-104178102D01*
X206465896Y-93943896D02*
X206386020Y-93864020D01*
X204938000Y-119452000D02*
X204938000Y-105705998D01*
X210430801Y-93864019D02*
X211270010Y-93024810D01*
X206386020Y-93864020D02*
X210430801Y-93864019D01*
X211270010Y-90356400D02*
X212109010Y-89517400D01*
X211270010Y-93024810D02*
X211270010Y-90356400D01*
X212109010Y-89517400D02*
X212109010Y-79739810D01*
X213556010Y-78292810D02*
X213556010Y-76514810D01*
X212109010Y-79739810D02*
X213556010Y-78292810D01*
X213556010Y-76514810D02*
X214944810Y-75126010D01*
X214944810Y-75126010D02*
X216848810Y-75126010D01*
X218118810Y-73856010D02*
X220021990Y-73856010D01*
X216848810Y-75126010D02*
X218118810Y-73856010D01*
X220021990Y-73856010D02*
X220472000Y-73406000D01*
X220472000Y-73406000D02*
X220472000Y-72644000D01*
X224211990Y-72586010D02*
X224536000Y-72262000D01*
X220529990Y-72586010D02*
X224211990Y-72586010D01*
X220472000Y-72644000D02*
X220529990Y-72586010D01*
%TO.N,ROW2*%
X231888999Y-69737001D02*
X233680000Y-67946000D01*
X225311001Y-69737001D02*
X231888999Y-69737001D01*
X224536000Y-68962000D02*
X225311001Y-69737001D01*
X233680000Y-67946000D02*
X235584000Y-69850000D01*
X241936000Y-69850000D02*
X242824000Y-68962000D01*
X235584000Y-69850000D02*
X241936000Y-69850000D01*
X223394000Y-68962000D02*
X223266000Y-68834000D01*
X224536000Y-68962000D02*
X223394000Y-68962000D01*
%TO.N,Net-(D8-Pad2)*%
X225515896Y-98261896D02*
X224438010Y-97184010D01*
X225515896Y-100978306D02*
X225515896Y-98261896D01*
X223988000Y-102506202D02*
X225515896Y-100978306D01*
X223988000Y-119452000D02*
X223988000Y-102506202D01*
X224438010Y-84046400D02*
X226256010Y-82228400D01*
X224438010Y-97184010D02*
X224438010Y-84046400D01*
X226256010Y-74364010D02*
X226374811Y-74364009D01*
X226256010Y-82228400D02*
X226256010Y-74364010D01*
X231635980Y-73290020D02*
X233680000Y-71246000D01*
X227448800Y-73290020D02*
X231635980Y-73290020D01*
X226374811Y-74364009D02*
X227448800Y-73290020D01*
%TO.N,Net-(D9-Pad2)*%
X243038000Y-105705998D02*
X244602000Y-104141998D01*
X243038000Y-119452000D02*
X243038000Y-105705998D01*
X244602000Y-104141998D02*
X244602000Y-94996000D01*
X248939011Y-90658989D02*
X248939010Y-81678600D01*
X244602000Y-94996000D02*
X248939011Y-90658989D01*
X248064018Y-78643198D02*
X245990800Y-76569980D01*
X248064018Y-80803608D02*
X248064018Y-78643198D01*
X248939010Y-81678600D02*
X248064018Y-80803608D01*
X245990800Y-76569980D02*
X243701980Y-76569980D01*
X242824000Y-75692000D02*
X242824000Y-72262000D01*
X243701980Y-76569980D02*
X242824000Y-75692000D01*
%TO.N,VCC*%
X226315000Y-52073000D02*
X226390000Y-51998000D01*
X226315000Y-54356000D02*
X226315000Y-52073000D01*
%TO.N,COL1*%
X217678000Y-83312000D02*
X217678000Y-102362000D01*
X217678000Y-102362000D02*
X217678000Y-121412000D01*
%TO.N,COL0*%
X198628000Y-121412000D02*
X198628000Y-102362000D01*
X198628000Y-102362000D02*
X198628000Y-100076000D01*
X198628000Y-100076000D02*
X205740000Y-92964000D01*
X205740000Y-92964000D02*
X210058000Y-92964000D01*
X210058000Y-88588000D02*
X210334000Y-88312000D01*
X210058000Y-92964000D02*
X210058000Y-88588000D01*
X210334000Y-88312000D02*
X209470000Y-88312000D01*
X208026000Y-86868000D02*
X208026000Y-73660000D01*
X209470000Y-88312000D02*
X208026000Y-86868000D01*
%TO.N,COL2*%
X236728000Y-102212000D02*
X238038000Y-100902000D01*
X236728000Y-121412000D02*
X236728000Y-102212000D01*
X236728000Y-98748000D02*
X247164000Y-88312000D01*
X236728000Y-102362000D02*
X236728000Y-98748000D01*
X231338999Y-93358999D02*
X231338999Y-91384999D01*
X236728000Y-98748000D02*
X231338999Y-93358999D01*
X231338999Y-91384999D02*
X228600000Y-88646000D01*
X228600000Y-88646000D02*
X228600000Y-82296000D01*
X227330000Y-81026000D02*
X227076000Y-81026000D01*
X228600000Y-82296000D02*
X227330000Y-81026000D01*
%TO.N,Net-(R1-Pad2)*%
X237293999Y-51376999D02*
X232918000Y-55752998D01*
X240078999Y-51376999D02*
X237293999Y-51376999D01*
X232918000Y-64668190D02*
X233172000Y-64922190D01*
X232918000Y-55752998D02*
X232918000Y-64668190D01*
X233172000Y-64922190D02*
X233172000Y-65532000D01*
X233172000Y-65532000D02*
X221742000Y-65532000D01*
X221742000Y-65532000D02*
X218694000Y-62484000D01*
X218694000Y-57658000D02*
X218440000Y-57404000D01*
X218694000Y-62484000D02*
X218694000Y-57658000D01*
X199898000Y-55372000D02*
X199390000Y-54864000D01*
X208788000Y-55372000D02*
X199898000Y-55372000D01*
X244654000Y-55952000D02*
X245546000Y-55952000D01*
X245546000Y-55952000D02*
X246380000Y-55118000D01*
X246380000Y-55118000D02*
X246380000Y-50800000D01*
X240655998Y-50800000D02*
X240078999Y-51376999D01*
X246380000Y-50800000D02*
X240655998Y-50800000D01*
%TO.N,D+*%
X224790000Y-59031500D02*
X224790000Y-51998000D01*
X228346000Y-62587500D02*
X224790000Y-59031500D01*
%TO.N,Net-(R2-Pad1)*%
X221854510Y-64412500D02*
X221742000Y-64299990D01*
X228346000Y-64412500D02*
X221854510Y-64412500D01*
X215138000Y-66040000D02*
X215138000Y-70866000D01*
X215138000Y-70866000D02*
X214884000Y-71120000D01*
X214884000Y-71120000D02*
X214826010Y-71177990D01*
X206719000Y-71120000D02*
X206502000Y-70903000D01*
X214884000Y-71120000D02*
X206719000Y-71120000D01*
X200406000Y-74422000D02*
X200406000Y-72644000D01*
X199390000Y-71628000D02*
X199390000Y-67310000D01*
X200406000Y-72644000D02*
X199390000Y-71628000D01*
%TO.N,D-*%
X231648000Y-62587500D02*
X231648000Y-62075000D01*
X230528500Y-61468000D02*
X231648000Y-62587500D01*
X228092000Y-61468000D02*
X230528500Y-61468000D01*
X225590000Y-58966000D02*
X228092000Y-61468000D01*
X225590000Y-51998000D02*
X225590000Y-58966000D01*
%TO.N,Net-(R3-Pad1)*%
X220810296Y-63574990D02*
X219587653Y-62352347D01*
X230810490Y-63574990D02*
X220810296Y-63574990D01*
X231648000Y-64412500D02*
X230810490Y-63574990D01*
X215943348Y-65321348D02*
X215943348Y-71076652D01*
X215943348Y-71076652D02*
X215392000Y-71628000D01*
X215392000Y-71628000D02*
X200406000Y-71628000D01*
X200406000Y-71628000D02*
X200406000Y-67564000D01*
%TO.N,PINA*%
X196088000Y-74422000D02*
X196088000Y-66294000D01*
%TO.N,PINB*%
X197884001Y-66254999D02*
X197161002Y-65532000D01*
X197884001Y-74385000D02*
X197884001Y-66254999D01*
X197161002Y-65532000D02*
X196342000Y-65532000D01*
X196342000Y-65532000D02*
X195834000Y-65024000D01*
X195834000Y-65024000D02*
X195834000Y-62738000D01*
X195834000Y-62738000D02*
X196088000Y-62484000D01*
X198046585Y-62484000D02*
X198837120Y-61693465D01*
X196088000Y-62484000D02*
X198046585Y-62484000D01*
%TO.N,PINB1*%
X209808653Y-79751347D02*
X208788000Y-80772000D01*
X209808653Y-79243347D02*
X209808653Y-79751347D01*
%TD*%
D21*
%TO.N,GND*%
X227479748Y-45858143D02*
X227275824Y-46067381D01*
X227116639Y-46312382D01*
X227008310Y-46583731D01*
X226955000Y-46871000D01*
X226955000Y-47371000D01*
X228313000Y-47371000D01*
X228313000Y-47351000D01*
X228473000Y-47351000D01*
X228473000Y-52145000D01*
X228313000Y-52145000D01*
X228313000Y-52125000D01*
X228293000Y-52125000D01*
X228293000Y-51871000D01*
X228313000Y-51871000D01*
X228313000Y-50177845D01*
X228083110Y-50056524D01*
X227989047Y-50077437D01*
X227720574Y-50192709D01*
X227479748Y-50358143D01*
X227275824Y-50567381D01*
X227231540Y-50635538D01*
X227229502Y-50628820D01*
X227170537Y-50518506D01*
X227091185Y-50421815D01*
X226994494Y-50342463D01*
X226884180Y-50283498D01*
X226764482Y-50247188D01*
X226640000Y-50234928D01*
X226140000Y-50234928D01*
X226015518Y-50247188D01*
X225990000Y-50254929D01*
X225964482Y-50247188D01*
X225840000Y-50234928D01*
X225340000Y-50234928D01*
X225215518Y-50247188D01*
X225190000Y-50254929D01*
X225164482Y-50247188D01*
X225040000Y-50234928D01*
X224540000Y-50234928D01*
X224415518Y-50247188D01*
X224390000Y-50254929D01*
X224364482Y-50247188D01*
X224240000Y-50234928D01*
X223740000Y-50234928D01*
X223615518Y-50247188D01*
X223590734Y-50254706D01*
X223571361Y-50248596D01*
X223471750Y-50238000D01*
X223313000Y-50396750D01*
X223313000Y-50401967D01*
X223288815Y-50421815D01*
X223209463Y-50518506D01*
X223150498Y-50628820D01*
X223114188Y-50748518D01*
X223101928Y-50873000D01*
X223101928Y-52145000D01*
X223067000Y-52145000D01*
X223067000Y-52125000D01*
X221267000Y-52125000D01*
X221267000Y-52145000D01*
X221107000Y-52145000D01*
X221107000Y-50177845D01*
X221267000Y-50177845D01*
X221267000Y-51871000D01*
X223067000Y-51871000D01*
X223067000Y-50396750D01*
X222908250Y-50238000D01*
X222808639Y-50248596D01*
X222689348Y-50286221D01*
X222579689Y-50346396D01*
X222483877Y-50426807D01*
X222405594Y-50524366D01*
X222348057Y-50634918D01*
X222304176Y-50567381D01*
X222100252Y-50358143D01*
X221859426Y-50192709D01*
X221590953Y-50077437D01*
X221496890Y-50056524D01*
X221267000Y-50177845D01*
X221107000Y-50177845D01*
X221107000Y-47625000D01*
X221267000Y-47625000D01*
X221267000Y-49318155D01*
X221496890Y-49439476D01*
X221590953Y-49418563D01*
X221859426Y-49303291D01*
X222100252Y-49137857D01*
X222304176Y-48928619D01*
X222463361Y-48683618D01*
X222571690Y-48412269D01*
X222625000Y-48125000D01*
X222625000Y-47625000D01*
X226955000Y-47625000D01*
X226955000Y-48125000D01*
X227008310Y-48412269D01*
X227116639Y-48683618D01*
X227275824Y-48928619D01*
X227479748Y-49137857D01*
X227720574Y-49303291D01*
X227989047Y-49418563D01*
X228083110Y-49439476D01*
X228313000Y-49318155D01*
X228313000Y-47625000D01*
X226955000Y-47625000D01*
X222625000Y-47625000D01*
X221267000Y-47625000D01*
X221107000Y-47625000D01*
X221107000Y-47351000D01*
X221267000Y-47351000D01*
X221267000Y-47371000D01*
X222625000Y-47371000D01*
X222625000Y-46871000D01*
X222571690Y-46583731D01*
X222463361Y-46312382D01*
X222304176Y-46067381D01*
X222100252Y-45858143D01*
X222084031Y-45847000D01*
X227495969Y-45847000D01*
X227479748Y-45858143D01*
%TA.AperFunction,Conductor*%
D22*
G36*
X227479748Y-45858143D02*
G01*
X227275824Y-46067381D01*
X227116639Y-46312382D01*
X227008310Y-46583731D01*
X226955000Y-46871000D01*
X226955000Y-47371000D01*
X228313000Y-47371000D01*
X228313000Y-47351000D01*
X228473000Y-47351000D01*
X228473000Y-52145000D01*
X228313000Y-52145000D01*
X228313000Y-52125000D01*
X228293000Y-52125000D01*
X228293000Y-51871000D01*
X228313000Y-51871000D01*
X228313000Y-50177845D01*
X228083110Y-50056524D01*
X227989047Y-50077437D01*
X227720574Y-50192709D01*
X227479748Y-50358143D01*
X227275824Y-50567381D01*
X227231540Y-50635538D01*
X227229502Y-50628820D01*
X227170537Y-50518506D01*
X227091185Y-50421815D01*
X226994494Y-50342463D01*
X226884180Y-50283498D01*
X226764482Y-50247188D01*
X226640000Y-50234928D01*
X226140000Y-50234928D01*
X226015518Y-50247188D01*
X225990000Y-50254929D01*
X225964482Y-50247188D01*
X225840000Y-50234928D01*
X225340000Y-50234928D01*
X225215518Y-50247188D01*
X225190000Y-50254929D01*
X225164482Y-50247188D01*
X225040000Y-50234928D01*
X224540000Y-50234928D01*
X224415518Y-50247188D01*
X224390000Y-50254929D01*
X224364482Y-50247188D01*
X224240000Y-50234928D01*
X223740000Y-50234928D01*
X223615518Y-50247188D01*
X223590734Y-50254706D01*
X223571361Y-50248596D01*
X223471750Y-50238000D01*
X223313000Y-50396750D01*
X223313000Y-50401967D01*
X223288815Y-50421815D01*
X223209463Y-50518506D01*
X223150498Y-50628820D01*
X223114188Y-50748518D01*
X223101928Y-50873000D01*
X223101928Y-52145000D01*
X223067000Y-52145000D01*
X223067000Y-52125000D01*
X221267000Y-52125000D01*
X221267000Y-52145000D01*
X221107000Y-52145000D01*
X221107000Y-50177845D01*
X221267000Y-50177845D01*
X221267000Y-51871000D01*
X223067000Y-51871000D01*
X223067000Y-50396750D01*
X222908250Y-50238000D01*
X222808639Y-50248596D01*
X222689348Y-50286221D01*
X222579689Y-50346396D01*
X222483877Y-50426807D01*
X222405594Y-50524366D01*
X222348057Y-50634918D01*
X222304176Y-50567381D01*
X222100252Y-50358143D01*
X221859426Y-50192709D01*
X221590953Y-50077437D01*
X221496890Y-50056524D01*
X221267000Y-50177845D01*
X221107000Y-50177845D01*
X221107000Y-47625000D01*
X221267000Y-47625000D01*
X221267000Y-49318155D01*
X221496890Y-49439476D01*
X221590953Y-49418563D01*
X221859426Y-49303291D01*
X222100252Y-49137857D01*
X222304176Y-48928619D01*
X222463361Y-48683618D01*
X222571690Y-48412269D01*
X222625000Y-48125000D01*
X222625000Y-47625000D01*
X226955000Y-47625000D01*
X226955000Y-48125000D01*
X227008310Y-48412269D01*
X227116639Y-48683618D01*
X227275824Y-48928619D01*
X227479748Y-49137857D01*
X227720574Y-49303291D01*
X227989047Y-49418563D01*
X228083110Y-49439476D01*
X228313000Y-49318155D01*
X228313000Y-47625000D01*
X226955000Y-47625000D01*
X222625000Y-47625000D01*
X221267000Y-47625000D01*
X221107000Y-47625000D01*
X221107000Y-47351000D01*
X221267000Y-47351000D01*
X221267000Y-47371000D01*
X222625000Y-47371000D01*
X222625000Y-46871000D01*
X222571690Y-46583731D01*
X222463361Y-46312382D01*
X222304176Y-46067381D01*
X222100252Y-45858143D01*
X222084031Y-45847000D01*
X227495969Y-45847000D01*
X227479748Y-45858143D01*
G37*
%TD.AperFunction*%
%TD*%
M02*
