%TF.GenerationSoftware,KiCad,Pcbnew,(5.1.9)-1*%
%TF.CreationDate,2021-06-12T11:35:01+10:00*%
%TF.ProjectId,Productivity Macro,50726f64-7563-4746-9976-697479204d61,rev?*%
%TF.SameCoordinates,Original*%
%TF.FileFunction,Soldermask,Top*%
%TF.FilePolarity,Negative*%
%FSLAX46Y46*%
G04 Gerber Fmt 4.6, Leading zero omitted, Abs format (unit mm)*
G04 Created by KiCad (PCBNEW (5.1.9)-1) date 2021-06-12 11:35:01*
%MOMM*%
%LPD*%
G01*
G04 APERTURE LIST*
%ADD10O,1.350000X1.350000*%
%ADD11R,1.350000X1.350000*%
%ADD12O,1.700000X2.700000*%
%ADD13R,0.500000X2.250000*%
%ADD14R,2.000000X2.000000*%
%ADD15C,2.000000*%
%ADD16R,3.200000X2.000000*%
%ADD17R,1.800000X1.100000*%
%ADD18C,1.750000*%
%ADD19C,3.987800*%
%ADD20R,1.200000X0.900000*%
G04 APERTURE END LIST*
D10*
%TO.C,J4*%
X189516000Y-63404000D03*
X191516000Y-63404000D03*
X189516000Y-61404000D03*
X191516000Y-61404000D03*
X189516000Y-59404000D03*
X191516000Y-59404000D03*
X189516000Y-57404000D03*
D11*
X191516000Y-57404000D03*
%TD*%
D12*
%TO.C,USB1*%
X228440000Y-47498000D03*
X221140000Y-47498000D03*
X221140000Y-51998000D03*
X228440000Y-51998000D03*
D13*
X226390000Y-51998000D03*
X225590000Y-51998000D03*
X224790000Y-51998000D03*
X223990000Y-51998000D03*
X223190000Y-51998000D03*
%TD*%
D14*
%TO.C,SW3*%
X232664000Y-83312000D03*
D15*
X232664000Y-85812000D03*
X232664000Y-88312000D03*
D16*
X240164000Y-80212000D03*
X240164000Y-91412000D03*
D15*
X247164000Y-83312000D03*
X247164000Y-88312000D03*
%TD*%
D14*
%TO.C,SW2*%
X195834000Y-83312000D03*
D15*
X195834000Y-85812000D03*
X195834000Y-88312000D03*
D16*
X203334000Y-80212000D03*
X203334000Y-91412000D03*
D15*
X210334000Y-83312000D03*
X210334000Y-88312000D03*
%TD*%
D17*
%TO.C,SW1*%
X244654000Y-52252000D03*
X238454000Y-55952000D03*
X244654000Y-55952000D03*
X238454000Y-52252000D03*
%TD*%
%TO.C,R3*%
G36*
G01*
X232098002Y-63100000D02*
X231197998Y-63100000D01*
G75*
G02*
X230948000Y-62850002I0J249998D01*
G01*
X230948000Y-62324998D01*
G75*
G02*
X231197998Y-62075000I249998J0D01*
G01*
X232098002Y-62075000D01*
G75*
G02*
X232348000Y-62324998I0J-249998D01*
G01*
X232348000Y-62850002D01*
G75*
G02*
X232098002Y-63100000I-249998J0D01*
G01*
G37*
G36*
G01*
X232098002Y-64925000D02*
X231197998Y-64925000D01*
G75*
G02*
X230948000Y-64675002I0J249998D01*
G01*
X230948000Y-64149998D01*
G75*
G02*
X231197998Y-63900000I249998J0D01*
G01*
X232098002Y-63900000D01*
G75*
G02*
X232348000Y-64149998I0J-249998D01*
G01*
X232348000Y-64675002D01*
G75*
G02*
X232098002Y-64925000I-249998J0D01*
G01*
G37*
%TD*%
%TO.C,R2*%
G36*
G01*
X228796002Y-63100000D02*
X227895998Y-63100000D01*
G75*
G02*
X227646000Y-62850002I0J249998D01*
G01*
X227646000Y-62324998D01*
G75*
G02*
X227895998Y-62075000I249998J0D01*
G01*
X228796002Y-62075000D01*
G75*
G02*
X229046000Y-62324998I0J-249998D01*
G01*
X229046000Y-62850002D01*
G75*
G02*
X228796002Y-63100000I-249998J0D01*
G01*
G37*
G36*
G01*
X228796002Y-64925000D02*
X227895998Y-64925000D01*
G75*
G02*
X227646000Y-64675002I0J249998D01*
G01*
X227646000Y-64149998D01*
G75*
G02*
X227895998Y-63900000I249998J0D01*
G01*
X228796002Y-63900000D01*
G75*
G02*
X229046000Y-64149998I0J-249998D01*
G01*
X229046000Y-64675002D01*
G75*
G02*
X228796002Y-64925000I-249998J0D01*
G01*
G37*
%TD*%
D18*
%TO.C,MX7*%
X245618000Y-123952000D03*
X235458000Y-123952000D03*
D19*
X240538000Y-123952000D03*
%TD*%
D18*
%TO.C,MX6*%
X226568000Y-123952000D03*
X216408000Y-123952000D03*
D19*
X221488000Y-123952000D03*
%TD*%
D18*
%TO.C,MX5*%
X207518000Y-123952000D03*
X197358000Y-123952000D03*
D19*
X202438000Y-123952000D03*
%TD*%
D18*
%TO.C,MX4*%
X245618000Y-104902000D03*
X235458000Y-104902000D03*
D19*
X240538000Y-104902000D03*
%TD*%
D18*
%TO.C,MX3*%
X226568000Y-104902000D03*
X216408000Y-104902000D03*
D19*
X221488000Y-104902000D03*
%TD*%
D18*
%TO.C,MX2*%
X207518000Y-104902000D03*
X197358000Y-104902000D03*
D19*
X202438000Y-104902000D03*
%TD*%
D18*
%TO.C,MX1*%
X226568000Y-85852000D03*
X216408000Y-85852000D03*
D19*
X221488000Y-85852000D03*
%TD*%
D20*
%TO.C,D9*%
X242824000Y-72262000D03*
X242824000Y-68962000D03*
%TD*%
%TO.C,D8*%
X233680000Y-71246000D03*
X233680000Y-67946000D03*
%TD*%
%TO.C,D7*%
X224536000Y-72262000D03*
X224536000Y-68962000D03*
%TD*%
%TO.C,D6*%
X239776000Y-71246000D03*
X239776000Y-67946000D03*
%TD*%
%TO.C,D5*%
X230632000Y-72262000D03*
X230632000Y-68962000D03*
%TD*%
%TO.C,D4*%
X221488000Y-71246000D03*
X221488000Y-67946000D03*
%TD*%
%TO.C,D3*%
X227584000Y-71246000D03*
X227584000Y-67946000D03*
%TD*%
%TO.C,D2*%
X236728000Y-72262000D03*
X236728000Y-68962000D03*
%TD*%
%TO.C,D1*%
X218440000Y-72262000D03*
X218440000Y-68962000D03*
%TD*%
M02*
