M48
; DRILL file {KiCad (5.1.9)-1} date 04/28/21 07:44:17
; FORMAT={-:-/ absolute / inch / decimal}
; #@! TF.CreationDate,2021-04-28T07:44:17+10:00
; #@! TF.GenerationSoftware,Kicad,Pcbnew,(5.1.9)-1
; #@! TF.FileFunction,Plated,1,2,PTH
FMAT,2
INCH
T1C0.0157
T2C0.0276
T3C0.0394
T4C0.0579
T5C0.0591
%
G90
G05
T1
X7.72Y-2.61
X7.72Y-2.93
X7.7588Y-2.6169
X7.7907Y-2.9285
X7.8282Y-2.4289
X7.8352Y-2.1048
X7.85Y-2.16
X7.85Y-2.65
X7.8605Y-2.8709
X7.8615Y-2.45
X7.8615Y-2.45
X7.89Y-2.5385
X7.89Y-2.66
X7.89Y-2.93
X8.13Y-2.7915
X8.19Y-2.9
X8.22Y-2.18
X8.22Y-3.18
X8.2602Y-3.1198
X8.43Y-2.19
X8.4415Y-2.27
X8.4488Y-2.8488
X8.4615Y-2.3104
X8.47Y-2.6
X8.4867Y-2.4678
X8.49Y-2.14
X8.5017Y-2.5717
X8.55Y-2.4537
X8.5815Y-2.3185
X8.5815Y-2.39
X8.6Y-2.26
X8.63Y-2.6385
X8.6452Y-2.4548
X8.6812Y-2.6742
X8.71Y-2.23
X8.73Y-2.5315
X8.77Y-2.61
X8.79Y-2.71
X8.84Y-2.46
X8.9Y-2.6385
X8.91Y-2.14
X8.94Y-3.19
X9.1315Y-2.6748
X9.2686Y-2.7028
X9.29Y-2.92
X9.59Y-2.66
T3
X7.71Y-3.28
X7.71Y-3.3784
X7.71Y-3.4769
X8.2809Y-3.28
X8.2809Y-3.4769
X9.16Y-3.28
X9.16Y-3.3784
X9.16Y-3.4769
X9.7309Y-3.28
X9.7309Y-3.4769
T4
X7.82Y-4.03
X7.82Y-4.78
X7.8716Y-3.9725
X7.8716Y-4.7225
X8.0684Y-3.9528
X8.0684Y-4.7028
X8.07Y-3.93
X8.07Y-4.68
X8.57Y-3.28
X8.57Y-4.03
X8.57Y-4.78
X8.6216Y-3.2225
X8.6216Y-3.9725
X8.6216Y-4.7225
X8.8184Y-3.2028
X8.8184Y-3.9528
X8.8184Y-4.7028
X8.82Y-3.18
X8.82Y-3.93
X8.82Y-4.68
X9.32Y-4.03
X9.32Y-4.78
X9.3716Y-3.9725
X9.3716Y-4.7225
X9.5684Y-3.9528
X9.5684Y-4.7028
X9.57Y-3.93
X9.57Y-4.68
T2
G00X8.7063Y-1.8464
M15
G01X8.7063Y-1.8936
M16
G05
G00X8.7063Y-2.0235
M15
G01X8.7063Y-2.0708
M16
G05
G00X8.9937Y-1.8464
M15
G01X8.9937Y-1.8936
M16
G05
G00X8.9937Y-2.0235
M15
G01X8.9937Y-2.0708
M16
G05
T5
G00X7.9797Y-3.158
M15
G01X8.0309Y-3.158
M16
G05
G00X7.9797Y-3.5989
M15
G01X8.0309Y-3.5989
M16
G05
G00X9.4297Y-3.158
M15
G01X9.4809Y-3.158
M16
G05
G00X9.4297Y-3.5989
M15
G01X9.4809Y-3.5989
M16
G05
T0
M30
