M48
; DRILL file {KiCad (5.1.9)-1} date 04/28/21 07:44:17
; FORMAT={-:-/ absolute / inch / decimal}
; #@! TF.CreationDate,2021-04-28T07:44:17+10:00
; #@! TF.GenerationSoftware,Kicad,Pcbnew,(5.1.9)-1
; #@! TF.FileFunction,NonPlated,1,2,NPTH
FMAT,2
INCH
T1C0.0689
T2C0.1570
%
G90
G05
T1
X7.77Y-4.13
X7.77Y-4.88
X8.17Y-4.13
X8.17Y-4.88
X8.52Y-3.38
X8.52Y-4.13
X8.52Y-4.88
X8.92Y-3.38
X8.92Y-4.13
X8.92Y-4.88
X9.27Y-4.13
X9.27Y-4.88
X9.67Y-4.13
X9.67Y-4.88
T2
X7.97Y-4.13
X7.97Y-4.88
X8.72Y-3.38
X8.72Y-4.13
X8.72Y-4.88
X9.47Y-4.13
X9.47Y-4.88
T0
M30
