%TF.GenerationSoftware,KiCad,Pcbnew,(5.1.9)-1*%
%TF.CreationDate,2021-06-06T12:13:44+10:00*%
%TF.ProjectId,Productivity Macro,50726f64-7563-4746-9976-697479204d61,rev?*%
%TF.SameCoordinates,Original*%
%TF.FileFunction,Legend,Top*%
%TF.FilePolarity,Positive*%
%FSLAX46Y46*%
G04 Gerber Fmt 4.6, Leading zero omitted, Abs format (unit mm)*
G04 Created by KiCad (PCBNEW (5.1.9)-1) date 2021-06-06 12:13:44*
%MOMM*%
%LPD*%
G01*
G04 APERTURE LIST*
%ADD10C,0.100000*%
%ADD11C,0.150000*%
%ADD12C,0.010000*%
%ADD13C,0.120000*%
%ADD14O,1.350000X1.350000*%
%ADD15R,1.350000X1.350000*%
%ADD16O,1.700000X2.700000*%
%ADD17R,0.500000X2.250000*%
%ADD18R,2.000000X2.000000*%
%ADD19C,2.000000*%
%ADD20R,3.200000X2.000000*%
%ADD21R,1.800000X1.100000*%
%ADD22C,1.750000*%
%ADD23C,3.987800*%
%ADD24R,1.200000X0.900000*%
G04 APERTURE END LIST*
D10*
X186785333Y-63226190D02*
X186952000Y-63726190D01*
X187118666Y-63226190D01*
X187571047Y-63678571D02*
X187547238Y-63702380D01*
X187475809Y-63726190D01*
X187428190Y-63726190D01*
X187356761Y-63702380D01*
X187309142Y-63654761D01*
X187285333Y-63607142D01*
X187261523Y-63511904D01*
X187261523Y-63440476D01*
X187285333Y-63345238D01*
X187309142Y-63297619D01*
X187356761Y-63250000D01*
X187428190Y-63226190D01*
X187475809Y-63226190D01*
X187547238Y-63250000D01*
X187571047Y-63273809D01*
X188071047Y-63678571D02*
X188047238Y-63702380D01*
X187975809Y-63726190D01*
X187928190Y-63726190D01*
X187856761Y-63702380D01*
X187809142Y-63654761D01*
X187785333Y-63607142D01*
X187761523Y-63511904D01*
X187761523Y-63440476D01*
X187785333Y-63345238D01*
X187809142Y-63297619D01*
X187856761Y-63250000D01*
X187928190Y-63226190D01*
X187975809Y-63226190D01*
X188047238Y-63250000D01*
X188071047Y-63273809D01*
X186666285Y-61694190D02*
X186666285Y-61194190D01*
X186832952Y-61551333D01*
X186999619Y-61194190D01*
X186999619Y-61694190D01*
X187332952Y-61194190D02*
X187428190Y-61194190D01*
X187475809Y-61218000D01*
X187523428Y-61265619D01*
X187547238Y-61360857D01*
X187547238Y-61527523D01*
X187523428Y-61622761D01*
X187475809Y-61670380D01*
X187428190Y-61694190D01*
X187332952Y-61694190D01*
X187285333Y-61670380D01*
X187237714Y-61622761D01*
X187213904Y-61527523D01*
X187213904Y-61360857D01*
X187237714Y-61265619D01*
X187285333Y-61218000D01*
X187332952Y-61194190D01*
X187737714Y-61670380D02*
X187809142Y-61694190D01*
X187928190Y-61694190D01*
X187975809Y-61670380D01*
X187999619Y-61646571D01*
X188023428Y-61598952D01*
X188023428Y-61551333D01*
X187999619Y-61503714D01*
X187975809Y-61479904D01*
X187928190Y-61456095D01*
X187832952Y-61432285D01*
X187785333Y-61408476D01*
X187761523Y-61384666D01*
X187737714Y-61337047D01*
X187737714Y-61289428D01*
X187761523Y-61241809D01*
X187785333Y-61218000D01*
X187832952Y-61194190D01*
X187952000Y-61194190D01*
X188023428Y-61218000D01*
X188237714Y-61694190D02*
X188237714Y-61194190D01*
D11*
X192992571Y-63952380D02*
X192992571Y-62952380D01*
X193325904Y-63666666D01*
X193659238Y-62952380D01*
X193659238Y-63952380D01*
X194135428Y-63952380D02*
X194135428Y-62952380D01*
X194564000Y-63904761D02*
X194706857Y-63952380D01*
X194944952Y-63952380D01*
X195040190Y-63904761D01*
X195087809Y-63857142D01*
X195135428Y-63761904D01*
X195135428Y-63666666D01*
X195087809Y-63571428D01*
X195040190Y-63523809D01*
X194944952Y-63476190D01*
X194754476Y-63428571D01*
X194659238Y-63380952D01*
X194611619Y-63333333D01*
X194564000Y-63238095D01*
X194564000Y-63142857D01*
X194611619Y-63047619D01*
X194659238Y-63000000D01*
X194754476Y-62952380D01*
X194992571Y-62952380D01*
X195135428Y-63000000D01*
X195754476Y-62952380D02*
X195944952Y-62952380D01*
X196040190Y-63000000D01*
X196135428Y-63095238D01*
X196183047Y-63285714D01*
X196183047Y-63619047D01*
X196135428Y-63809523D01*
X196040190Y-63904761D01*
X195944952Y-63952380D01*
X195754476Y-63952380D01*
X195659238Y-63904761D01*
X195564000Y-63809523D01*
X195516380Y-63619047D01*
X195516380Y-63285714D01*
X195564000Y-63095238D01*
X195659238Y-63000000D01*
X195754476Y-62952380D01*
X192873523Y-61872761D02*
X193016380Y-61920380D01*
X193254476Y-61920380D01*
X193349714Y-61872761D01*
X193397333Y-61825142D01*
X193444952Y-61729904D01*
X193444952Y-61634666D01*
X193397333Y-61539428D01*
X193349714Y-61491809D01*
X193254476Y-61444190D01*
X193064000Y-61396571D01*
X192968761Y-61348952D01*
X192921142Y-61301333D01*
X192873523Y-61206095D01*
X192873523Y-61110857D01*
X192921142Y-61015619D01*
X192968761Y-60968000D01*
X193064000Y-60920380D01*
X193302095Y-60920380D01*
X193444952Y-60968000D01*
X194444952Y-61825142D02*
X194397333Y-61872761D01*
X194254476Y-61920380D01*
X194159238Y-61920380D01*
X194016380Y-61872761D01*
X193921142Y-61777523D01*
X193873523Y-61682285D01*
X193825904Y-61491809D01*
X193825904Y-61348952D01*
X193873523Y-61158476D01*
X193921142Y-61063238D01*
X194016380Y-60968000D01*
X194159238Y-60920380D01*
X194254476Y-60920380D01*
X194397333Y-60968000D01*
X194444952Y-61015619D01*
X195349714Y-61920380D02*
X194873523Y-61920380D01*
X194873523Y-60920380D01*
X195683047Y-61920380D02*
X195683047Y-60920380D01*
X196254476Y-61920380D02*
X195825904Y-61348952D01*
X196254476Y-60920380D02*
X195683047Y-61491809D01*
X193548095Y-58936000D02*
X193452857Y-58888380D01*
X193310000Y-58888380D01*
X193167142Y-58936000D01*
X193071904Y-59031238D01*
X193024285Y-59126476D01*
X192976666Y-59316952D01*
X192976666Y-59459809D01*
X193024285Y-59650285D01*
X193071904Y-59745523D01*
X193167142Y-59840761D01*
X193310000Y-59888380D01*
X193405238Y-59888380D01*
X193548095Y-59840761D01*
X193595714Y-59793142D01*
X193595714Y-59459809D01*
X193405238Y-59459809D01*
X194024285Y-59888380D02*
X194024285Y-58888380D01*
X194595714Y-59888380D01*
X194595714Y-58888380D01*
X195071904Y-59888380D02*
X195071904Y-58888380D01*
X195310000Y-58888380D01*
X195452857Y-58936000D01*
X195548095Y-59031238D01*
X195595714Y-59126476D01*
X195643333Y-59316952D01*
X195643333Y-59459809D01*
X195595714Y-59650285D01*
X195548095Y-59745523D01*
X195452857Y-59840761D01*
X195310000Y-59888380D01*
X195071904Y-59888380D01*
X193040095Y-57808761D02*
X193182952Y-57856380D01*
X193421047Y-57856380D01*
X193516285Y-57808761D01*
X193563904Y-57761142D01*
X193611523Y-57665904D01*
X193611523Y-57570666D01*
X193563904Y-57475428D01*
X193516285Y-57427809D01*
X193421047Y-57380190D01*
X193230571Y-57332571D01*
X193135333Y-57284952D01*
X193087714Y-57237333D01*
X193040095Y-57142095D01*
X193040095Y-57046857D01*
X193087714Y-56951619D01*
X193135333Y-56904000D01*
X193230571Y-56856380D01*
X193468666Y-56856380D01*
X193611523Y-56904000D01*
X193992476Y-57808761D02*
X194135333Y-57856380D01*
X194373428Y-57856380D01*
X194468666Y-57808761D01*
X194516285Y-57761142D01*
X194563904Y-57665904D01*
X194563904Y-57570666D01*
X194516285Y-57475428D01*
X194468666Y-57427809D01*
X194373428Y-57380190D01*
X194182952Y-57332571D01*
X194087714Y-57284952D01*
X194040095Y-57237333D01*
X193992476Y-57142095D01*
X193992476Y-57046857D01*
X194040095Y-56951619D01*
X194087714Y-56904000D01*
X194182952Y-56856380D01*
X194421047Y-56856380D01*
X194563904Y-56904000D01*
D12*
%TO.C,G\u002A\u002A\u002A*%
G36*
X207746087Y-59541470D02*
G01*
X207883396Y-59699472D01*
X208075305Y-59942528D01*
X208301731Y-60243000D01*
X208542587Y-60573251D01*
X208777789Y-60905645D01*
X208987252Y-61212542D01*
X209150890Y-61466307D01*
X209248618Y-61639301D01*
X209259874Y-61665313D01*
X209263930Y-61724770D01*
X209204834Y-61765788D01*
X209056512Y-61792955D01*
X208792888Y-61810859D01*
X208387888Y-61824089D01*
X208352479Y-61824985D01*
X207931822Y-61838518D01*
X207651609Y-61857418D01*
X207482950Y-61886722D01*
X207396954Y-61931465D01*
X207364732Y-61996682D01*
X207364638Y-61997166D01*
X207366510Y-62056881D01*
X207415952Y-62098071D01*
X207538406Y-62124121D01*
X207759316Y-62138416D01*
X208104122Y-62144343D01*
X208478247Y-62145333D01*
X209620244Y-62145333D01*
X209923789Y-62558843D01*
X210084517Y-62785764D01*
X210194558Y-62956358D01*
X210227333Y-63024510D01*
X210148368Y-63045468D01*
X209934257Y-63062406D01*
X209619171Y-63073409D01*
X209296000Y-63076666D01*
X208888412Y-63078615D01*
X208620871Y-63088009D01*
X208464106Y-63110170D01*
X208388844Y-63150422D01*
X208365813Y-63214086D01*
X208364666Y-63246000D01*
X208375437Y-63320288D01*
X208427321Y-63368978D01*
X208549675Y-63397437D01*
X208771854Y-63411036D01*
X209123217Y-63415144D01*
X209290488Y-63415333D01*
X209691253Y-63422478D01*
X210047368Y-63441788D01*
X210313416Y-63470072D01*
X210426027Y-63495067D01*
X210592823Y-63609232D01*
X210789697Y-63813872D01*
X210899220Y-63957750D01*
X211162695Y-64340698D01*
X210292847Y-64364849D01*
X209900936Y-64378143D01*
X209648178Y-64396318D01*
X209504403Y-64426082D01*
X209439441Y-64474147D01*
X209423122Y-64547224D01*
X209423000Y-64558333D01*
X209434305Y-64629826D01*
X209486694Y-64679820D01*
X209607875Y-64713988D01*
X209825558Y-64738000D01*
X210167452Y-64757528D01*
X210457063Y-64770000D01*
X211491127Y-64812333D01*
X212092018Y-65680166D01*
X212692910Y-66548000D01*
X207814458Y-66548000D01*
X206747937Y-66547326D01*
X205840008Y-66545150D01*
X205079933Y-66541234D01*
X204456977Y-66535342D01*
X203960401Y-66527239D01*
X203579469Y-66516689D01*
X203303444Y-66503455D01*
X203121589Y-66487302D01*
X203023166Y-66467993D01*
X202997440Y-66445294D01*
X202998825Y-66442166D01*
X203015797Y-66415961D01*
X203200000Y-66415961D01*
X203282118Y-66424818D01*
X203518278Y-66433136D01*
X203893192Y-66440760D01*
X204391567Y-66447534D01*
X204998114Y-66453302D01*
X205697543Y-66457908D01*
X206474564Y-66461198D01*
X207313886Y-66463014D01*
X207853109Y-66463333D01*
X212506218Y-66463333D01*
X211946779Y-65657551D01*
X211724373Y-65344854D01*
X211536917Y-65095645D01*
X211404657Y-64935868D01*
X211348416Y-64890694D01*
X211377360Y-64971598D01*
X211486660Y-65158183D01*
X211657132Y-65419139D01*
X211790243Y-65611809D01*
X212270996Y-66294000D01*
X207806053Y-66294000D01*
X206956101Y-66293168D01*
X206160808Y-66290777D01*
X205435573Y-66286986D01*
X204795794Y-66281953D01*
X204256870Y-66275836D01*
X203834199Y-66268792D01*
X203543179Y-66260980D01*
X203399209Y-66252558D01*
X203386474Y-66248637D01*
X203477511Y-66239887D01*
X203721725Y-66231867D01*
X204102961Y-66224729D01*
X204605061Y-66218626D01*
X205211872Y-66213710D01*
X205907236Y-66210133D01*
X206674998Y-66208048D01*
X207499004Y-66207607D01*
X207718585Y-66207779D01*
X208552646Y-66207677D01*
X209333148Y-66205689D01*
X210044160Y-66201987D01*
X210669753Y-66196747D01*
X211193996Y-66190139D01*
X211600958Y-66182339D01*
X211874711Y-66173519D01*
X211999324Y-66163852D01*
X212005333Y-66161145D01*
X211960237Y-66073278D01*
X211839530Y-65881166D01*
X211665082Y-65619024D01*
X211571425Y-65482336D01*
X211137517Y-64854666D01*
X210222464Y-64854666D01*
X209817570Y-64852487D01*
X209550442Y-64842079D01*
X209389529Y-64817640D01*
X209303281Y-64773364D01*
X209260146Y-64703447D01*
X209250670Y-64675892D01*
X209231375Y-64506025D01*
X209311370Y-64386978D01*
X209508962Y-64310622D01*
X209842456Y-64268827D01*
X210197993Y-64255175D01*
X210972987Y-64241301D01*
X210748327Y-63916197D01*
X210601409Y-63722648D01*
X210486426Y-63604529D01*
X210454401Y-63587879D01*
X210452645Y-63645165D01*
X210533900Y-63791672D01*
X210569471Y-63843541D01*
X210677536Y-64021257D01*
X210713416Y-64135943D01*
X210708293Y-64147928D01*
X210639912Y-64112736D01*
X210521216Y-63970619D01*
X210466224Y-63890101D01*
X210269666Y-63586762D01*
X209334099Y-63585714D01*
X208862496Y-63577237D01*
X208536248Y-63548812D01*
X208331927Y-63494099D01*
X208226102Y-63406754D01*
X208195343Y-63280435D01*
X208195333Y-63277447D01*
X208255997Y-63097543D01*
X208446143Y-62979672D01*
X208777998Y-62918777D01*
X209090380Y-62907333D01*
X209392317Y-62901101D01*
X209615051Y-62884628D01*
X209717003Y-62861247D01*
X209719333Y-62856903D01*
X209674779Y-62760813D01*
X209565415Y-62590685D01*
X209544234Y-62560570D01*
X209391850Y-62346564D01*
X209574546Y-62346564D01*
X209595729Y-62431946D01*
X209697412Y-62599642D01*
X209763165Y-62690105D01*
X209917729Y-62879877D01*
X210020188Y-62982020D01*
X210051479Y-62981196D01*
X210006780Y-62886166D01*
X209856533Y-62648744D01*
X209713299Y-62458404D01*
X209607478Y-62353099D01*
X209574546Y-62346564D01*
X209391850Y-62346564D01*
X209369136Y-62314666D01*
X208361880Y-62314666D01*
X207929886Y-62312203D01*
X207636555Y-62301769D01*
X207451255Y-62278797D01*
X207343348Y-62238719D01*
X207282200Y-62176967D01*
X207267282Y-62151466D01*
X207218978Y-61925311D01*
X207315446Y-61749689D01*
X207463838Y-61679192D01*
X207637214Y-61655637D01*
X207919595Y-61633232D01*
X208250691Y-61616732D01*
X208259466Y-61616423D01*
X208873932Y-61595000D01*
X208319625Y-60811833D01*
X208097003Y-60500818D01*
X207911499Y-60248294D01*
X207783750Y-60081909D01*
X207735166Y-60028666D01*
X207683078Y-60096565D01*
X207546332Y-60290736D01*
X207334699Y-60596894D01*
X207057948Y-61000751D01*
X206725852Y-61488021D01*
X206348179Y-62044417D01*
X205934702Y-62655652D01*
X205650412Y-63077016D01*
X205219030Y-63714985D01*
X204816730Y-64305975D01*
X204453293Y-64835909D01*
X204138498Y-65290711D01*
X203882125Y-65656301D01*
X203693955Y-65918603D01*
X203583767Y-66063540D01*
X203558525Y-66088081D01*
X203595411Y-66012061D01*
X203716555Y-65813794D01*
X203910299Y-65510583D01*
X204164985Y-65119731D01*
X204468956Y-64658540D01*
X204810554Y-64144313D01*
X205178120Y-63594350D01*
X205559996Y-63025957D01*
X205944525Y-62456433D01*
X206320049Y-61903083D01*
X206674910Y-61383208D01*
X206997449Y-60914111D01*
X207276009Y-60513094D01*
X207498932Y-60197460D01*
X207654560Y-59984510D01*
X207731235Y-59891549D01*
X207735327Y-59888985D01*
X207809677Y-59946472D01*
X207955697Y-60120046D01*
X208153039Y-60383648D01*
X208381356Y-60711215D01*
X208407000Y-60749304D01*
X208636943Y-61084611D01*
X208836513Y-61361829D01*
X208985612Y-61554001D01*
X209064137Y-61634167D01*
X209067373Y-61634987D01*
X209096075Y-61631136D01*
X209099543Y-61603744D01*
X209065496Y-61532921D01*
X208981654Y-61398777D01*
X208835736Y-61181424D01*
X208615464Y-60860971D01*
X208374240Y-60512366D01*
X207748814Y-59609326D01*
X205474407Y-62988958D01*
X205020322Y-63664655D01*
X204596445Y-64297249D01*
X204211928Y-64872947D01*
X203875926Y-65377957D01*
X203597591Y-65798488D01*
X203386077Y-66120748D01*
X203250536Y-66330945D01*
X203200121Y-66415288D01*
X203200000Y-66415961D01*
X203015797Y-66415961D01*
X203064844Y-66340236D01*
X203212909Y-66117168D01*
X203431848Y-65789524D01*
X203710492Y-65373866D01*
X204037671Y-64886756D01*
X204402216Y-64344755D01*
X204792956Y-63764424D01*
X205198722Y-63162327D01*
X205608343Y-62555024D01*
X206010651Y-61959077D01*
X206394476Y-61391047D01*
X206748646Y-60867498D01*
X207061994Y-60404989D01*
X207323348Y-60020083D01*
X207521539Y-59729342D01*
X207645397Y-59549327D01*
X207683466Y-59496160D01*
X207746087Y-59541470D01*
G37*
X207746087Y-59541470D02*
X207883396Y-59699472D01*
X208075305Y-59942528D01*
X208301731Y-60243000D01*
X208542587Y-60573251D01*
X208777789Y-60905645D01*
X208987252Y-61212542D01*
X209150890Y-61466307D01*
X209248618Y-61639301D01*
X209259874Y-61665313D01*
X209263930Y-61724770D01*
X209204834Y-61765788D01*
X209056512Y-61792955D01*
X208792888Y-61810859D01*
X208387888Y-61824089D01*
X208352479Y-61824985D01*
X207931822Y-61838518D01*
X207651609Y-61857418D01*
X207482950Y-61886722D01*
X207396954Y-61931465D01*
X207364732Y-61996682D01*
X207364638Y-61997166D01*
X207366510Y-62056881D01*
X207415952Y-62098071D01*
X207538406Y-62124121D01*
X207759316Y-62138416D01*
X208104122Y-62144343D01*
X208478247Y-62145333D01*
X209620244Y-62145333D01*
X209923789Y-62558843D01*
X210084517Y-62785764D01*
X210194558Y-62956358D01*
X210227333Y-63024510D01*
X210148368Y-63045468D01*
X209934257Y-63062406D01*
X209619171Y-63073409D01*
X209296000Y-63076666D01*
X208888412Y-63078615D01*
X208620871Y-63088009D01*
X208464106Y-63110170D01*
X208388844Y-63150422D01*
X208365813Y-63214086D01*
X208364666Y-63246000D01*
X208375437Y-63320288D01*
X208427321Y-63368978D01*
X208549675Y-63397437D01*
X208771854Y-63411036D01*
X209123217Y-63415144D01*
X209290488Y-63415333D01*
X209691253Y-63422478D01*
X210047368Y-63441788D01*
X210313416Y-63470072D01*
X210426027Y-63495067D01*
X210592823Y-63609232D01*
X210789697Y-63813872D01*
X210899220Y-63957750D01*
X211162695Y-64340698D01*
X210292847Y-64364849D01*
X209900936Y-64378143D01*
X209648178Y-64396318D01*
X209504403Y-64426082D01*
X209439441Y-64474147D01*
X209423122Y-64547224D01*
X209423000Y-64558333D01*
X209434305Y-64629826D01*
X209486694Y-64679820D01*
X209607875Y-64713988D01*
X209825558Y-64738000D01*
X210167452Y-64757528D01*
X210457063Y-64770000D01*
X211491127Y-64812333D01*
X212092018Y-65680166D01*
X212692910Y-66548000D01*
X207814458Y-66548000D01*
X206747937Y-66547326D01*
X205840008Y-66545150D01*
X205079933Y-66541234D01*
X204456977Y-66535342D01*
X203960401Y-66527239D01*
X203579469Y-66516689D01*
X203303444Y-66503455D01*
X203121589Y-66487302D01*
X203023166Y-66467993D01*
X202997440Y-66445294D01*
X202998825Y-66442166D01*
X203015797Y-66415961D01*
X203200000Y-66415961D01*
X203282118Y-66424818D01*
X203518278Y-66433136D01*
X203893192Y-66440760D01*
X204391567Y-66447534D01*
X204998114Y-66453302D01*
X205697543Y-66457908D01*
X206474564Y-66461198D01*
X207313886Y-66463014D01*
X207853109Y-66463333D01*
X212506218Y-66463333D01*
X211946779Y-65657551D01*
X211724373Y-65344854D01*
X211536917Y-65095645D01*
X211404657Y-64935868D01*
X211348416Y-64890694D01*
X211377360Y-64971598D01*
X211486660Y-65158183D01*
X211657132Y-65419139D01*
X211790243Y-65611809D01*
X212270996Y-66294000D01*
X207806053Y-66294000D01*
X206956101Y-66293168D01*
X206160808Y-66290777D01*
X205435573Y-66286986D01*
X204795794Y-66281953D01*
X204256870Y-66275836D01*
X203834199Y-66268792D01*
X203543179Y-66260980D01*
X203399209Y-66252558D01*
X203386474Y-66248637D01*
X203477511Y-66239887D01*
X203721725Y-66231867D01*
X204102961Y-66224729D01*
X204605061Y-66218626D01*
X205211872Y-66213710D01*
X205907236Y-66210133D01*
X206674998Y-66208048D01*
X207499004Y-66207607D01*
X207718585Y-66207779D01*
X208552646Y-66207677D01*
X209333148Y-66205689D01*
X210044160Y-66201987D01*
X210669753Y-66196747D01*
X211193996Y-66190139D01*
X211600958Y-66182339D01*
X211874711Y-66173519D01*
X211999324Y-66163852D01*
X212005333Y-66161145D01*
X211960237Y-66073278D01*
X211839530Y-65881166D01*
X211665082Y-65619024D01*
X211571425Y-65482336D01*
X211137517Y-64854666D01*
X210222464Y-64854666D01*
X209817570Y-64852487D01*
X209550442Y-64842079D01*
X209389529Y-64817640D01*
X209303281Y-64773364D01*
X209260146Y-64703447D01*
X209250670Y-64675892D01*
X209231375Y-64506025D01*
X209311370Y-64386978D01*
X209508962Y-64310622D01*
X209842456Y-64268827D01*
X210197993Y-64255175D01*
X210972987Y-64241301D01*
X210748327Y-63916197D01*
X210601409Y-63722648D01*
X210486426Y-63604529D01*
X210454401Y-63587879D01*
X210452645Y-63645165D01*
X210533900Y-63791672D01*
X210569471Y-63843541D01*
X210677536Y-64021257D01*
X210713416Y-64135943D01*
X210708293Y-64147928D01*
X210639912Y-64112736D01*
X210521216Y-63970619D01*
X210466224Y-63890101D01*
X210269666Y-63586762D01*
X209334099Y-63585714D01*
X208862496Y-63577237D01*
X208536248Y-63548812D01*
X208331927Y-63494099D01*
X208226102Y-63406754D01*
X208195343Y-63280435D01*
X208195333Y-63277447D01*
X208255997Y-63097543D01*
X208446143Y-62979672D01*
X208777998Y-62918777D01*
X209090380Y-62907333D01*
X209392317Y-62901101D01*
X209615051Y-62884628D01*
X209717003Y-62861247D01*
X209719333Y-62856903D01*
X209674779Y-62760813D01*
X209565415Y-62590685D01*
X209544234Y-62560570D01*
X209391850Y-62346564D01*
X209574546Y-62346564D01*
X209595729Y-62431946D01*
X209697412Y-62599642D01*
X209763165Y-62690105D01*
X209917729Y-62879877D01*
X210020188Y-62982020D01*
X210051479Y-62981196D01*
X210006780Y-62886166D01*
X209856533Y-62648744D01*
X209713299Y-62458404D01*
X209607478Y-62353099D01*
X209574546Y-62346564D01*
X209391850Y-62346564D01*
X209369136Y-62314666D01*
X208361880Y-62314666D01*
X207929886Y-62312203D01*
X207636555Y-62301769D01*
X207451255Y-62278797D01*
X207343348Y-62238719D01*
X207282200Y-62176967D01*
X207267282Y-62151466D01*
X207218978Y-61925311D01*
X207315446Y-61749689D01*
X207463838Y-61679192D01*
X207637214Y-61655637D01*
X207919595Y-61633232D01*
X208250691Y-61616732D01*
X208259466Y-61616423D01*
X208873932Y-61595000D01*
X208319625Y-60811833D01*
X208097003Y-60500818D01*
X207911499Y-60248294D01*
X207783750Y-60081909D01*
X207735166Y-60028666D01*
X207683078Y-60096565D01*
X207546332Y-60290736D01*
X207334699Y-60596894D01*
X207057948Y-61000751D01*
X206725852Y-61488021D01*
X206348179Y-62044417D01*
X205934702Y-62655652D01*
X205650412Y-63077016D01*
X205219030Y-63714985D01*
X204816730Y-64305975D01*
X204453293Y-64835909D01*
X204138498Y-65290711D01*
X203882125Y-65656301D01*
X203693955Y-65918603D01*
X203583767Y-66063540D01*
X203558525Y-66088081D01*
X203595411Y-66012061D01*
X203716555Y-65813794D01*
X203910299Y-65510583D01*
X204164985Y-65119731D01*
X204468956Y-64658540D01*
X204810554Y-64144313D01*
X205178120Y-63594350D01*
X205559996Y-63025957D01*
X205944525Y-62456433D01*
X206320049Y-61903083D01*
X206674910Y-61383208D01*
X206997449Y-60914111D01*
X207276009Y-60513094D01*
X207498932Y-60197460D01*
X207654560Y-59984510D01*
X207731235Y-59891549D01*
X207735327Y-59888985D01*
X207809677Y-59946472D01*
X207955697Y-60120046D01*
X208153039Y-60383648D01*
X208381356Y-60711215D01*
X208407000Y-60749304D01*
X208636943Y-61084611D01*
X208836513Y-61361829D01*
X208985612Y-61554001D01*
X209064137Y-61634167D01*
X209067373Y-61634987D01*
X209096075Y-61631136D01*
X209099543Y-61603744D01*
X209065496Y-61532921D01*
X208981654Y-61398777D01*
X208835736Y-61181424D01*
X208615464Y-60860971D01*
X208374240Y-60512366D01*
X207748814Y-59609326D01*
X205474407Y-62988958D01*
X205020322Y-63664655D01*
X204596445Y-64297249D01*
X204211928Y-64872947D01*
X203875926Y-65377957D01*
X203597591Y-65798488D01*
X203386077Y-66120748D01*
X203250536Y-66330945D01*
X203200121Y-66415288D01*
X203200000Y-66415961D01*
X203015797Y-66415961D01*
X203064844Y-66340236D01*
X203212909Y-66117168D01*
X203431848Y-65789524D01*
X203710492Y-65373866D01*
X204037671Y-64886756D01*
X204402216Y-64344755D01*
X204792956Y-63764424D01*
X205198722Y-63162327D01*
X205608343Y-62555024D01*
X206010651Y-61959077D01*
X206394476Y-61391047D01*
X206748646Y-60867498D01*
X207061994Y-60404989D01*
X207323348Y-60020083D01*
X207521539Y-59729342D01*
X207645397Y-59549327D01*
X207683466Y-59496160D01*
X207746087Y-59541470D01*
D13*
%TO.C,J4*%
X191516000Y-56344000D02*
X192576000Y-56344000D01*
X192576000Y-56344000D02*
X192576000Y-57404000D01*
X190516000Y-56344000D02*
X190516000Y-58404000D01*
X190516000Y-58404000D02*
X192576000Y-58404000D01*
X192576000Y-58404000D02*
X192576000Y-64464000D01*
X188456000Y-64464000D02*
X192576000Y-64464000D01*
X188456000Y-56344000D02*
X188456000Y-64464000D01*
X188456000Y-56344000D02*
X190516000Y-56344000D01*
D11*
%TO.C,USB1*%
X228640000Y-47498000D02*
X228640000Y-52948000D01*
X220940000Y-47498000D02*
X220940000Y-52948000D01*
X228640000Y-52948000D02*
X220940000Y-52948000D01*
D13*
%TO.C,SW3*%
X243164000Y-85812000D02*
G75*
G03*
X243164000Y-85812000I-3000000J0D01*
G01*
X242164000Y-79912000D02*
X246264000Y-79912000D01*
X246264000Y-91712000D02*
X242164000Y-91712000D01*
X238164000Y-91712000D02*
X234064000Y-91712000D01*
X238164000Y-79912000D02*
X234064000Y-79912000D01*
X234064000Y-79912000D02*
X234064000Y-91712000D01*
X232664000Y-82012000D02*
X232364000Y-81712000D01*
X232364000Y-81712000D02*
X232964000Y-81712000D01*
X232964000Y-81712000D02*
X232664000Y-82012000D01*
X246264000Y-79912000D02*
X246264000Y-82312000D01*
X246264000Y-84512000D02*
X246264000Y-87112000D01*
X246264000Y-89312000D02*
X246264000Y-91712000D01*
X240164000Y-85312000D02*
X240164000Y-86312000D01*
X239664000Y-85812000D02*
X240664000Y-85812000D01*
%TO.C,SW2*%
X206334000Y-85812000D02*
G75*
G03*
X206334000Y-85812000I-3000000J0D01*
G01*
X205334000Y-79912000D02*
X209434000Y-79912000D01*
X209434000Y-91712000D02*
X205334000Y-91712000D01*
X201334000Y-91712000D02*
X197234000Y-91712000D01*
X201334000Y-79912000D02*
X197234000Y-79912000D01*
X197234000Y-79912000D02*
X197234000Y-91712000D01*
X195834000Y-82012000D02*
X195534000Y-81712000D01*
X195534000Y-81712000D02*
X196134000Y-81712000D01*
X196134000Y-81712000D02*
X195834000Y-82012000D01*
X209434000Y-79912000D02*
X209434000Y-82312000D01*
X209434000Y-84512000D02*
X209434000Y-87112000D01*
X209434000Y-89312000D02*
X209434000Y-91712000D01*
X203334000Y-85312000D02*
X203334000Y-86312000D01*
X202834000Y-85812000D02*
X203834000Y-85812000D01*
D11*
%TO.C,SW1*%
X244154000Y-56702000D02*
X238954000Y-56702000D01*
X238954000Y-56702000D02*
X238954000Y-51502000D01*
X238954000Y-51502000D02*
X244154000Y-51502000D01*
X244154000Y-51502000D02*
X244154000Y-56702000D01*
X242554000Y-54102000D02*
G75*
G03*
X242554000Y-54102000I-1000000J0D01*
G01*
D13*
%TO.C,R3*%
X232383000Y-63727064D02*
X232383000Y-63272936D01*
X230913000Y-63727064D02*
X230913000Y-63272936D01*
%TO.C,R2*%
X229081000Y-63727064D02*
X229081000Y-63272936D01*
X227611000Y-63727064D02*
X227611000Y-63272936D01*
%TO.C,D9*%
X243824000Y-68362000D02*
X243824000Y-72262000D01*
X241824000Y-68362000D02*
X241824000Y-72262000D01*
X243824000Y-68362000D02*
X241824000Y-68362000D01*
%TO.C,D8*%
X234680000Y-67346000D02*
X234680000Y-71246000D01*
X232680000Y-67346000D02*
X232680000Y-71246000D01*
X234680000Y-67346000D02*
X232680000Y-67346000D01*
%TO.C,D7*%
X225536000Y-68362000D02*
X225536000Y-72262000D01*
X223536000Y-68362000D02*
X223536000Y-72262000D01*
X225536000Y-68362000D02*
X223536000Y-68362000D01*
%TO.C,D6*%
X240776000Y-67346000D02*
X240776000Y-71246000D01*
X238776000Y-67346000D02*
X238776000Y-71246000D01*
X240776000Y-67346000D02*
X238776000Y-67346000D01*
%TO.C,D5*%
X231632000Y-68362000D02*
X231632000Y-72262000D01*
X229632000Y-68362000D02*
X229632000Y-72262000D01*
X231632000Y-68362000D02*
X229632000Y-68362000D01*
%TO.C,D4*%
X222488000Y-67346000D02*
X222488000Y-71246000D01*
X220488000Y-67346000D02*
X220488000Y-71246000D01*
X222488000Y-67346000D02*
X220488000Y-67346000D01*
%TO.C,D3*%
X228584000Y-67346000D02*
X228584000Y-71246000D01*
X226584000Y-67346000D02*
X226584000Y-71246000D01*
X228584000Y-67346000D02*
X226584000Y-67346000D01*
%TO.C,D2*%
X237728000Y-68362000D02*
X237728000Y-72262000D01*
X235728000Y-68362000D02*
X235728000Y-72262000D01*
X237728000Y-68362000D02*
X235728000Y-68362000D01*
%TO.C,D1*%
X219440000Y-68362000D02*
X219440000Y-72262000D01*
X217440000Y-68362000D02*
X217440000Y-72262000D01*
X219440000Y-68362000D02*
X217440000Y-68362000D01*
%TO.C,J4*%
D11*
X190182666Y-54356380D02*
X190182666Y-55070666D01*
X190135047Y-55213523D01*
X190039809Y-55308761D01*
X189896952Y-55356380D01*
X189801714Y-55356380D01*
X191087428Y-54689714D02*
X191087428Y-55356380D01*
X190849333Y-54308761D02*
X190611238Y-55023047D01*
X191230285Y-55023047D01*
%TO.C,USB1*%
X223051904Y-48982380D02*
X223051904Y-49791904D01*
X223099523Y-49887142D01*
X223147142Y-49934761D01*
X223242380Y-49982380D01*
X223432857Y-49982380D01*
X223528095Y-49934761D01*
X223575714Y-49887142D01*
X223623333Y-49791904D01*
X223623333Y-48982380D01*
X224051904Y-49934761D02*
X224194761Y-49982380D01*
X224432857Y-49982380D01*
X224528095Y-49934761D01*
X224575714Y-49887142D01*
X224623333Y-49791904D01*
X224623333Y-49696666D01*
X224575714Y-49601428D01*
X224528095Y-49553809D01*
X224432857Y-49506190D01*
X224242380Y-49458571D01*
X224147142Y-49410952D01*
X224099523Y-49363333D01*
X224051904Y-49268095D01*
X224051904Y-49172857D01*
X224099523Y-49077619D01*
X224147142Y-49030000D01*
X224242380Y-48982380D01*
X224480476Y-48982380D01*
X224623333Y-49030000D01*
X225385238Y-49458571D02*
X225528095Y-49506190D01*
X225575714Y-49553809D01*
X225623333Y-49649047D01*
X225623333Y-49791904D01*
X225575714Y-49887142D01*
X225528095Y-49934761D01*
X225432857Y-49982380D01*
X225051904Y-49982380D01*
X225051904Y-48982380D01*
X225385238Y-48982380D01*
X225480476Y-49030000D01*
X225528095Y-49077619D01*
X225575714Y-49172857D01*
X225575714Y-49268095D01*
X225528095Y-49363333D01*
X225480476Y-49410952D01*
X225385238Y-49458571D01*
X225051904Y-49458571D01*
X226575714Y-49982380D02*
X226004285Y-49982380D01*
X226290000Y-49982380D02*
X226290000Y-48982380D01*
X226194761Y-49125238D01*
X226099523Y-49220476D01*
X226004285Y-49268095D01*
%TO.C,SW3*%
X234130666Y-79016761D02*
X234273523Y-79064380D01*
X234511619Y-79064380D01*
X234606857Y-79016761D01*
X234654476Y-78969142D01*
X234702095Y-78873904D01*
X234702095Y-78778666D01*
X234654476Y-78683428D01*
X234606857Y-78635809D01*
X234511619Y-78588190D01*
X234321142Y-78540571D01*
X234225904Y-78492952D01*
X234178285Y-78445333D01*
X234130666Y-78350095D01*
X234130666Y-78254857D01*
X234178285Y-78159619D01*
X234225904Y-78112000D01*
X234321142Y-78064380D01*
X234559238Y-78064380D01*
X234702095Y-78112000D01*
X235035428Y-78064380D02*
X235273523Y-79064380D01*
X235464000Y-78350095D01*
X235654476Y-79064380D01*
X235892571Y-78064380D01*
X236178285Y-78064380D02*
X236797333Y-78064380D01*
X236464000Y-78445333D01*
X236606857Y-78445333D01*
X236702095Y-78492952D01*
X236749714Y-78540571D01*
X236797333Y-78635809D01*
X236797333Y-78873904D01*
X236749714Y-78969142D01*
X236702095Y-79016761D01*
X236606857Y-79064380D01*
X236321142Y-79064380D01*
X236225904Y-79016761D01*
X236178285Y-78969142D01*
%TO.C,SW2*%
X197300666Y-79016761D02*
X197443523Y-79064380D01*
X197681619Y-79064380D01*
X197776857Y-79016761D01*
X197824476Y-78969142D01*
X197872095Y-78873904D01*
X197872095Y-78778666D01*
X197824476Y-78683428D01*
X197776857Y-78635809D01*
X197681619Y-78588190D01*
X197491142Y-78540571D01*
X197395904Y-78492952D01*
X197348285Y-78445333D01*
X197300666Y-78350095D01*
X197300666Y-78254857D01*
X197348285Y-78159619D01*
X197395904Y-78112000D01*
X197491142Y-78064380D01*
X197729238Y-78064380D01*
X197872095Y-78112000D01*
X198205428Y-78064380D02*
X198443523Y-79064380D01*
X198634000Y-78350095D01*
X198824476Y-79064380D01*
X199062571Y-78064380D01*
X199395904Y-78159619D02*
X199443523Y-78112000D01*
X199538761Y-78064380D01*
X199776857Y-78064380D01*
X199872095Y-78112000D01*
X199919714Y-78159619D01*
X199967333Y-78254857D01*
X199967333Y-78350095D01*
X199919714Y-78492952D01*
X199348285Y-79064380D01*
X199967333Y-79064380D01*
%TO.C,SW1*%
X240220666Y-50442761D02*
X240363523Y-50490380D01*
X240601619Y-50490380D01*
X240696857Y-50442761D01*
X240744476Y-50395142D01*
X240792095Y-50299904D01*
X240792095Y-50204666D01*
X240744476Y-50109428D01*
X240696857Y-50061809D01*
X240601619Y-50014190D01*
X240411142Y-49966571D01*
X240315904Y-49918952D01*
X240268285Y-49871333D01*
X240220666Y-49776095D01*
X240220666Y-49680857D01*
X240268285Y-49585619D01*
X240315904Y-49538000D01*
X240411142Y-49490380D01*
X240649238Y-49490380D01*
X240792095Y-49538000D01*
X241125428Y-49490380D02*
X241363523Y-50490380D01*
X241554000Y-49776095D01*
X241744476Y-50490380D01*
X241982571Y-49490380D01*
X242887333Y-50490380D02*
X242315904Y-50490380D01*
X242601619Y-50490380D02*
X242601619Y-49490380D01*
X242506380Y-49633238D01*
X242411142Y-49728476D01*
X242315904Y-49776095D01*
%TO.C,R3*%
X230450380Y-63666666D02*
X229974190Y-64000000D01*
X230450380Y-64238095D02*
X229450380Y-64238095D01*
X229450380Y-63857142D01*
X229498000Y-63761904D01*
X229545619Y-63714285D01*
X229640857Y-63666666D01*
X229783714Y-63666666D01*
X229878952Y-63714285D01*
X229926571Y-63761904D01*
X229974190Y-63857142D01*
X229974190Y-64238095D01*
X229450380Y-63333333D02*
X229450380Y-62714285D01*
X229831333Y-63047619D01*
X229831333Y-62904761D01*
X229878952Y-62809523D01*
X229926571Y-62761904D01*
X230021809Y-62714285D01*
X230259904Y-62714285D01*
X230355142Y-62761904D01*
X230402761Y-62809523D01*
X230450380Y-62904761D01*
X230450380Y-63190476D01*
X230402761Y-63285714D01*
X230355142Y-63333333D01*
%TO.C,R2*%
X227148380Y-63666666D02*
X226672190Y-64000000D01*
X227148380Y-64238095D02*
X226148380Y-64238095D01*
X226148380Y-63857142D01*
X226196000Y-63761904D01*
X226243619Y-63714285D01*
X226338857Y-63666666D01*
X226481714Y-63666666D01*
X226576952Y-63714285D01*
X226624571Y-63761904D01*
X226672190Y-63857142D01*
X226672190Y-64238095D01*
X226243619Y-63285714D02*
X226196000Y-63238095D01*
X226148380Y-63142857D01*
X226148380Y-62904761D01*
X226196000Y-62809523D01*
X226243619Y-62761904D01*
X226338857Y-62714285D01*
X226434095Y-62714285D01*
X226576952Y-62761904D01*
X227148380Y-63333333D01*
X227148380Y-62714285D01*
%TO.C,D9*%
X245276380Y-71350095D02*
X244276380Y-71350095D01*
X244276380Y-71112000D01*
X244324000Y-70969142D01*
X244419238Y-70873904D01*
X244514476Y-70826285D01*
X244704952Y-70778666D01*
X244847809Y-70778666D01*
X245038285Y-70826285D01*
X245133523Y-70873904D01*
X245228761Y-70969142D01*
X245276380Y-71112000D01*
X245276380Y-71350095D01*
X245276380Y-70302476D02*
X245276380Y-70112000D01*
X245228761Y-70016761D01*
X245181142Y-69969142D01*
X245038285Y-69873904D01*
X244847809Y-69826285D01*
X244466857Y-69826285D01*
X244371619Y-69873904D01*
X244324000Y-69921523D01*
X244276380Y-70016761D01*
X244276380Y-70207238D01*
X244324000Y-70302476D01*
X244371619Y-70350095D01*
X244466857Y-70397714D01*
X244704952Y-70397714D01*
X244800190Y-70350095D01*
X244847809Y-70302476D01*
X244895428Y-70207238D01*
X244895428Y-70016761D01*
X244847809Y-69921523D01*
X244800190Y-69873904D01*
X244704952Y-69826285D01*
%TO.C,D8*%
X236132380Y-70334095D02*
X235132380Y-70334095D01*
X235132380Y-70096000D01*
X235180000Y-69953142D01*
X235275238Y-69857904D01*
X235370476Y-69810285D01*
X235560952Y-69762666D01*
X235703809Y-69762666D01*
X235894285Y-69810285D01*
X235989523Y-69857904D01*
X236084761Y-69953142D01*
X236132380Y-70096000D01*
X236132380Y-70334095D01*
X235560952Y-69191238D02*
X235513333Y-69286476D01*
X235465714Y-69334095D01*
X235370476Y-69381714D01*
X235322857Y-69381714D01*
X235227619Y-69334095D01*
X235180000Y-69286476D01*
X235132380Y-69191238D01*
X235132380Y-69000761D01*
X235180000Y-68905523D01*
X235227619Y-68857904D01*
X235322857Y-68810285D01*
X235370476Y-68810285D01*
X235465714Y-68857904D01*
X235513333Y-68905523D01*
X235560952Y-69000761D01*
X235560952Y-69191238D01*
X235608571Y-69286476D01*
X235656190Y-69334095D01*
X235751428Y-69381714D01*
X235941904Y-69381714D01*
X236037142Y-69334095D01*
X236084761Y-69286476D01*
X236132380Y-69191238D01*
X236132380Y-69000761D01*
X236084761Y-68905523D01*
X236037142Y-68857904D01*
X235941904Y-68810285D01*
X235751428Y-68810285D01*
X235656190Y-68857904D01*
X235608571Y-68905523D01*
X235560952Y-69000761D01*
%TO.C,D7*%
X226988380Y-71350095D02*
X225988380Y-71350095D01*
X225988380Y-71112000D01*
X226036000Y-70969142D01*
X226131238Y-70873904D01*
X226226476Y-70826285D01*
X226416952Y-70778666D01*
X226559809Y-70778666D01*
X226750285Y-70826285D01*
X226845523Y-70873904D01*
X226940761Y-70969142D01*
X226988380Y-71112000D01*
X226988380Y-71350095D01*
X225988380Y-70445333D02*
X225988380Y-69778666D01*
X226988380Y-70207238D01*
%TO.C,D6*%
X242228380Y-70334095D02*
X241228380Y-70334095D01*
X241228380Y-70096000D01*
X241276000Y-69953142D01*
X241371238Y-69857904D01*
X241466476Y-69810285D01*
X241656952Y-69762666D01*
X241799809Y-69762666D01*
X241990285Y-69810285D01*
X242085523Y-69857904D01*
X242180761Y-69953142D01*
X242228380Y-70096000D01*
X242228380Y-70334095D01*
X241228380Y-68905523D02*
X241228380Y-69096000D01*
X241276000Y-69191238D01*
X241323619Y-69238857D01*
X241466476Y-69334095D01*
X241656952Y-69381714D01*
X242037904Y-69381714D01*
X242133142Y-69334095D01*
X242180761Y-69286476D01*
X242228380Y-69191238D01*
X242228380Y-69000761D01*
X242180761Y-68905523D01*
X242133142Y-68857904D01*
X242037904Y-68810285D01*
X241799809Y-68810285D01*
X241704571Y-68857904D01*
X241656952Y-68905523D01*
X241609333Y-69000761D01*
X241609333Y-69191238D01*
X241656952Y-69286476D01*
X241704571Y-69334095D01*
X241799809Y-69381714D01*
%TO.C,D5*%
X233084380Y-71350095D02*
X232084380Y-71350095D01*
X232084380Y-71112000D01*
X232132000Y-70969142D01*
X232227238Y-70873904D01*
X232322476Y-70826285D01*
X232512952Y-70778666D01*
X232655809Y-70778666D01*
X232846285Y-70826285D01*
X232941523Y-70873904D01*
X233036761Y-70969142D01*
X233084380Y-71112000D01*
X233084380Y-71350095D01*
X232084380Y-69873904D02*
X232084380Y-70350095D01*
X232560571Y-70397714D01*
X232512952Y-70350095D01*
X232465333Y-70254857D01*
X232465333Y-70016761D01*
X232512952Y-69921523D01*
X232560571Y-69873904D01*
X232655809Y-69826285D01*
X232893904Y-69826285D01*
X232989142Y-69873904D01*
X233036761Y-69921523D01*
X233084380Y-70016761D01*
X233084380Y-70254857D01*
X233036761Y-70350095D01*
X232989142Y-70397714D01*
%TO.C,D4*%
X223940380Y-70334095D02*
X222940380Y-70334095D01*
X222940380Y-70096000D01*
X222988000Y-69953142D01*
X223083238Y-69857904D01*
X223178476Y-69810285D01*
X223368952Y-69762666D01*
X223511809Y-69762666D01*
X223702285Y-69810285D01*
X223797523Y-69857904D01*
X223892761Y-69953142D01*
X223940380Y-70096000D01*
X223940380Y-70334095D01*
X223273714Y-68905523D02*
X223940380Y-68905523D01*
X222892761Y-69143619D02*
X223607047Y-69381714D01*
X223607047Y-68762666D01*
%TO.C,D3*%
X230036380Y-70334095D02*
X229036380Y-70334095D01*
X229036380Y-70096000D01*
X229084000Y-69953142D01*
X229179238Y-69857904D01*
X229274476Y-69810285D01*
X229464952Y-69762666D01*
X229607809Y-69762666D01*
X229798285Y-69810285D01*
X229893523Y-69857904D01*
X229988761Y-69953142D01*
X230036380Y-70096000D01*
X230036380Y-70334095D01*
X229036380Y-69429333D02*
X229036380Y-68810285D01*
X229417333Y-69143619D01*
X229417333Y-69000761D01*
X229464952Y-68905523D01*
X229512571Y-68857904D01*
X229607809Y-68810285D01*
X229845904Y-68810285D01*
X229941142Y-68857904D01*
X229988761Y-68905523D01*
X230036380Y-69000761D01*
X230036380Y-69286476D01*
X229988761Y-69381714D01*
X229941142Y-69429333D01*
%TO.C,D2*%
X239180380Y-71350095D02*
X238180380Y-71350095D01*
X238180380Y-71112000D01*
X238228000Y-70969142D01*
X238323238Y-70873904D01*
X238418476Y-70826285D01*
X238608952Y-70778666D01*
X238751809Y-70778666D01*
X238942285Y-70826285D01*
X239037523Y-70873904D01*
X239132761Y-70969142D01*
X239180380Y-71112000D01*
X239180380Y-71350095D01*
X238275619Y-70397714D02*
X238228000Y-70350095D01*
X238180380Y-70254857D01*
X238180380Y-70016761D01*
X238228000Y-69921523D01*
X238275619Y-69873904D01*
X238370857Y-69826285D01*
X238466095Y-69826285D01*
X238608952Y-69873904D01*
X239180380Y-70445333D01*
X239180380Y-69826285D01*
%TO.C,D1*%
X220892380Y-71350095D02*
X219892380Y-71350095D01*
X219892380Y-71112000D01*
X219940000Y-70969142D01*
X220035238Y-70873904D01*
X220130476Y-70826285D01*
X220320952Y-70778666D01*
X220463809Y-70778666D01*
X220654285Y-70826285D01*
X220749523Y-70873904D01*
X220844761Y-70969142D01*
X220892380Y-71112000D01*
X220892380Y-71350095D01*
X220892380Y-69826285D02*
X220892380Y-70397714D01*
X220892380Y-70112000D02*
X219892380Y-70112000D01*
X220035238Y-70207238D01*
X220130476Y-70302476D01*
X220178095Y-70397714D01*
%TD*%
%LPC*%
D14*
%TO.C,J4*%
X189516000Y-63404000D03*
X191516000Y-63404000D03*
X189516000Y-61404000D03*
X191516000Y-61404000D03*
X189516000Y-59404000D03*
X191516000Y-59404000D03*
X189516000Y-57404000D03*
D15*
X191516000Y-57404000D03*
%TD*%
D16*
%TO.C,USB1*%
X228440000Y-47498000D03*
X221140000Y-47498000D03*
X221140000Y-51998000D03*
X228440000Y-51998000D03*
D17*
X226390000Y-51998000D03*
X225590000Y-51998000D03*
X224790000Y-51998000D03*
X223990000Y-51998000D03*
X223190000Y-51998000D03*
%TD*%
D18*
%TO.C,SW3*%
X232664000Y-83312000D03*
D19*
X232664000Y-85812000D03*
X232664000Y-88312000D03*
D20*
X240164000Y-80212000D03*
X240164000Y-91412000D03*
D19*
X247164000Y-83312000D03*
X247164000Y-88312000D03*
%TD*%
D18*
%TO.C,SW2*%
X195834000Y-83312000D03*
D19*
X195834000Y-85812000D03*
X195834000Y-88312000D03*
D20*
X203334000Y-80212000D03*
X203334000Y-91412000D03*
D19*
X210334000Y-83312000D03*
X210334000Y-88312000D03*
%TD*%
D21*
%TO.C,SW1*%
X244654000Y-52252000D03*
X238454000Y-55952000D03*
X244654000Y-55952000D03*
X238454000Y-52252000D03*
%TD*%
%TO.C,R3*%
G36*
G01*
X232098002Y-63100000D02*
X231197998Y-63100000D01*
G75*
G02*
X230948000Y-62850002I0J249998D01*
G01*
X230948000Y-62324998D01*
G75*
G02*
X231197998Y-62075000I249998J0D01*
G01*
X232098002Y-62075000D01*
G75*
G02*
X232348000Y-62324998I0J-249998D01*
G01*
X232348000Y-62850002D01*
G75*
G02*
X232098002Y-63100000I-249998J0D01*
G01*
G37*
G36*
G01*
X232098002Y-64925000D02*
X231197998Y-64925000D01*
G75*
G02*
X230948000Y-64675002I0J249998D01*
G01*
X230948000Y-64149998D01*
G75*
G02*
X231197998Y-63900000I249998J0D01*
G01*
X232098002Y-63900000D01*
G75*
G02*
X232348000Y-64149998I0J-249998D01*
G01*
X232348000Y-64675002D01*
G75*
G02*
X232098002Y-64925000I-249998J0D01*
G01*
G37*
%TD*%
%TO.C,R2*%
G36*
G01*
X228796002Y-63100000D02*
X227895998Y-63100000D01*
G75*
G02*
X227646000Y-62850002I0J249998D01*
G01*
X227646000Y-62324998D01*
G75*
G02*
X227895998Y-62075000I249998J0D01*
G01*
X228796002Y-62075000D01*
G75*
G02*
X229046000Y-62324998I0J-249998D01*
G01*
X229046000Y-62850002D01*
G75*
G02*
X228796002Y-63100000I-249998J0D01*
G01*
G37*
G36*
G01*
X228796002Y-64925000D02*
X227895998Y-64925000D01*
G75*
G02*
X227646000Y-64675002I0J249998D01*
G01*
X227646000Y-64149998D01*
G75*
G02*
X227895998Y-63900000I249998J0D01*
G01*
X228796002Y-63900000D01*
G75*
G02*
X229046000Y-64149998I0J-249998D01*
G01*
X229046000Y-64675002D01*
G75*
G02*
X228796002Y-64925000I-249998J0D01*
G01*
G37*
%TD*%
D22*
%TO.C,MX7*%
X245618000Y-123952000D03*
X235458000Y-123952000D03*
D23*
X240538000Y-123952000D03*
%TD*%
D22*
%TO.C,MX6*%
X226568000Y-123952000D03*
X216408000Y-123952000D03*
D23*
X221488000Y-123952000D03*
%TD*%
D22*
%TO.C,MX5*%
X207518000Y-123952000D03*
X197358000Y-123952000D03*
D23*
X202438000Y-123952000D03*
%TD*%
D22*
%TO.C,MX4*%
X245618000Y-104902000D03*
X235458000Y-104902000D03*
D23*
X240538000Y-104902000D03*
%TD*%
D22*
%TO.C,MX3*%
X226568000Y-104902000D03*
X216408000Y-104902000D03*
D23*
X221488000Y-104902000D03*
%TD*%
D22*
%TO.C,MX2*%
X207518000Y-104902000D03*
X197358000Y-104902000D03*
D23*
X202438000Y-104902000D03*
%TD*%
D22*
%TO.C,MX1*%
X226568000Y-85852000D03*
X216408000Y-85852000D03*
D23*
X221488000Y-85852000D03*
%TD*%
D24*
%TO.C,D9*%
X242824000Y-72262000D03*
X242824000Y-68962000D03*
%TD*%
%TO.C,D8*%
X233680000Y-71246000D03*
X233680000Y-67946000D03*
%TD*%
%TO.C,D7*%
X224536000Y-72262000D03*
X224536000Y-68962000D03*
%TD*%
%TO.C,D6*%
X239776000Y-71246000D03*
X239776000Y-67946000D03*
%TD*%
%TO.C,D5*%
X230632000Y-72262000D03*
X230632000Y-68962000D03*
%TD*%
%TO.C,D4*%
X221488000Y-71246000D03*
X221488000Y-67946000D03*
%TD*%
%TO.C,D3*%
X227584000Y-71246000D03*
X227584000Y-67946000D03*
%TD*%
%TO.C,D2*%
X236728000Y-72262000D03*
X236728000Y-68962000D03*
%TD*%
%TO.C,D1*%
X218440000Y-72262000D03*
X218440000Y-68962000D03*
%TD*%
M02*
